# Blender v2.83 (sub 11) OBJ File: ''
# www.blender.org
o tris.005
v 0.151711 6.007203 -0.582126
v 0.349147 5.282351 -1.997353
v -0.076571 3.438881 -2.199314
v -1.231158 -0.037922 -0.174269
v -1.908977 2.683735 -1.168362
v 0.001261 2.683735 -1.411288
v 0.564525 -0.037922 -0.486580
v -1.265828 4.181931 -2.876039
v -2.681610 3.872982 -2.884670
v 0.849473 3.036301 -3.416111
v 1.361226 1.772401 -1.963858
v 2.208173 2.777940 2.165969
v 0.313324 1.932580 2.591465
v 1.610626 2.506176 3.909478
v 1.236430 1.912416 0.251463
v -0.808876 -0.021529 1.564641
v 3.213526 1.783241 -0.459744
v 0.377888 -0.047451 -1.443717
v 2.009567 1.089818 -1.415653
v -0.554787 4.221950 1.082619
v 0.026126 2.646521 1.222695
v 0.645458 3.146341 -0.286427
v 0.424322 -0.051167 1.282471
v -0.300908 -0.055890 -1.966067
v 0.331028 2.516405 2.737544
v -1.452615 4.127163 2.122739
v -0.818185 3.371332 3.528466
v -2.306243 2.083433 -1.151051
v -3.348415 3.829365 1.417342
v -0.382159 2.279583 0.428895
v 0.880232 1.312987 1.919633
v -0.656242 -0.021502 -0.730316
v 0.296054 -0.031526 0.234203
vt 0.414551 0.256836
vt 0.342041 0.235352
vt 0.348633 0.132324
vt 0.375488 0.013672
vt 0.450195 0.132324
vt 0.348633 0.132324
vt 0.505859 0.013672
vt 0.414551 0.256836
vt 0.342041 0.235352
vt 0.562012 0.218750
vt 0.539062 0.102539
vt 0.414551 0.256836
vt 0.348633 0.132324
vt 0.342041 0.235352
vt 0.450195 0.132324
vt 0.375488 0.013672
vt 0.562012 0.218750
vt 0.505859 0.013672
vt 0.539062 0.102539
vt 0.562012 0.218750
vt 0.539062 0.102539
vt 0.450195 0.132324
vt 0.505859 0.013672
vt 0.375488 0.013672
vt 0.074280 0.142578
vt 0.174316 0.243164
vt 0.093018 0.228516
vt 0.307373 0.121582
vt 0.279541 0.229492
vt 0.187622 0.132324
vt 0.090210 0.084961
vt 0.252686 0.013672
vt 0.186279 0.013672
vn -0.9816 -0.0798 -0.1737
vn -0.9355 0.2440 -0.2555
vn -0.9641 0.0289 0.2640
vn 0.1452 0.3542 0.9238
vn 0.3750 0.6095 0.6985
vn 0.0499 0.6034 0.7959
vn 0.2854 0.3607 0.8879
vn 0.1262 0.8061 0.5782
vn -0.1721 0.7717 0.6122
vn 0.5597 0.7428 0.3674
vn 0.5991 0.5301 0.6001
vn -0.3393 0.9245 -0.1735
vn -0.5727 0.7993 -0.1822
vn -0.4069 0.9135 0.0029
vn -0.4402 0.8121 -0.3830
vn -0.7501 0.5889 -0.3010
vn -0.0988 0.8940 -0.4370
vn -0.6406 0.6433 -0.4193
vn -0.3190 0.7829 -0.5342
vn -0.7031 -0.3159 -0.6371
vn -0.8676 -0.1873 -0.4606
vn -0.9974 -0.0694 -0.0176
vn -0.9961 0.0834 0.0296
vn -0.9531 0.1412 0.2678
vn 0.7256 0.6611 -0.1909
vn 0.4722 0.8072 -0.3542
vn 0.6432 0.7568 0.1166
vn 0.4235 0.6018 -0.6771
vn 0.0698 0.8379 -0.5413
vn 0.6462 0.5314 -0.5477
vn 0.8059 0.4376 -0.3988
vn 0.6428 0.2822 -0.7121
vn 0.7438 0.2698 -0.6115
s 1
f 1/1/1 2/2/2 3/3/3
f 4/4/4 6/5/5 5/6/6
f 4/4/4 7/7/7 6/5/5
f 8/8/8 9/9/9 5/6/6
f 5/6/6 6/5/5 8/8/8
f 10/10/10 8/8/8 6/5/5
f 6/5/5 11/11/11 10/10/10
f 6/5/5 7/7/7 11/11/11
f 12/12/12 13/13/13 14/14/14
f 13/13/13 12/12/12 15/15/15
f 16/16/16 13/13/13 15/15/15
f 17/17/17 15/15/15 12/12/12
f 16/16/16 15/15/15 18/18/18
f 15/15/15 17/17/17 19/19/19
f 15/15/15 19/19/19 18/18/18
f 20/20/20 1/1/1 21/21/21
f 22/22/22 21/21/21 1/1/1
f 3/3/3 22/22/22 1/1/1
f 22/22/22 23/23/23 21/21/21
f 24/24/24 22/22/22 3/3/3
f 24/24/24 23/23/23 22/22/22
f 25/25/25 26/26/26 27/27/27
f 26/26/26 28/28/28 29/29/29
f 26/26/26 25/25/25 30/30/30
f 30/30/30 28/28/28 26/26/26
f 30/30/30 25/25/25 31/31/31
f 32/32/32 28/28/28 30/30/30
f 31/31/31 33/33/33 30/30/30
f 30/30/30 33/33/33 32/32/32
