g skin
v -0.241644 0.067497 -0.879021
v 0.008639 0.868623 -0.924312
v -0.887317 0.700078 -0.722610
v 0.831218 0.102223 -0.558688
v 0.820602 -0.040600 0.356437
v -0.864529 0.057219 -0.275837
v -0.887491 0.170330 -0.499406
v 0.950386 0.238188 -0.492794
v 0.983367 0.959118 -0.294714
v -0.762889 0.273041 0.769537
v -0.920842 0.122618 -0.077159
v 0.164407 1.138426 -0.401732
v 0.245422 0.887360 0.935540
v -0.843561 0.035335 0.293638
v 0.805525 0.980128 -0.528071
v -0.799303 0.913357 0.666327
v -0.035249 0.038069 0.927290
v 0.681341 1.029557 0.333175
v 0.146747 1.065567 0.445790
v 0.645475 0.003523 -0.625675
v -0.717270 0.067450 0.649380
v 0.258868 -0.033485 0.907499
v -0.443755 0.955137 -0.831496
v -0.461510 0.055616 -0.823625
v 0.985446 0.114221 -0.358537
v 0.989307 0.007628 -0.121484
v -0.702309 0.917514 -0.784618
v -0.809928 1.062301 -0.427218
v -0.710235 0.190506 0.875218
v -0.867112 0.491060 -0.752958
v -0.714699 1.008315 0.681238
v -0.284569 0.871566 0.924222
v 0.907018 0.824633 -0.520695
v 0.913677 -0.039613 0.088010
v 1.051491 0.165194 0.299022
v -0.842706 1.092611 -0.143122
v 0.742584 0.931204 0.468539
v 0.033526 0.255048 -0.953924
v -0.743105 0.059680 -0.587577
v 0.614826 1.056670 -0.647451
v 1.056395 0.653367 0.245101
v 0.562472 -0.031208 0.469683
v -0.743079 0.143932 -0.751782
v 0.852912 -0.049767 -0.283164
v -0.552014 1.095784 0.614331
v -0.591556 0.065776 0.900765
v 0.940760 0.993675 -0.027328
v -0.922075 0.910209 -0.070953
v -0.891315 0.034251 0.011297
v 0.654898 -0.011094 0.602878
v -0.808057 1.063860 0.209570
v -0.351620 -0.018428 0.728222
v 0.254506 1.057909 -0.804469
v 0.440316 -0.000022 -0.490233
v 0.207668 0.991454 0.915187
v 0.271240 0.038752 -0.824112
v -0.896933 0.911733 -0.539028
vt 0.565676 0.697326
vt 0.549010 0.587027
vt 0.494565 0.569068
vt 0.728416 0.954355
vt 0.850926 0.833869
vt 0.712724 0.859831
vt 0.287300 0.940017
vt 0.288980 0.843445
vt 0.159694 0.840475
vt 0.719061 0.972506
vt 0.631410 0.957920
vt 0.404560 0.857460
vt 0.467184 0.825357
vt 0.423712 0.822444
vt 0.358031 0.531447
vt 0.324532 0.562163
vt 0.346955 0.572980
vt 0.796262 0.987347
vt 0.330001 0.716067
vt 0.303756 0.864210
vt 0.322761 0.849270
vt 0.957257 0.931189
vt 0.962765 0.894729
vt 0.919429 0.841593
vt 0.055100 0.720236
vt 0.091055 0.623164
vt 0.110604 0.770076
vt 0.394604 0.919363
vt 0.360784 0.971559
vt 0.442414 0.963287
vt 0.027953 0.920351
vt 0.014431 0.846945
vt 0.003294 0.879657
vt 0.545620 0.962614
vt 0.539655 0.813466
vt 0.026236 0.611487
vt 0.013378 0.602328
vt 0.081927 0.529377
vt 0.161107 0.501213
vt 0.204161 0.494165
vt 0.241034 0.523335
vt 0.176705 0.966974
vt 0.847273 0.961901
vt 0.273086 0.963178
vt 0.237694 0.971683
vt 0.092296 0.793203
vt 0.044508 0.797121
vt 0.349523 0.770773
vt 0.406382 0.780437
vt 0.677983 0.826160
vt 0.587672 0.823934
vt 0.003294 0.674763
vt 0.319030 0.965601
vt 0.966893 0.830843
vt 0.939326 0.814824
vt 0.883607 0.821199
vt 0.281642 0.615327
vt 0.281822 0.727417
vt 0.217038 0.626659
vt 0.288410 0.629204
vt 0.290105 0.675212
vt 0.352993 0.835409
vt 0.265217 0.822990
vt 0.327108 0.816701
vt 0.164507 0.781082
vt 0.141614 0.927505
vt 0.068785 0.934562
vt 0.996706 0.787669
vt 0.210205 0.779617
vt 0.453543 0.511380
vt 0.396211 0.511037
vt 0.106444 0.542767
vt 0.924166 0.965047
vt 0.974184 0.980589
vt 0.569379 0.662970
vt 0.126900 0.802561
vt 0.449924 0.781082
vt 0.492664 0.770607
vt 0.203191 0.815601
vt 0.258753 0.556934
vt 0.695029 0.848780
vt 0.726517 0.823814
vt 0.036167 0.744896
vt 0.536721 0.745136
vt 0.789673 0.819499
vt 0.836452 0.819262
vt 0.381604 0.822702
vt 0.857291 0.996706
vt 0.308901 0.757472
vt 0.510355 0.535081
vt 0.907219 0.994745
vt 0.273113 0.768830
vn -0.1689 -0.8852 -0.4335
vn 0.1727 -0.7506 -0.6378
vn -0.0500 -0.9975 -0.0509
vn -0.8522 0.2330 0.4685
vn -0.9889 -0.1423 0.0433
vn -0.9462 -0.1568 0.2832
vn 0.6060 0.1377 -0.7834
vn 0.5662 -0.3203 -0.7595
vn 0.1496 -0.0515 -0.9874
vn -0.4123 0.7095 0.5715
vn -0.1910 0.2033 0.9603
vn 0.8527 -0.2933 0.4323
vn 0.4224 -0.7827 0.4570
vn 0.2254 -0.9613 0.1585
vn 0.0090 -0.9996 0.0264
vn -0.5563 0.8213 0.1266
vn -0.1246 -0.9797 0.1571
vn 0.8398 -0.0848 -0.5362
vn 0.9143 -0.2905 -0.2821
vn -0.9391 0.0796 -0.3343
vn -0.4660 -0.0660 -0.8823
vn -0.8930 -0.3751 -0.2487
vn -0.1204 0.9652 0.2320
vn 0.0496 0.9972 0.0565
vn 0.9229 0.2178 0.3176
vn 0.4457 0.8917 0.0792
vn 0.6350 0.5633 0.5286
vn -0.4708 0.4710 -0.7460
vn 0.3945 0.1139 0.9118
vn 0.2713 -0.6505 0.7094
vn 0.1449 0.7847 0.6027
vn 0.9046 0.3586 -0.2306
vn 0.5497 0.7310 -0.4043
vn 0.2266 0.5423 -0.8091
vn -0.9769 0.2082 0.0482
vn 0.4126 0.7774 -0.4747
vn -0.6060 -0.5212 -0.6010
vn -0.6576 -0.7065 0.2615
vn -0.6549 -0.7359 0.1719
vn -0.1107 0.0132 0.9938
vn -0.0569 -0.4237 0.9040
vn -0.4724 -0.8363 -0.2781
vn -0.5971 -0.7899 -0.1397
vn -0.1758 0.5814 -0.7944
vn 0.0154 0.9954 -0.0943
vn 0.7633 -0.6403 -0.0864
vn 0.2552 -0.8592 -0.4434
vn 0.3270 -0.9228 -0.2038
vn -0.5298 0.8481 -0.0048
vn 0.0542 0.2446 -0.9681
vn -0.3722 0.8745 -0.3110
vn 0.5102 -0.8556 0.0878
vn 0.2932 0.9330 0.2085
vn -0.8558 0.4429 -0.2674
vn -0.1209 -0.4369 -0.8914
vn -0.5018 -0.8648 -0.0203
vn -0.7254 -0.1552 0.6706
vn -0.3638 -0.8832 0.2961
usemtl skin
s 1
f 24/1/1 56/2/2 54/3/3
f 16/4/4 11/5/5 10/6/6
f 33/7/7 4/8/8 38/9/9
f 31/10/10 16/4/4 32/11/11
f 35/12/12 50/13/13 5/14/14
f 5/15/14 50/16/13 42/17/15
f 51/18/16 16/4/4 31/10/10
f 42/17/15 52/19/17 54/3/3
f 4/8/8 8/20/18 25/21/19
f 3/22/20 30/23/21 7/24/22
f 45/25/23 19/26/24 51/27/16
f 41/28/25 47/29/26 37/30/27
f 27/31/28 30/32/21 3/33/20
f 35/12/12 13/34/29 22/35/30
f 55/36/31 13/37/29 37/38/27
f 47/39/26 9/40/32 15/41/33
f 53/42/34 33/7/7 38/9/9
f 48/43/35 11/5/5 16/4/4
f 15/44/33 33/7/7 40/45/36
f 30/32/21 24/46/1 43/47/37
f 21/48/38 14/49/39 52/19/17
f 32/11/11 46/50/40 17/51/41
f 55/36/31 32/52/11 13/37/29
f 9/53/32 8/20/18 33/7/7
f 7/24/22 43/54/37 39/55/42
f 11/5/5 7/24/22 6/56/43
f 22/35/30 50/13/13 35/12/12
f 9/53/32 41/28/25 25/21/19
f 53/57/34 23/58/44 12/59/45
f 22/60/30 17/61/41 52/19/17
f 25/21/19 35/12/12 26/62/46
f 20/63/47 4/8/8 44/64/48
f 13/34/29 17/51/41 22/35/30
f 40/45/36 33/7/7 53/42/34
f 51/27/16 19/26/24 36/65/49
f 2/66/50 38/9/9 23/67/44
f 9/53/32 33/7/7 15/44/33
f 39/55/42 43/54/37 24/68/1
f 48/43/35 3/22/20 11/5/5
f 12/59/45 23/58/44 28/69/51
f 30/23/21 43/54/37 7/24/22
f 44/70/48 34/71/52 5/15/14
f 19/26/24 55/36/31 18/72/53
f 41/28/25 37/30/27 13/34/29
f 6/56/43 7/24/22 39/55/42
f 9/53/32 25/21/19 8/20/18
f 23/67/44 38/9/9 30/32/21
f 57/73/54 27/74/28 3/22/20
f 24/1/1 1/75/55 56/2/2
f 38/9/9 1/76/55 30/32/21
f 49/77/56 6/78/43 24/1/1
f 19/26/24 47/39/26 12/59/45
f 54/3/3 49/77/56 24/1/1
f 44/64/48 4/8/8 25/21/19
f 56/79/2 1/76/55 38/9/9
f 4/8/8 56/79/2 38/9/9
f 50/16/13 22/60/30 42/17/15
f 18/72/53 47/39/26 19/26/24
f 47/39/26 15/41/33 40/80/36
f 29/81/57 10/6/6 21/82/38
f 31/83/10 45/25/23 51/27/16
f 45/25/23 31/83/10 55/36/31
f 6/78/43 39/84/42 24/1/1
f 33/7/7 8/20/18 4/8/8
f 12/59/45 47/39/26 40/80/36
f 14/85/39 10/6/6 11/5/5
f 11/5/5 6/56/43 49/86/56
f 14/49/39 49/77/56 54/3/3
f 36/65/49 19/26/24 12/59/45
f 23/67/44 30/32/21 27/31/28
f 55/36/31 19/26/24 45/25/23
f 54/3/3 52/19/17 14/49/39
f 29/81/57 46/50/40 32/11/11
f 10/6/6 14/85/39 21/82/38
f 48/43/35 57/73/54 3/22/20
f 48/43/35 16/4/4 51/18/16
f 34/87/52 44/64/48 26/62/46
f 32/11/11 16/4/4 29/81/57
f 35/12/12 34/87/52 26/62/46
f 5/15/14 54/3/3 44/70/48
f 51/18/16 36/88/49 48/43/35
f 30/32/21 1/76/55 24/46/1
f 17/61/41 46/89/58 52/19/17
f 22/60/30 52/19/17 42/17/15
f 29/81/57 16/4/4 10/6/6
f 5/15/14 42/17/15 54/3/3
f 44/70/48 54/3/3 20/90/47
f 4/8/8 20/63/47 56/79/2
f 31/83/10 32/52/11 55/36/31
f 32/11/11 17/51/41 13/34/29
f 44/64/48 25/21/19 26/62/46
f 20/90/47 54/3/3 56/2/2
f 28/91/51 27/74/28 57/73/54
f 36/88/49 57/73/54 48/43/35
f 37/38/27 47/39/26 18/72/53
f 23/67/44 53/42/34 2/66/50
f 12/59/45 40/80/36 53/57/34
f 55/36/31 37/38/27 18/72/53
f 11/5/5 49/86/56 14/85/39
f 23/58/44 27/92/28 28/69/51
f 3/22/20 7/24/22 11/5/5
f 47/29/26 41/28/25 9/53/32
f 36/88/49 28/91/51 57/73/54
f 21/82/38 46/50/58 29/81/57
f 41/28/25 35/12/12 25/21/19
f 35/12/12 41/28/25 13/34/29
f 5/14/14 34/87/52 35/12/12
f 28/69/51 36/65/49 12/59/45
f 46/89/58 21/48/38 52/19/17
f 53/42/34 38/9/9 2/66/50
