# Blender v2.83 (sub 11) OBJ File: ''
# www.blender.org
o tris.007
v -0.055697 1.368484 0.723931
v -1.022733 1.243068 -0.177686
v -0.473037 2.699169 1.075529
v 0.563569 1.201958 -0.469954
v 0.493131 2.892515 -0.404928
v 1.655031 1.547952 -0.968613
v -1.670257 1.930377 -0.464764
v -0.526108 1.248741 0.158841
v -0.859522 2.924040 0.408355
v 0.038775 1.228079 -0.037746
v -0.108430 2.908304 0.053759
v -0.543488 -0.060658 -0.361569
v 1.144687 -0.077586 -0.278274
v -1.668703 2.709784 -0.110518
v 1.566609 2.673194 -0.879023
v -0.794951 -0.059846 -0.656965
v 0.064162 1.385934 -0.792636
v -0.700539 1.379988 -1.620034
v 0.240364 -0.059846 0.184378
v 0.756794 1.032481 0.044061
v 0.034892 2.823221 -1.057793
v -0.519430 2.621589 -1.724156
v 0.887763 1.526208 1.574394
v 0.297666 2.593664 1.679089
v 0.071808 -0.041312 -0.174794
v 0.230300 -0.066384 0.556951
v 1.088394 0.819798 1.232398
v -0.757826 2.559327 0.030252
v 0.304994 -0.060658 -0.050747
v 1.094645 2.405940 -0.220104
vt 0.187622 0.132324
vt 0.307373 0.121582
vt 0.174316 0.243164
vt 0.439697 0.382324
vt 0.438232 0.520264
vt 0.572754 0.408203
vt 0.169678 0.438477
vt 0.303955 0.520264
vt 0.313965 0.382324
vt 0.376709 0.382324
vt 0.371094 0.520264
vt 0.274170 0.273926
vt 0.495850 0.273926
vt 0.208008 0.502686
vt 0.563965 0.498535
vt 0.375488 0.013672
vt 0.348633 0.132324
vt 0.450195 0.132324
vt 0.505859 0.013672
vt 0.539062 0.102539
vt 0.414551 0.256836
vt 0.342041 0.235352
vt 0.074280 0.142578
vt 0.093018 0.228516
vt 0.252686 0.013672
vt 0.186279 0.013672
vt 0.090210 0.084961
vt 0.279541 0.229492
vt 0.385010 0.273926
vt 0.562012 0.218750
vn 0.6048 0.3723 -0.7040
vn 0.7068 0.3285 -0.6264
vn 0.7310 0.2650 -0.6288
vn -0.4849 -0.1179 -0.8666
vn -0.5259 0.0092 -0.8505
vn -0.3862 -0.0776 -0.9191
vn 0.5401 0.2833 -0.7925
vn 0.0797 0.1975 -0.9771
vn 0.1593 0.1779 -0.9711
vn -0.4844 -0.0390 -0.8740
vn -0.5018 0.0195 -0.8648
vn 0.4104 0.3321 -0.8493
vn -0.2832 -0.2666 -0.9213
vn 0.4288 0.3731 -0.8228
vn -0.3965 0.0419 -0.9171
vn 0.6063 -0.4234 -0.6732
vn 0.7192 -0.2725 -0.6391
vn 0.6588 -0.2882 -0.6949
vn 0.5951 -0.3989 -0.6976
vn 0.6459 -0.3457 -0.6807
vn 0.6866 -0.1386 -0.7137
vn 0.7822 -0.1645 -0.6009
vn 0.5658 0.4350 -0.7004
vn 0.5986 0.3990 -0.6946
vn 0.8344 0.3480 -0.4275
vn 0.8418 0.2249 -0.4907
vn 0.5150 0.3480 -0.7833
vn 0.9582 -0.1549 -0.2404
vn -0.1464 -0.0147 -0.9891
vn 0.6233 -0.2064 -0.7542
s 1
f 1/1/1 2/2/2 3/3/3
f 4/4/4 5/5/5 6/6/6
f 7/7/7 9/8/8 8/9/9
f 10/10/10 11/11/11 5/5/5
f 12/12/12 7/7/7 8/9/9
f 13/13/13 4/4/4 6/6/6
f 9/8/8 7/7/7 14/14/14
f 5/5/5 15/15/15 6/6/6
f 16/16/16 18/17/17 17/18/18
f 16/16/16 17/18/18 19/19/19
f 17/18/18 20/20/20 19/19/19
f 21/21/21 18/17/17 22/22/22
f 23/23/23 3/3/3 24/24/24
f 25/25/25 2/2/2 1/1/1
f 1/1/1 26/26/26 25/25/25
f 27/27/27 26/26/26 1/1/1
f 3/3/3 2/2/2 28/28/28
f 3/3/3 23/23/23 1/1/1
f 29/29/29 12/12/12 8/9/9
f 8/9/9 9/8/8 11/11/11
f 29/29/29 4/4/4 13/13/13
f 8/9/9 11/11/11 10/10/10
f 17/18/18 30/30/30 20/20/20
f 29/29/29 10/10/10 4/4/4
f 18/17/17 21/21/21 17/18/18
f 30/30/30 17/18/18 21/21/21
f 1/1/1 23/23/23 27/27/27
f 10/10/10 5/5/5 4/4/4
f 29/29/29 8/9/9 10/10/10
