g skin
v 0.075042 0.784593 -1.309462
v 0.121817 2.683814 -1.177408
v -1.482738 1.354981 -1.178689
v 1.247379 3.648587 0.354075
v -0.621447 4.000966 0.901440
v -1.213093 3.968482 -0.691887
v 1.527021 0.241636 -0.370613
v -0.973619 3.072194 -1.144896
v 0.102764 -0.031795 -1.185638
v 1.253337 0.316176 1.134611
v -1.500246 0.201489 -1.016677
v -1.216146 0.030652 -1.125042
v -0.814792 0.012821 0.712371
v 0.535518 0.104492 -1.086015
v 1.525543 -0.026545 -0.058701
v 0.798998 3.863703 0.942295
v -0.342886 1.286456 1.213823
v 1.159889 3.570271 -0.119249
v -1.434931 3.571727 -0.300608
v -0.314685 3.563714 1.174948
v 0.862335 3.464744 -0.532608
v 0.080243 -0.007360 1.230529
v 1.663060 1.473671 -0.144721
v 0.727299 0.129779 1.282270
v -1.517234 2.604954 -0.261654
v -1.039518 3.797224 -1.063634
v -1.519107 0.141082 -0.179646
v 1.157141 1.528249 1.327251
v 1.545893 2.985524 -0.079973
v -0.428602 0.169813 1.160641
v -1.424789 -0.030423 -0.376325
v -0.397032 3.810426 -0.824032
v 1.579626 0.105167 0.275912
v -1.375378 3.317642 -1.104204
v -1.160384 3.973881 0.255219
v 1.103803 3.708160 1.080264
v -0.507670 2.839646 1.142044
v -0.122958 3.514517 -1.117706
v 1.032317 3.582967 1.281178
v 0.071493 3.087825 -1.178838
v 0.215807 3.901161 1.159265
v 1.124048 -0.023487 0.970602
v -0.904233 0.118378 -1.265176
v -1.349562 3.918838 -0.507153
v -1.580777 0.128341 -0.392069
vt 0.504801 0.562743
vt 0.504778 0.596831
vt 0.488605 0.589817
vt 0.389631 0.513955
vt 0.333654 0.497137
vt 0.339200 0.468350
vt 0.456217 0.392616
vt 0.395301 0.390432
vt 0.453380 0.317387
vt 0.397811 0.633858
vt 0.348156 0.629834
vt 0.343433 0.603136
vt 0.483958 0.387516
vt 0.482666 0.364162
vt 0.447915 0.591573
vt 0.343488 0.593673
vt 0.342642 0.378353
vt 0.398595 0.453078
vt 0.982655 0.199424
vt 0.971459 0.236006
vt 0.967984 0.220857
vt 0.919739 0.229125
vt 0.903293 0.213960
vt 0.904942 0.157180
vt 0.867096 0.206605
vt 0.868903 0.156503
vt 0.878740 0.167323
vt 0.349360 0.445621
vt 0.405303 0.239881
vt 0.372929 0.305043
vt 0.347865 0.259880
vt 0.471022 0.317807
vt 0.491084 0.313262
vt 0.342039 0.519480
vt 0.490690 0.443543
vt 0.485294 0.452848
vt 0.755214 0.134611
vt 0.739691 0.165897
vt 0.741697 0.136471
vt 0.477549 0.272434
vt 0.483929 0.510821
vt 0.454485 0.519727
vt 0.486400 0.409634
vt 0.872855 0.141514
vt 0.981818 0.236523
vt 0.939428 0.236523
vt 0.503627 0.526737
vt 0.499075 0.489038
vt 0.851333 0.225746
vt 0.820136 0.225422
vt 0.917730 0.123680
vt 0.956859 0.133937
vt 0.979279 0.161977
vt 0.481470 0.625121
vt 0.509516 0.605820
vt 0.506847 0.624857
vt 0.337058 0.303800
vt 0.750305 0.164972
vt 0.826746 0.119338
vt 0.332441 0.445034
vt 0.778363 0.203996
vt 0.806274 0.119194
vt 0.763954 0.124768
vt 0.354171 0.231628
vt 0.510835 0.275013
vt 0.491428 0.256263
vt 0.336257 0.407694
vt 0.886637 0.167686
vt 0.743762 0.174562
vt 0.791337 0.225889
vt 0.899103 0.128664
vt 0.341162 0.323964
vt 0.926690 0.119194
vn -0.7801 0.5008 0.3751
vn -0.8363 0.5394 -0.0978
vn -0.9798 0.1767 0.0938
vn -0.1661 -0.0014 0.9861
vn -0.1058 -0.7438 0.6600
vn 0.1496 -0.3245 0.9340
vn 0.8813 0.2866 -0.3758
vn 0.9970 0.0437 -0.0638
vn 0.4356 0.0649 -0.8978
vn -0.6476 0.0149 -0.7618
vn -0.7046 -0.3051 -0.6406
vn -0.8664 -0.4980 0.0372
vn 0.5563 0.7287 -0.3994
vn 0.5454 0.4560 -0.7033
vn -0.9574 0.0349 0.2865
vn -0.8396 -0.2242 0.4947
vn 0.7882 -0.1197 -0.6037
vn 0.6011 0.0062 0.7991
vn 0.0678 0.8280 0.5566
vn 0.7770 0.5080 0.3717
vn 0.2460 0.9666 0.0718
vn 0.2383 0.8951 -0.3769
vn 0.3001 -0.9033 0.3065
vn 0.4638 -0.8700 -0.1672
vn 0.9320 -0.3206 0.1693
vn 0.7480 -0.2366 0.6201
vn 0.1937 0.0038 -0.9811
vn -0.1867 -0.2315 -0.9548
vn 0.1727 0.1326 -0.9760
vn 0.2760 0.5580 -0.7826
vn -0.6062 -0.1259 0.7853
vn 0.2193 0.2552 0.9417
vn -0.2882 -0.8983 -0.3318
vn -0.0432 0.0507 -0.9978
vn -0.2449 0.1482 0.9582
vn -0.6310 0.0265 0.7754
vn 0.5178 0.8492 -0.1036
vn -0.3945 0.6870 0.6102
vn -0.1375 0.9669 -0.2148
vn -0.7037 0.2398 -0.6688
vn -0.0913 0.5725 -0.8148
vn 0.1367 -0.6891 -0.7116
vn -0.3068 -0.9509 0.0412
vn 0.4722 -0.4163 -0.7770
vn -0.5193 -0.7408 0.4261
usemtl skin
s 1
f 35/1/1 44/2/2 19/3/3
f 17/4/4 22/5/5 24/6/6
f 29/7/7 23/8/8 2/9/9
f 3/10/10 11/11/11 45/12/12
f 18/13/13 29/7/7 21/14/14
f 25/15/15 45/12/12 27/16/16
f 23/8/8 7/17/17 2/9/9
f 28/18/18 17/4/4 24/6/6
f 41/19/19 36/20/20 16/21/21
f 18/22/13 21/23/14 32/24/22
f 42/25/23 15/26/24 33/27/25
f 23/8/8 28/18/18 10/28/26
f 3/29/10 1/30/27 43/31/28
f 40/32/29 38/33/30 21/14/14
f 17/4/4 30/34/31 22/5/5
f 28/18/18 36/35/20 39/36/32
f 12/37/33 45/38/12 11/39/11
f 3/29/10 8/40/34 1/30/27
f 20/41/35 37/42/36 17/4/4
f 18/13/13 4/43/37 29/7/7
f 33/27/25 15/26/24 7/44/17
f 39/45/32 36/20/20 41/19/19
f 4/46/37 18/22/13 32/24/22
f 25/15/15 30/34/31 37/42/36
f 5/47/38 20/41/35 41/48/19
f 24/49/6 22/50/5 42/25/23
f 28/18/18 24/6/6 10/28/26
f 2/9/9 1/30/27 8/40/34
f 6/51/39 35/52/1 5/53/38
f 34/54/40 6/55/39 26/56/41
f 1/30/27 9/57/42 43/31/28
f 22/50/5 31/58/43 42/25/23
f 15/26/24 14/59/44 7/44/17
f 42/60/23 10/28/26 24/6/6
f 19/3/3 34/54/40 25/15/15
f 22/50/5 13/61/45 31/58/43
f 15/26/24 9/62/42 14/59/44
f 13/61/45 45/38/12 31/58/43
f 43/63/28 12/37/33 11/39/11
f 5/47/38 35/1/1 37/42/36
f 41/48/19 20/41/35 39/36/32
f 3/29/10 43/31/28 11/64/11
f 16/21/21 4/46/37 6/51/39
f 26/65/41 40/32/29 34/66/40
f 25/15/15 27/16/16 30/34/31
f 25/15/15 34/54/40 3/10/10
f 20/41/35 17/4/4 39/36/32
f 10/28/26 42/60/23 33/67/25
f 42/25/23 31/58/43 12/37/33
f 39/36/32 17/4/4 28/18/18
f 32/24/22 21/23/14 38/68/30
f 4/43/37 36/35/20 29/7/7
f 27/69/16 13/61/45 30/70/31
f 36/20/20 4/46/37 16/21/21
f 32/24/22 38/68/30 26/71/41
f 19/3/3 25/15/15 35/1/1
f 34/66/40 40/32/29 8/40/34
f 26/65/41 38/33/30 40/32/29
f 7/17/17 14/72/44 1/30/27
f 23/8/8 33/67/25 7/17/17
f 30/70/31 13/61/45 22/50/5
f 15/26/24 12/37/33 9/62/42
f 3/10/10 45/12/12 25/15/15
f 31/58/43 45/38/12 12/37/33
f 34/66/40 8/40/34 3/29/10
f 35/1/1 25/15/15 37/42/36
f 6/51/39 32/24/22 26/71/41
f 8/40/34 40/32/29 2/9/9
f 13/61/45 27/69/16 45/38/12
f 7/17/17 1/30/27 2/9/9
f 6/55/39 34/54/40 44/2/2
f 35/52/1 6/51/39 44/73/2
f 42/25/23 12/37/33 15/26/24
f 21/14/14 29/7/7 2/9/9
f 12/37/33 43/63/28 9/62/42
f 33/67/25 23/8/8 10/28/26
f 37/42/36 30/34/31 17/4/4
f 4/46/37 32/24/22 6/51/39
f 23/8/8 36/35/20 28/18/18
f 1/30/27 14/72/44 9/57/42
f 5/47/38 37/42/36 20/41/35
f 21/14/14 2/9/9 40/32/29
f 23/8/8 29/7/7 36/35/20
f 5/53/38 41/19/19 6/51/39
f 16/21/21 6/51/39 41/19/19
f 44/2/2 34/54/40 19/3/3
