mtllib weed1.mtl
o model.obj
v -3.425058 1.970657 -0.958092
v -1.773974 2.590424 -0.801245
v -2.118132 5.354424 -2.761072
v -4.173108 4.444947 -3.339737
v -0.122890 2.579865 -1.061110
v 1.523626 2.478430 -0.703992
v 1.798877 5.311921 -2.662649
v -0.063155 4.847419 -2.589363
v 1.430765 6.536493 -5.190566
v -0.159474 6.160935 -5.037294
v -1.807120 6.531413 -5.226500
v -3.454766 5.393564 -5.306638
v -0.828607 -1.394505 0.261045
v 0.725238 -1.420498 0.275113
v 1.110363 5.952457 -8.026172
v -0.251497 5.984212 -7.630721
v -1.719865 6.064283 -7.906535
v -3.188234 5.013745 -7.580225
v 0.578501 4.257486 -10.032507
v -0.566567 4.239365 -9.829384
v -1.496427 4.282676 -10.002806
v -2.426287 3.220737 -9.699396
v 3.170141 1.746669 -0.763587
v 3.660910 4.359942 -3.142890
v 3.021004 5.403724 -5.234767
v 2.472224 4.790096 -7.819496
v 1.723569 3.170354 -9.758806
v -0.751615 0.962458 -11.592846
v -0.415300 1.667871 -3.625705
v 0.113463 2.222109 -2.030217
v 2.174816 4.662392 -3.349986
v 1.950237 3.858061 -5.512417
v 1.110641 2.212666 -0.652966
v 1.412334 2.121956 1.043217
v 3.719619 4.624801 0.251557
v 2.851785 4.214002 -1.398324
v 6.374309 5.707798 -1.391371
v 5.532343 5.375659 -2.753460
v 5.046845 5.703305 -4.344960
v 4.440102 4.697006 -5.879971
v -0.640124 -1.306284 -0.615890
v 0.000451 -1.329272 0.799877
v 9.391190 5.191284 -3.150410
v 8.376452 5.219368 -4.180057
v 8.062944 5.290182 -5.653906
v 7.080088 4.361098 -6.815906
v 11.396912 3.692271 -4.671635
v 10.687531 3.676244 -5.604379
v 10.487619 3.714548 -6.537066
v 9.757640 2.775381 -7.222795
v 2.182442 1.467565 2.521164
v 5.039845 3.782882 1.690668
v 7.095029 4.705990 0.027206
v 9.736574 4.163304 -1.808912
v 11.576232 2.730824 -3.491934
v 12.569725 0.778185 -6.685444
v -2.638408 2.562315 2.819406
v -1.637720 3.397480 1.311533
v -3.622625 6.766317 0.489375
v -5.131169 5.642319 2.018135
v -1.071060 3.383250 -0.424376
v 0.135904 3.246563 -1.818246
v -1.706776 6.713788 -2.928776
v -2.502817 6.139724 -1.243624
v -4.292734 8.227202 -3.871598
v -4.885957 7.763060 -2.386911
v -5.833026 8.220922 -1.023283
v -6.675909 6.814687 0.395084
v -0.136033 -1.574493 0.864539
v 0.600111 -1.606616 -0.503948
v -7.150416 7.505408 -5.011077
v -7.406082 7.544652 -3.607020
v -8.352497 7.643610 -2.445564
v -8.723744 6.345280 -0.981919
v -9.314305 5.410642 -5.547172
v -9.652856 5.388245 -4.431554
v -10.250998 5.441772 -3.695428
v -10.393659 4.129351 -2.719993
v 0.908840 2.260483 -3.440151
v -1.299472 5.537265 -4.818169
v -3.595324 6.827244 -5.301547
v -6.319580 6.068878 -6.112946
v -8.520277 4.067085 -6.423484
v -11.423437 1.338409 -5.152776
v 2.179983 2.051086 2.764503
v 0.957238 2.685037 1.662534
v 0.097353 5.536050 3.407808
v 1.408207 4.598978 5.086508
v -0.505127 2.674235 0.881165
v -1.609078 2.570480 -0.372171
v -2.983145 5.492258 0.986536
v -1.449217 5.013661 2.044485
v -4.152503 6.753986 3.165969
v -2.789951 6.367033 3.999218
v -1.579785 6.748752 5.132244
v -0.306444 5.576376 6.180744
v 0.814912 -1.417659 0.293761
v -0.421562 -1.444440 -0.647382
v -5.538294 6.152229 5.555290
v -4.218398 6.038795 6.064133
v -3.201998 6.267448 7.156949
v -1.836837 5.185034 7.783137
v -6.274379 4.405827 7.428546
v -5.239532 4.387155 7.956649
v -4.595167 4.431780 8.647726
v -3.674614 3.337619 8.969273
v -2.952649 1.821974 -1.304904
v -4.752789 4.511394 0.243965
v -5.451879 5.586844 2.248195
v -6.509428 4.954597 4.579816
v -7.033040 3.285708 6.530918
v -6.112736 1.010817 9.434057
v 3.426848 2.785074 -0.777314
v 1.929181 3.584561 -0.128147
v 3.269491 7.218182 1.512607
v 5.361594 6.025528 1.044641
v 0.642302 3.570939 0.898807
v -0.952745 3.440091 1.364219
v -0.201712 7.162444 3.330431
v 1.386653 6.553316 2.355629
v 1.419652 8.768299 5.480840
v 2.729539 8.275805 4.564753
v 4.265667 8.761636 3.936323
v 5.745710 7.269506 3.207375
v 0.589360 -1.632096 -0.644316
v -0.774795 -1.666182 0.099818
v 3.157572 8.002416 7.938069
v 4.143491 8.044058 6.910058
v 5.567597 8.149059 6.448802
v 6.682079 6.771426 5.432616
v 4.653726 5.779696 9.527993
v 5.549226 5.755932 8.782866
v 6.450418 5.812729 8.489627
v 7.106415 4.420144 7.756933
v -2.337003 2.496135 2.207418
v -1.580814 5.914055 4.680292
v 0.053678 7.282828 6.296410
v 1.862027 6.478139 8.411148
v 3.513034 4.354074 9.833671
v 6.617629 1.458726 10.317935
vt 0.000896 0.472360
vt 0.194233 0.361622
vt 0.378850 0.546267
vt 0.242953 0.661685
vt 0.387570 0.250885
vt 0.546222 0.129223
vt 0.633961 0.361468
vt 0.514746 0.430850
vt 0.723545 0.523607
vt 0.627819 0.574006
vt 0.525371 0.667544
vt 0.422923 0.761082
vt 0.217744 0.083365
vt 0.303388 0.025575
vt 0.809459 0.658940
vt 0.732700 0.711334
vt 0.654267 0.799301
vt 0.575835 0.887267
vt 0.907178 0.779102
vt 0.821670 0.821767
vt 0.770193 0.906446
vt 0.718715 0.991126
vt 0.704874 0.007561
vt 0.753175 0.292087
vt 0.819271 0.473208
vt 0.886218 0.606547
vt 0.992686 0.736438
vt 0.994416 0.992844
vt 0.000896 0.472360
vt 0.194233 0.361622
vt 0.378850 0.546267
vt 0.242953 0.661685
vt 0.387570 0.250885
vt 0.546222 0.129223
vt 0.633961 0.361468
vt 0.514746 0.430850
vt 0.723545 0.523607
vt 0.627819 0.574006
vt 0.525371 0.667544
vt 0.422923 0.761082
vt 0.217744 0.083365
vt 0.303388 0.025575
vt 0.809459 0.658940
vt 0.732700 0.711334
vt 0.654267 0.799301
vt 0.575835 0.887267
vt 0.907178 0.779102
vt 0.821670 0.821767
vt 0.770193 0.906446
vt 0.718715 0.991126
vt 0.704874 0.007561
vt 0.753175 0.292087
vt 0.819271 0.473208
vt 0.886218 0.606547
vt 0.992686 0.736438
vt 0.994416 0.992844
vt 0.000896 0.472360
vt 0.194233 0.361622
vt 0.378850 0.546267
vt 0.242953 0.661685
vt 0.387570 0.250885
vt 0.546222 0.129223
vt 0.633961 0.361468
vt 0.514746 0.430850
vt 0.723545 0.523607
vt 0.627819 0.574006
vt 0.525371 0.667544
vt 0.422923 0.761082
vt 0.217744 0.083365
vt 0.303388 0.025575
vt 0.809459 0.658940
vt 0.732700 0.711334
vt 0.654267 0.799301
vt 0.575835 0.887267
vt 0.907178 0.779102
vt 0.821670 0.821767
vt 0.770193 0.906446
vt 0.718715 0.991126
vt 0.704874 0.007561
vt 0.753175 0.292087
vt 0.819271 0.473208
vt 0.886218 0.606547
vt 0.992686 0.736438
vt 0.994416 0.992844
vt 0.000896 0.472360
vt 0.194233 0.361622
vt 0.378850 0.546267
vt 0.242953 0.661685
vt 0.387570 0.250885
vt 0.546222 0.129223
vt 0.633961 0.361468
vt 0.514746 0.430850
vt 0.723545 0.523607
vt 0.627819 0.574006
vt 0.525371 0.667544
vt 0.422923 0.761082
vt 0.217744 0.083365
vt 0.303388 0.025575
vt 0.809459 0.658940
vt 0.732700 0.711334
vt 0.654267 0.799301
vt 0.575835 0.887267
vt 0.907178 0.779102
vt 0.821670 0.821767
vt 0.770193 0.906446
vt 0.718715 0.991126
vt 0.704874 0.007561
vt 0.753175 0.292087
vt 0.819271 0.473208
vt 0.886218 0.606547
vt 0.992686 0.736438
vt 0.994416 0.992844
vt 0.000896 0.472360
vt 0.194233 0.361622
vt 0.378850 0.546267
vt 0.242953 0.661685
vt 0.387570 0.250885
vt 0.546222 0.129223
vt 0.633961 0.361468
vt 0.514746 0.430850
vt 0.723545 0.523607
vt 0.627819 0.574006
vt 0.525371 0.667544
vt 0.422923 0.761082
vt 0.217744 0.083365
vt 0.303388 0.025575
vt 0.809459 0.658940
vt 0.732700 0.711334
vt 0.654267 0.799301
vt 0.575835 0.887267
vt 0.907178 0.779102
vt 0.821670 0.821767
vt 0.770193 0.906446
vt 0.718715 0.991126
vt 0.704874 0.007561
vt 0.753175 0.292087
vt 0.819271 0.473208
vt 0.886218 0.606547
vt 0.992686 0.736438
vt 0.994416 0.992844
vn -0.8684 0.4809 0.1208
vn -0.7926 0.5207 0.3172
vn -0.5373 0.8337 0.1274
vn -0.6041 0.7859 -0.1322
vn -0.7786 0.5205 0.3506
vn -0.7486 0.5457 0.3766
vn -0.4033 0.8590 0.3153
vn -0.5016 0.8351 0.2259
vn 0.0187 0.9865 0.1628
vn -0.1266 0.9908 0.0485
vn -0.1717 0.9809 -0.0913
vn -0.2642 0.8753 -0.4051
vn -0.8484 0.3643 0.3841
vn -0.8559 0.3590 0.3723
vn 0.4307 0.9024 0.0144
vn 0.2751 0.9523 -0.1322
vn 0.2037 0.9279 -0.3121
vn 0.0410 0.7819 -0.6220
vn 0.7441 0.6563 -0.1251
vn 0.6060 0.7465 -0.2747
vn 0.5344 0.6814 -0.5001
vn 0.2980 0.5161 -0.8031
vn -0.6362 0.5260 0.5644
vn -0.2137 0.8178 0.5344
vn 0.2242 0.8681 0.4428
vn 0.5922 0.7348 0.3309
vn 0.8595 0.4711 0.1983
vn 0.7729 0.5017 -0.3884
vn 0.6837 0.3433 0.6439
vn 0.7992 0.3706 0.4733
vn 0.5489 0.7120 0.4380
vn 0.3351 0.6599 0.6725
vn 0.8185 0.3673 0.4418
vn 0.8269 0.3961 0.3993
vn 0.6424 0.7457 0.1764
vn 0.6203 0.7087 0.3362
vn 0.1632 0.9770 -0.1371
vn 0.1714 0.9797 0.1037
vn 0.0656 0.9641 0.2572
vn -0.1943 0.7906 0.5806
vn 0.8564 0.2381 0.4581
vn 0.8492 0.2343 0.4733
vn -0.3673 0.8226 -0.4341
vn -0.3864 0.9009 -0.1977
vn -0.4982 0.8671 -0.0018
vn -0.6402 0.6629 0.3881
vn -0.6579 0.5015 -0.5618
vn -0.7114 0.5907 -0.3807
vn -0.8310 0.5262 -0.1802
vn -0.8972 0.3844 0.2174
vn 0.9014 0.3870 0.1943
vn 0.6936 0.6998 -0.1705
vn 0.2734 0.7817 -0.5606
vn -0.1512 0.6035 -0.7829
vn -0.4327 0.3395 -0.8352
vn -0.8429 0.3454 -0.4126
vn 0.7206 0.3622 -0.5912
vn 0.5841 0.3899 -0.7119
vn 0.4945 0.7324 -0.4680
vn 0.6744 0.6921 -0.2571
vn 0.5592 0.3883 -0.7325
vn 0.5230 0.4159 -0.7440
vn 0.2782 0.7657 -0.5799
vn 0.4150 0.7307 -0.5421
vn -0.0963 0.9818 -0.1636
vn 0.1116 0.9847 -0.1338
vn 0.2296 0.9732 -0.0161
vn 0.4856 0.8393 0.2444
vn 0.5847 0.2567 -0.7696
vn 0.5953 0.2528 -0.7627
vn -0.4420 0.8456 0.2993
vn -0.2431 0.9112 0.3326
vn -0.1078 0.8833 0.4562
vn 0.2295 0.7161 0.6592
vn -0.6244 0.5311 0.5727
vn -0.4708 0.6248 0.6228
vn -0.3286 0.5609 0.7599
vn 0.0230 0.4227 0.9060
vn 0.3567 0.4074 -0.8407
vn -0.0123 0.7350 -0.6780
vn -0.4558 0.8324 -0.3151
vn -0.7536 0.6539 0.0667
vn -0.8652 0.3725 0.3356
vn -0.5359 0.3666 0.7605
vn -0.2281 0.3807 0.8961
vn -0.0424 0.4098 0.9112
vn -0.1147 0.7492 0.6523
vn -0.3836 0.7081 0.5928
vn -0.0096 0.4090 0.9125
vn 0.0265 0.4364 0.8994
vn 0.1223 0.7818 0.6114
vn -0.0078 0.7479 0.6638
vn 0.1712 0.9828 0.0695
vn -0.0102 0.9838 0.1789
vn -0.1708 0.9728 0.1567
vn -0.5241 0.8469 0.0903
vn -0.0083 0.2758 0.9612
vn -0.0201 0.2717 0.9622
vn 0.1946 0.8518 -0.4864
vn -0.0041 0.9192 -0.3937
vn -0.2056 0.8908 -0.4052
vn -0.5722 0.7288 -0.3760
vn 0.1798 0.5483 -0.8167
vn 0.0058 0.6387 -0.7695
vn -0.2118 0.5742 -0.7908
vn -0.5669 0.4386 -0.6974
vn 0.2214 0.4267 0.8769
vn 0.4112 0.7498 0.5184
vn 0.5423 0.8399 -0.0199
vn 0.5609 0.6690 -0.4877
vn 0.4994 0.3886 -0.7743
vn -0.0261 0.3868 -0.9218
vn -0.2304 0.3159 -0.9204
vn -0.4170 0.3427 -0.8418
vn -0.2337 0.6821 -0.6929
vn 0.0791 0.6277 -0.7744
vn -0.4488 0.3413 -0.8259
vn -0.4795 0.3675 -0.7969
vn -0.4584 0.7169 -0.5253
vn -0.3481 0.6818 -0.6434
vn -0.2213 0.9749 0.0241
vn -0.0928 0.9770 -0.1920
vn 0.0861 0.9601 -0.2660
vn 0.4966 0.7725 -0.3959
vn -0.4679 0.2222 -0.8554
vn -0.4559 0.2188 -0.8627
vn 0.0818 0.8048 0.5879
vn 0.2276 0.8888 0.3979
vn 0.4319 0.8533 0.2920
vn 0.7679 0.6398 0.0307
vn 0.2540 0.4743 0.8429
vn 0.3980 0.5615 0.7255
vn 0.6050 0.4984 0.6209
vn 0.8752 0.3628 0.3200
vn -0.6516 0.3582 -0.6687
vn -0.6967 0.6692 -0.2582
vn -0.5547 0.7633 0.3311
vn -0.3015 0.5790 0.7575
vn -0.0859 0.3188 0.9439
vn 0.4847 0.3215 0.8135
g leaves1
usemtl Material1
s 1
f 29/1/1 30/2/2 31/3/3 32/4/4
f 33/5/5 34/6/6 35/7/7 36/8/8
f 36/8/8 35/7/7 37/9/9 38/10/10
f 32/4/4 31/3/3 39/11/11 40/12/12
f 33/5/5 41/13/13 42/14/14
f 38/10/10 37/9/9 43/15/15 44/16/16
f 40/12/12 39/11/11 45/17/17 46/18/18
f 44/16/16 43/15/15 47/19/19 48/20/20
f 46/18/18 45/17/17 49/21/21 50/22/22
f 30/2/2 33/5/5 36/8/8 31/3/3
f 31/3/3 36/8/8 38/10/10 39/11/11
f 39/11/11 38/10/10 44/16/16 45/17/17
f 45/17/17 44/16/16 48/20/20 49/21/21
f 34/6/6 51/23/23 52/24/24 35/7/7
f 35/7/7 52/24/24 53/25/25 37/9/9
f 37/9/9 53/25/25 54/26/26 43/15/15
f 43/15/15 54/26/26 55/27/27 47/19/19
f 47/19/19 55/27/27 56/28/28
f 56/28/28 48/20/20 47/19/19
f 49/21/21 48/20/20 56/28/28
f 56/28/28 50/22/22 49/21/21
f 41/13/13 33/5/5 30/2/2
f 41/13/13 30/2/2 29/1/1
f 42/14/14 51/23/23 34/6/6
f 42/14/14 34/6/6 33/5/5
f 57/29/29 58/30/30 59/31/31 60/32/32
f 61/33/33 62/34/34 63/35/35 64/36/36
f 64/36/36 63/35/35 65/37/37 66/38/38
f 60/32/32 59/31/31 67/39/39 68/40/40
f 61/33/33 69/41/41 70/42/42
f 66/38/38 65/37/37 71/43/43 72/44/44
f 68/40/40 67/39/39 73/45/45 74/46/46
f 72/44/44 71/43/43 75/47/47 76/48/48
f 74/46/46 73/45/45 77/49/49 78/50/50
f 58/30/30 61/33/33 64/36/36 59/31/31
f 59/31/31 64/36/36 66/38/38 67/39/39
f 67/39/39 66/38/38 72/44/44 73/45/45
f 73/45/45 72/44/44 76/48/48 77/49/49
f 62/34/34 79/51/51 80/52/52 63/35/35
f 63/35/35 80/52/52 81/53/53 65/37/37
f 65/37/37 81/53/53 82/54/54 71/43/43
f 71/43/43 82/54/54 83/55/55 75/47/47
f 75/47/47 83/55/55 84/56/56
f 84/56/56 76/48/48 75/47/47
f 77/49/49 76/48/48 84/56/56
f 84/56/56 78/50/50 77/49/49
f 69/41/41 61/33/33 58/30/30
f 69/41/41 58/30/30 57/29/29
f 70/42/42 79/51/51 62/34/34
f 70/42/42 62/34/34 61/33/33
f 85/57/57 86/58/58 87/59/59 88/60/60
f 89/61/61 90/62/62 91/63/63 92/64/64
f 92/64/64 91/63/63 93/65/65 94/66/66
f 88/60/60 87/59/59 95/67/67 96/68/68
f 89/61/61 97/69/69 98/70/70
f 94/66/66 93/65/65 99/71/71 100/72/72
f 96/68/68 95/67/67 101/73/73 102/74/74
f 100/72/72 99/71/71 103/75/75 104/76/76
f 102/74/74 101/73/73 105/77/77 106/78/78
f 86/58/58 89/61/61 92/64/64 87/59/59
f 87/59/59 92/64/64 94/66/66 95/67/67
f 95/67/67 94/66/66 100/72/72 101/73/73
f 101/73/73 100/72/72 104/76/76 105/77/77
f 90/62/62 107/79/79 108/80/80 91/63/63
f 91/63/63 108/80/80 109/81/81 93/65/65
f 93/65/65 109/81/81 110/82/82 99/71/71
f 99/71/71 110/82/82 111/83/83 103/75/75
f 103/75/75 111/83/83 112/84/84
f 112/84/84 104/76/76 103/75/75
f 105/77/77 104/76/76 112/84/84
f 112/84/84 106/78/78 105/77/77
f 97/69/69 89/61/61 86/58/58
f 97/69/69 86/58/58 85/57/57
f 98/70/70 107/79/79 90/62/62
f 98/70/70 90/62/62 89/61/61
g leaves2
usemtl Material2
f 1/85/85 2/86/86 3/87/87 4/88/88
f 5/89/89 6/90/90 7/91/91 8/92/92
f 8/92/92 7/91/91 9/93/93 10/94/94
f 4/88/88 3/87/87 11/95/95 12/96/96
f 5/89/89 13/97/97 14/98/98
f 10/94/94 9/93/93 15/99/99 16/100/100
f 12/96/96 11/95/95 17/101/101 18/102/102
f 16/100/100 15/99/99 19/103/103 20/104/104
f 18/102/102 17/101/101 21/105/105 22/106/106
f 2/86/86 5/89/89 8/92/92 3/87/87
f 3/87/87 8/92/92 10/94/94 11/95/95
f 11/95/95 10/94/94 16/100/100 17/101/101
f 17/101/101 16/100/100 20/104/104 21/105/105
f 6/90/90 23/107/107 24/108/108 7/91/91
f 7/91/91 24/108/108 25/109/109 9/93/93
f 9/93/93 25/109/109 26/110/110 15/99/99
f 15/99/99 26/110/110 27/111/111 19/103/103
f 19/103/103 27/111/111 28/112/112
f 28/112/112 20/104/104 19/103/103
f 21/105/105 20/104/104 28/112/112
f 28/112/112 22/106/106 21/105/105
f 13/97/97 5/89/89 2/86/86
f 13/97/97 2/86/86 1/85/85
f 14/98/98 23/107/107 6/90/90
f 14/98/98 6/90/90 5/89/89
f 113/113/113 114/114/114 115/115/115 116/116/116
f 117/117/117 118/118/118 119/119/119 120/120/120
f 120/120/120 119/119/119 121/121/121 122/122/122
f 116/116/116 115/115/115 123/123/123 124/124/124
f 117/117/117 125/125/125 126/126/126
f 122/122/122 121/121/121 127/127/127 128/128/128
f 124/124/124 123/123/123 129/129/129 130/130/130
f 128/128/128 127/127/127 131/131/131 132/132/132
f 130/130/130 129/129/129 133/133/133 134/134/134
f 114/114/114 117/117/117 120/120/120 115/115/115
f 115/115/115 120/120/120 122/122/122 123/123/123
f 123/123/123 122/122/122 128/128/128 129/129/129
f 129/129/129 128/128/128 132/132/132 133/133/133
f 118/118/118 135/135/135 136/136/136 119/119/119
f 119/119/119 136/136/136 137/137/137 121/121/121
f 121/121/121 137/137/137 138/138/138 127/127/127
f 127/127/127 138/138/138 139/139/139 131/131/131
f 131/131/131 139/139/139 140/140/140
f 140/140/140 132/132/132 131/131/131
f 133/133/133 132/132/132 140/140/140
f 140/140/140 134/134/134 133/133/133
f 125/125/125 117/117/117 114/114/114
f 125/125/125 114/114/114 113/113/113
f 126/126/126 135/135/135 118/118/118
f 126/126/126 118/118/118 117/117/117
