o tris.obj
v 64.000000 -4.000000 64.000000
v -64.000000 -4.000000 -64.000000
v -64.000000 -4.000000 64.000000
v 64.000000 -4.000000 -64.000000
v 64.000000 0.000000 64.000000
v 64.000000 -0.000000 -64.000000
v -64.000000 0.000000 64.000000
v -64.000000 -0.000000 -64.000000
vn 0.000000 -1.000000 0.000000
vn 0.000000 -1.000000 0.000000
vn 0.000000 -1.000000 0.000000
vn 0.000000 -1.000000 0.000000
vn 0.000000 1.000000 -0.000000
vn 0.000000 1.000000 -0.000000
vn 0.000000 1.000000 -0.000000
vn 0.000000 1.000000 -0.000000
vt 0.000000 1.000000
vt 0.000000 0.000000
vt 1.000000 1.000000
vt 1.000000 0.000000
vt 1.000000 0.000000
vt 1.000000 1.000000
vt 0.000000 0.000000
vt 0.000000 1.000000
g C:\Users\Nieb\Games\Sauerbraten
f 3/1/3 2/2/2 1/3/1 
f 2/2/2 4/4/4 1/3/1 
f 5/5/5 6/6/6 7/7/7 
f 6/6/6 8/8/8 7/7/7 
