g skin
v -0.500638 0.069382 0.121151
v 0.067781 0.518225 -0.328559
v 0.531915 0.198383 0.222882
v -0.365301 -0.004229 -0.160204
v 0.238856 0.473394 0.329315
v -0.392535 0.212576 -0.269595
v -0.485221 0.202949 0.267457
v -0.251495 0.413035 0.303064
v 0.517671 -0.023544 0.053355
v -0.504972 0.191564 -0.081232
v 0.200290 0.440338 -0.336029
v 0.053050 0.013804 -0.352751
v 0.459390 0.369861 0.282204
v -0.476597 0.503677 -0.107515
v -0.092038 0.554026 0.089560
v 0.198116 -0.023636 -0.310897
v 0.415639 0.474366 0.104588
v -0.131591 0.514289 -0.391115
v 0.537967 0.363250 0.107100
v -0.508498 0.358999 -0.091718
v -0.239982 0.027566 -0.306822
v -0.464843 -0.002901 0.280257
v 0.429857 -0.011713 -0.097807
v 0.374513 0.206669 0.360857
v -0.316957 0.505920 -0.360136
v -0.271312 0.218598 -0.392143
v 0.585385 0.197620 0.065234
v 0.410823 -0.020608 0.301428
vt 0.281897 0.231236
vt 0.281795 0.364472
vt 0.380081 0.288204
vt 0.675800 0.050084
vt 0.663668 0.074644
vt 0.684148 0.119108
vt 0.642522 0.052845
vt 0.232560 0.350904
vt 0.166214 0.320412
vt 0.202278 0.292812
vt 0.661291 0.306095
vt 0.637760 0.303321
vt 0.655114 0.328467
vt 0.644460 0.235126
vt 0.650184 0.135772
vt 0.648839 0.104652
vt 0.653293 0.160519
vt 0.608334 0.161000
vt 0.684355 0.151353
vt 0.678723 0.323682
vt 0.604357 0.429201
vt 0.626131 0.479919
vt 0.661478 0.487577
vt 0.625261 0.108230
vt 0.683741 0.302973
vt 0.718489 0.274244
vt 0.716334 0.304448
vt 0.708910 0.349207
vt 0.349156 0.351103
vt 0.372521 0.332723
vt 0.700088 0.198179
vt 0.264332 0.265848
vt 0.275208 0.296399
vt 0.613887 0.192414
vt 0.625287 0.223987
vt 0.161109 0.368564
vt 0.711853 0.221387
vt 0.374431 0.265232
vt 0.670520 0.349890
vt 0.625433 0.349250
vt 0.603432 0.113637
vt 0.271265 0.325350
vt 0.161795 0.245100
vt 0.194832 0.215658
vt 0.319908 0.215658
vt 0.342863 0.229190
vn -0.1022 -0.9945 0.0224
vn -0.5114 -0.8593 -0.0010
vn 0.0041 -0.7394 -0.6733
vn -0.9630 -0.2674 -0.0347
vn -0.5725 -0.7404 -0.3522
vn -0.8767 0.1944 0.4399
vn -0.7006 0.7061 0.1031
vn -0.2725 0.4834 0.8319
vn -0.0414 0.9935 0.1062
vn 0.8705 0.4918 0.0177
vn 0.4481 0.8939 0.0121
vn 0.6610 0.4576 0.5948
vn 0.5599 0.3212 -0.7638
vn -0.7623 -0.2060 -0.6135
vn -0.9105 -0.2383 -0.3380
vn -0.3455 -0.1777 -0.9214
vn -0.6731 0.0564 -0.7374
vn -0.4232 -0.5997 -0.6792
vn 0.8480 -0.0048 0.5300
vn -0.1045 -0.0745 0.9917
vn -0.9684 0.0624 -0.2413
vn 0.9873 -0.0692 -0.1429
vn 0.7096 -0.3464 -0.6136
vn 0.6182 -0.7790 -0.1050
vn 0.6745 -0.2880 0.6798
vn 0.2422 0.9098 -0.3371
vn 0.0607 0.5368 -0.8415
vn 0.4844 -0.0496 -0.8734
vn -0.0119 -0.9992 -0.0381
vn 0.2605 0.0035 0.9655
vn 0.1736 0.7143 0.6780
vn -0.0798 0.9946 -0.0665
usemtl skin
s 1
f 28/1/1 22/2/2 12/3/3
f 22/4/2 1/5/4 4/6/5
f 1/5/4 22/4/2 7/7/6
f 14/8/7 8/9/8 15/10/9
f 19/11/10 17/12/11 13/13/12
f 19/11/10 11/14/13 17/12/11
f 6/15/14 4/6/5 10/16/15
f 26/17/16 6/15/14 25/18/17
f 26/17/16 21/19/18 6/15/14
f 13/13/12 3/20/19 19/11/10
f 6/15/14 21/19/18 4/6/5
f 8/21/8 7/22/6 22/23/20
f 6/15/14 10/16/15 20/24/21
f 27/25/22 23/26/23 11/14/13
f 9/27/24 27/25/22 28/28/25
f 12/3/3 4/29/5 21/30/18
f 26/17/16 12/31/3 21/19/18
f 20/24/21 10/16/15 1/5/4
f 15/10/9 2/32/26 18/33/27
f 18/34/27 2/35/26 11/14/13
f 8/9/8 14/8/7 7/36/6
f 12/31/3 11/14/13 16/37/28
f 28/1/1 12/3/3 16/38/29
f 24/39/30 22/23/20 28/28/25
f 3/20/19 24/39/30 28/28/25
f 2/35/26 17/12/11 11/14/13
f 11/14/13 12/31/3 18/34/27
f 17/12/11 5/40/31 13/13/12
f 19/11/10 3/20/19 27/25/22
f 20/24/21 14/41/7 25/18/17
f 14/8/7 15/10/9 25/42/32
f 5/43/31 17/44/11 15/10/9
f 8/9/8 5/43/31 15/10/9
f 9/45/24 16/38/29 23/46/23
f 14/41/7 20/24/21 7/7/6
f 25/18/17 6/15/14 20/24/21
f 9/27/24 23/26/23 27/25/22
f 17/44/11 2/32/26 15/10/9
f 24/39/30 13/13/12 5/40/31
f 18/34/27 12/31/3 26/17/16
f 22/2/2 4/29/5 12/3/3
f 7/7/6 20/24/21 1/5/4
f 24/39/30 8/21/8 22/23/20
f 28/1/1 16/38/29 9/45/24
f 27/25/22 3/20/19 28/28/25
f 3/20/19 13/13/12 24/39/30
f 25/18/17 18/34/27 26/17/16
f 15/10/9 18/33/27 25/42/32
f 23/26/23 16/37/28 11/14/13
f 4/6/5 1/5/4 10/16/15
f 5/40/31 8/21/8 24/39/30
f 27/25/22 11/14/13 19/11/10
