
o tris
v -4.411443 6.250002 -10.606606
v 4.411443 6.250002 -10.606606
v 14.142090 0.000002 -14.142090
v 14.142138 0.000002 -14.142150
v -14.142150 0.000002 -14.142150
v -14.142090 0.000002 -14.142090
v 10.606607 6.250001 -4.411442
v 10.606607 6.249999 4.411444
v 14.142090 -0.000002 14.142090
v 14.142150 -0.000002 14.142150
v -10.606607 6.249999 4.411444
v -10.606607 6.250001 -4.411442
v -14.142138 -0.000002 14.142150
v -14.142090 -0.000002 14.142090
v 2.204252 8.750001 -5.304772
v -2.209281 8.750001 -5.306862
v -5.306864 8.750000 -2.209280
v -5.304773 8.750000 2.204253
v -2.204252 8.749999 5.304775
v 2.209281 8.749999 5.306865
v 5.306864 8.750000 2.209283
v 5.304773 8.750000 -2.204250
v 4.411443 6.249998 10.606608
v -4.411443 6.249998 10.606608
v 100.000069 -0.000016 100.000069
v -100.000069 -0.000016 100.000069
v 100.000069 0.000016 -100.000069
v -100.000069 0.000016 -100.000069
vt 0.344032 0.875000
vt 0.655968 0.875000
vt 0.999998 0.999998
vt 1.000000 1.000000
vt 0.000000 1.000000
vt 0.000002 0.999998
vt 0.875000 0.655968
vt 0.875000 0.344032
vt 0.999998 0.000002
vt 1.000000 0.000000
vt 0.125000 0.344032
vt 0.125000 0.655968
vt 0.000000 0.000000
vt 0.000002 0.000002
vt 0.577932 0.687552
vt 0.421890 0.687626
vt 0.312374 0.578110
vt 0.312448 0.422068
vt 0.422068 0.312448
vt 0.578110 0.312374
vt 0.687626 0.421890
vt 0.687552 0.577932
vt 0.655968 0.125000
vt 0.344032 0.125000
vt 0.000000 0.000000
vt 1.000000 0.000000
vt 1.000000 1.000000
vt 0.000000 1.000000
vn 0.0000 0.4924 -0.8704
vn 0.8704 0.4924 0.0000
vn -0.8704 0.4924 0.0000
vn -0.0000 1.0000 0.0000
vn 0.0000 0.4924 0.8704
vn 0.3921 0.8322 0.3921
vn -0.3921 0.8322 0.3921
vn 0.3921 0.8322 -0.3921
vn -0.3921 0.8322 -0.3921
vn -0.4266 0.9045 0.0001
vn 0.4266 0.9045 -0.0001
vn 0.3014 0.9046 0.3014
vn -0.3014 0.9046 -0.3014
vn 0.3012 0.9047 -0.3012
vn -0.3012 0.9047 0.3012
vn -0.0001 0.9045 0.4266
vn 0.0001 0.9045 -0.4266
g skin
usemtl skin
s 1
f 1/1/1 2/2/1 3/3/1 4/4/1 5/5/1 6/6/1
f 7/7/2 8/8/2 9/9/2 10/10/2 4/4/2 3/3/2
f 11/11/3 12/12/3 6/6/3 5/5/3 13/13/3 14/14/3
f 15/15/4 16/16/4 17/17/4 18/18/4 19/19/4 20/20/4 21/21/4 22/22/4
f 23/23/5 24/24/5 14/14/5 13/13/5 10/10/5 9/9/5
f 9/9/6 8/8/6 23/23/6
f 14/14/7 24/24/7 11/11/7
f 7/7/8 3/3/8 2/2/8
f 6/6/9 12/12/9 1/1/9
f 11/11/10 18/18/10 17/17/10 12/12/10
f 7/7/11 22/22/11 21/21/11 8/8/11
f 8/8/12 21/21/12 20/20/12 23/23/12
f 12/12/13 17/17/13 16/16/13 1/1/13
f 2/2/14 15/15/14 22/22/14 7/7/14
f 24/24/15 19/19/15 18/18/15 11/11/15
f 23/23/16 20/20/16 19/19/16 24/24/16
f 1/1/17 16/16/17 15/15/17 2/2/17
g none
usemtl none
s off
f 26/25/4 25/26/4 27/27/4 28/28/4
