# Blender v2.83 (sub 11) OBJ File: ''
# www.blender.org
mtllib water3.mtl
o 2_Plane.002
v -5.970196 -5.796834 65.941483
v -5.970196 -5.796834 -33.686928
v -88.647186 -5.796834 66.373375
v -88.647186 -5.796834 -33.255035
vt -0.114969 0.984706
vt -0.109878 0.009979
vt 1.064699 0.009979
vt 1.059608 0.984706
vn 0.0000 1.0000 0.0000
usemtl None
s 1
f 2/1/1 4/2/1 3/3/1 1/4/1
o 3_Plane.003
v -5.970196 -5.643426 65.941483
v -5.970196 -5.643426 -33.686928
v -88.647186 -5.643426 66.373375
v -88.647186 -5.643426 -33.255035
vt -0.012498 -0.092492
vt 0.962228 -0.087400
vt 0.962228 1.087177
vt -0.012498 1.082085
vn 0.0000 1.0000 0.0000
usemtl None
s 1
f 6/5/2 8/6/2 7/7/2 5/8/2
o 4_Plane.004
v -5.970196 -5.478360 65.941483
v -5.970196 -5.478360 -33.686928
v -88.647186 -5.478360 66.373375
v -88.647186 -5.478360 -33.255035
vt 1.064699 0.009979
vt 1.059607 0.984706
vt -0.114969 0.984706
vt -0.109878 0.009979
vn 0.0000 1.0000 0.0000
usemtl None
s 1
f 10/9/3 12/10/3 11/11/3 9/12/3
o 1_Plane.005
v -5.970196 -5.300561 65.941483
v -5.970196 -5.300561 -33.686928
v -88.647186 -5.300561 66.373375
v -88.647186 -5.300561 -33.255035
vt 0.962228 1.087177
vt -0.012498 1.082085
vt -0.012498 -0.092492
vt 0.962228 -0.087400
vn 0.0000 1.0000 0.0000
usemtl None
s 1
f 14/13/4 16/14/4 15/15/4 13/16/4
