# Blender v2.83 (sub 11) OBJ File: ''
# www.blender.org
o tris.004
v 2.174162 2.644413 -0.217773
v 0.603465 5.126444 -0.329154
v -0.205934 2.412071 -0.161642
v 1.515339 -0.073758 -0.118138
v -1.047203 -0.009119 1.037017
v 2.621397 4.737244 -0.006281
v -3.847388 2.121703 0.372666
v -3.496684 3.534616 0.616713
v -2.220468 3.773602 0.115947
v -0.877255 -0.005041 0.338449
v -1.936993 1.951358 0.505670
v -0.056257 1.771392 -0.225556
v -0.463831 3.552388 0.138144
v 2.674430 2.098369 -0.992429
v 2.856243 3.843926 -1.734809
v 1.176078 2.314870 -0.875087
v 1.795149 -0.072868 -0.750296
v 1.297105 0.017349 -0.363775
v 1.009465 1.636434 0.319120
v -0.418627 0.017349 0.237790
v 0.033087 2.121703 0.227850
v 0.103304 3.534616 0.649302
v 1.352950 3.773602 1.213110
v 2.563751 3.552387 2.485990
v 3.108698 1.771392 2.523749
v -3.022969 1.077429 -0.824901
v -3.246440 2.191079 -1.767619
v -2.314253 2.102082 -2.797045
v -0.659160 2.183461 -3.420939
v 0.365240 0.834564 -2.645427
v 0.282722 1.077430 -3.505727
v 1.243624 2.191081 -3.629523
v 2.170068 2.102082 -2.594927
v 2.617702 2.183461 -0.883728
v 1.739447 0.834564 0.054080
v 1.222014 5.438650 -0.553393
v 1.112636 4.504761 1.377328
v 1.877109 6.206181 0.071629
v 0.573340 2.604246 0.836064
v 3.374430 6.402295 -1.192518
v 0.243632 1.169343 0.385019
v 1.271946 1.951357 1.688168
v 1.254932 -0.005041 1.675468
v -1.617257 4.448394 2.037216
v -1.501548 2.127499 1.643712
v 0.485721 0.061854 -0.764933
v -1.229942 1.293849 -1.484092
v 1.068326 -0.012141 -0.115492
v -0.438833 0.068535 -0.179984
v -2.407102 0.479288 -0.336070
v -0.768111 0.002241 -0.554975
v -0.642991 2.413800 -0.139881
v -1.976619 2.413801 -1.403411
v -0.489056 0.002241 0.370802
v -1.104181 2.090023 1.270145
v -0.898563 3.923859 1.745456
v 2.131673 -0.005041 2.329942
v -0.994339 2.729646 -2.619081
v -2.414816 2.116433 -3.432881
v -3.304044 1.628200 -2.530724
v -1.267973 1.636434 -0.921059
v -1.989924 0.017349 -0.754124
v 0.637802 2.729646 -2.220814
v -0.497286 0.017348 0.283973
v 2.515238 1.153710 -1.821518
v 2.129158 2.046978 -2.991070
v 0.394700 1.636434 -0.521375
v 1.525384 0.017349 -0.353456
v 2.225318 2.729645 1.535615
v 3.716995 2.116432 0.861136
v 3.506773 1.628200 -0.388032
v 0.946408 2.729645 2.625062
v -0.477033 1.153707 3.912702
v 0.696995 2.046975 4.284950
v -0.288479 1.636433 1.432480
v -1.086942 0.017348 2.250465
v -3.587860 1.169343 0.331714
v -1.957964 -0.005041 0.508980
v -1.624007 5.395818 -0.233598
v -3.088753 4.113758 -1.140590
v -2.818649 6.823658 -0.244505
v -2.145561 6.267739 1.988500
v -1.643283 1.629740 0.478893
v -0.441225 2.765602 1.547864
v -0.755019 4.065641 0.778563
v -1.422505 3.937284 -0.857856
v -1.536082 -0.004046 0.741709
v -1.642352 1.617121 -1.396837
v -1.776267 -0.004046 0.152867
v 1.741191 1.629740 1.951577
v 2.185723 2.765602 0.405604
v 1.627570 4.065641 1.021039
v 1.931872 -0.004046 1.741327
v 0.440297 3.937283 2.330157
v 1.504649 -0.004047 2.212394
v 0.049251 1.617120 2.761333
v -0.468908 2.244837 0.474981
v 1.292541 3.790688 0.981026
v 0.672084 5.559975 0.298942
v -0.256942 0.021336 0.708001
v -0.647718 5.385286 -1.151952
v -0.731854 0.021336 0.185917
v -1.082414 2.227662 -1.629827
v 0.751055 1.293849 -1.653662
v -0.143346 0.061854 -0.022487
v -0.267754 0.479289 -2.944279
v -0.628542 0.068535 -1.003074
vt 0.348633 0.132324
vt 0.450195 0.132324
vt 0.414551 0.256836
vt 0.375488 0.013672
vt 0.505859 0.013672
vt 0.342041 0.235352
vt 0.074280 0.142578
vt 0.093018 0.228516
vt 0.174316 0.243164
vt 0.252686 0.013672
vt 0.187622 0.132324
vt 0.307373 0.121582
vt 0.279541 0.229492
vt 0.568359 0.693848
vt 0.659180 0.693848
vt 0.564453 0.785522
vt 0.626953 0.547363
vt 0.274170 0.273926
vt 0.383057 0.273926
vt 0.313965 0.382324
vt 0.074280 0.142578
vt 0.093018 0.228516
vt 0.174316 0.243164
vt 0.279541 0.229492
vt 0.307373 0.121582
vt 0.074280 0.142578
vt 0.093018 0.228516
vt 0.174316 0.243164
vt 0.279541 0.229492
vt 0.307373 0.121582
vt 0.074280 0.142578
vt 0.093018 0.228516
vt 0.174316 0.243164
vt 0.279541 0.229492
vt 0.307373 0.121582
vt 0.682617 0.875122
vt 0.764648 0.824097
vt 0.702148 0.986679
vt 0.750000 0.693848
vt 0.556641 0.982361
vt 0.090210 0.084961
vt 0.187622 0.132324
vt 0.186279 0.013672
vt 0.562012 0.218750
vt 0.539062 0.102539
vt 0.252686 0.013672
vt 0.187622 0.132324
vt 0.685547 0.547363
vt 0.186279 0.013672
vt 0.090210 0.084961
vt 0.685547 0.547363
vt 0.750000 0.693848
vt 0.659180 0.693848
vt 0.626953 0.547363
vt 0.568359 0.693848
vt 0.564453 0.785522
vt 0.252686 0.013672
vt 0.303955 0.520264
vt 0.208008 0.502686
vt 0.169678 0.438477
vt 0.313965 0.382324
vt 0.274170 0.273926
vt 0.438232 0.520264
vt 0.383057 0.273926
vt 0.572754 0.408203
vt 0.563965 0.498535
vt 0.439697 0.382324
vt 0.495850 0.273926
vt 0.303955 0.520264
vt 0.208008 0.502686
vt 0.169678 0.438477
vt 0.438232 0.520264
vt 0.572754 0.408203
vt 0.563965 0.498535
vt 0.439697 0.382324
vt 0.495850 0.273926
vt 0.090210 0.084961
vt 0.186279 0.013672
vt 0.682617 0.875122
vt 0.764648 0.824097
vt 0.702148 0.986679
vt 0.556641 0.982361
vt 0.294922 0.642334
vt 0.382568 0.711426
vt 0.332031 0.790283
vt 0.224854 0.782471
vt 0.312256 0.542969
vt 0.189453 0.641602
vt 0.273438 0.542969
vt 0.294922 0.642334
vt 0.382568 0.711426
vt 0.332031 0.790283
vt 0.312256 0.542969
vt 0.224854 0.782471
vt 0.273438 0.542969
vt 0.189453 0.641602
vt 0.294922 0.642334
vt 0.382568 0.711426
vt 0.332031 0.790283
vt 0.312256 0.542969
vt 0.224854 0.782471
vt 0.273438 0.542969
vt 0.189453 0.641602
vt 0.187622 0.132324
vt 0.252686 0.013672
vt 0.090210 0.084961
vt 0.186279 0.013672
vn 0.0283 -0.0166 -0.9995
vn -0.4823 -0.0268 -0.8756
vn -0.2856 0.0835 -0.9547
vn -0.2336 -0.1785 -0.9558
vn -0.6057 -0.1740 -0.7765
vn 0.1695 0.0632 -0.9835
vn -0.0380 0.0177 -0.9991
vn -0.3939 0.2505 -0.8843
vn -0.1638 -0.0279 -0.9861
vn -0.2606 -0.0588 -0.9637
vn -0.1436 -0.1307 -0.9810
vn -0.2789 -0.0787 -0.9571
vn 0.0386 0.2084 -0.9773
vn -0.1104 -0.2416 -0.9641
vn -0.6623 -0.0833 -0.7446
vn -0.4037 0.0457 -0.9137
vn -0.4947 -0.1728 -0.8517
vn -0.2861 0.3288 -0.9000
vn -0.6472 0.4009 -0.6483
vn -0.3430 0.6255 -0.7008
vn 0.6886 0.0177 -0.7249
vn 0.3579 0.2505 -0.8995
vn 0.5914 -0.0279 -0.8059
vn 0.7265 0.2084 -0.6548
vn 0.4903 -0.0787 -0.8680
vn -0.2440 -0.7636 -0.5979
vn -0.6328 -0.5703 -0.5237
vn -0.3341 -0.7966 -0.5038
vn -0.2504 -0.6184 -0.7449
vn -0.4094 -0.8193 -0.4014
vn 0.6201 -0.7636 -0.1802
vn 0.5869 -0.5703 -0.5747
vn 0.5359 -0.7966 -0.2797
vn 0.7670 -0.6184 -0.1712
vn 0.4419 -0.8193 -0.3652
vn -0.8433 0.3457 -0.4115
vn -0.9409 0.3227 0.1028
vn -0.8215 0.5302 0.2099
vn -0.9686 0.0614 -0.2408
vn -0.3816 0.2650 -0.8855
vn 0.7743 0.0347 -0.6318
vn 0.6019 -0.1307 -0.7878
vn 0.6752 -0.0011 -0.7377
vn -0.7782 0.1252 -0.6154
vn -0.8142 0.0278 -0.5799
vn -0.4027 -0.8098 -0.4267
vn -0.2726 -0.8547 -0.4418
vn -0.7741 -0.1638 -0.6115
vn -0.2525 -0.7769 -0.5768
vn -0.1380 -0.7355 -0.6633
vn 0.8939 0.0306 -0.4472
vn 0.5960 0.1950 -0.7790
vn 0.9488 0.1253 -0.2899
vn 0.9947 0.0438 -0.0928
vn 0.9522 -0.0359 0.3032
vn 0.9652 0.2611 0.0157
vn 0.5078 -0.0588 -0.8595
vn -0.2706 0.8586 0.4354
vn -0.4274 0.9016 0.0667
vn -0.4891 0.7446 0.4543
vn -0.3668 0.6261 0.6881
vn -0.5618 0.3288 0.7591
vn 0.2157 0.8225 0.5263
vn -0.1463 0.4009 0.9044
vn 0.5300 0.6415 0.5546
vn 0.5421 0.7445 0.3897
vn 0.1731 0.6359 0.7521
vn 0.4365 0.3890 0.8112
vn -0.1943 0.8586 -0.4743
vn 0.1964 0.9016 -0.3854
vn -0.0817 0.7446 -0.6625
vn -0.5529 0.8225 -0.1335
vn -0.7600 0.6415 0.1047
vn -0.6334 0.7445 0.2110
vn -0.7110 0.6359 -0.3003
vn -0.9132 0.3890 -0.1214
vn 0.0885 0.0347 -0.9955
vn -0.0565 -0.0011 -0.9984
vn 0.6983 0.3719 -0.6116
vn 0.2927 0.3064 -0.9058
vn 0.3275 0.2671 -0.9063
vn 0.8836 0.4676 0.0239
vn -0.9143 0.1175 0.3876
vn -0.7382 0.1659 0.6539
vn -0.8479 0.2518 0.4665
vn -0.9527 0.2153 0.2144
vn -0.8726 0.0212 0.4880
vn -0.9966 0.0827 -0.0009
vn -0.9737 0.0343 0.2254
vn 0.7447 0.1175 0.6570
vn 0.9087 0.1659 0.3832
vn 0.7871 0.2518 0.5630
vn 0.8172 0.0212 0.5760
vn 0.6050 0.2153 0.7665
vn 0.6240 0.0343 0.7807
vn 0.4298 0.0827 0.8991
vn -0.7191 0.1140 0.6855
vn -0.4051 0.1673 0.8989
vn -0.6308 0.2560 0.7325
vn -0.6469 0.0182 0.7623
vn -0.8241 0.2229 0.5208
vn -0.8430 0.0299 0.5370
vn -0.9573 0.0783 0.2782
vn 0.4679 -0.8547 -0.2250
vn 0.4664 -0.8098 -0.3559
vn 0.6741 -0.7355 -0.0679
vn 0.6000 -0.7769 -0.1909
s 1
f 1/1/1 3/2/2 2/3/3
f 4/4/4 3/2/2 1/1/1
f 4/4/4 5/5/5 3/2/2
f 2/3/3 6/6/6 1/1/1
f 7/7/7 8/8/8 9/9/9
f 10/10/10 11/11/11 12/12/12
f 9/9/9 13/13/13 12/12/12
f 14/14/14 16/15/15 15/16/16
f 16/15/15 14/14/14 17/17/17
f 18/18/18 20/19/19 19/20/20
f 21/21/21 22/22/22 23/23/23
f 23/23/23 24/24/24 25/25/25
f 26/26/26 27/27/27 28/28/28
f 28/28/28 29/29/29 30/30/30
f 31/31/31 32/32/32 33/33/33
f 33/33/33 34/34/34 35/35/35
f 36/36/36 37/37/37 38/38/38
f 36/36/36 39/39/39 37/37/37
f 15/16/16 36/36/36 40/40/40
f 15/16/16 16/15/15 36/36/36
f 41/41/41 42/42/42 43/43/43
f 42/42/42 41/41/41 21/21/21
f 44/44/44 2/3/3 3/2/2
f 3/2/2 45/45/45 44/44/44
f 3/2/2 5/5/5 45/45/45
f 46/46/46 47/47/47 30/30/30
f 47/47/47 28/28/28 30/30/30
f 28/28/28 47/47/47 26/26/26
f 16/15/15 39/39/39 36/36/36
f 48/48/48 39/39/39 16/15/15
f 17/17/17 48/48/48 16/15/15
f 47/47/47 46/46/46 49/49/49
f 50/50/50 47/47/47 49/49/49
f 47/47/47 50/50/50 26/26/26
f 51/51/51 53/52/52 52/53/53
f 54/54/54 51/51/51 52/53/53
f 52/53/53 55/55/55 54/54/54
f 55/55/55 52/53/53 56/56/56
f 42/42/42 57/57/57 43/43/43
f 57/57/57 42/42/42 25/25/25
f 42/42/42 23/23/23 25/25/25
f 23/23/23 42/42/42 21/21/21
f 58/58/58 59/59/59 60/60/60
f 60/60/60 61/61/61 58/58/58
f 62/62/62 61/61/61 60/60/60
f 61/61/61 63/63/63 58/58/58
f 62/62/62 64/64/64 61/61/61
f 63/63/63 65/65/65 66/66/66
f 61/61/61 64/64/64 67/67/67
f 61/61/61 67/67/67 63/63/63
f 67/67/67 65/65/65 63/63/63
f 67/67/67 64/64/64 68/68/68
f 68/68/68 65/65/65 67/67/67
f 69/69/69 70/70/70 71/71/71
f 71/71/71 19/20/20 69/69/69
f 18/18/18 19/20/20 71/71/71
f 19/20/20 72/72/72 69/69/69
f 72/72/72 73/73/73 74/74/74
f 19/20/20 75/75/75 72/72/72
f 75/75/75 73/73/73 72/72/72
f 19/20/20 20/19/19 75/75/75
f 76/76/76 73/73/73 75/75/75
f 75/75/75 20/19/19 76/76/76
f 11/11/11 9/9/9 12/12/12
f 9/9/9 11/11/11 7/7/7
f 11/11/11 77/77/77 7/7/7
f 77/77/77 11/11/11 78/78/78
f 11/11/11 10/10/10 78/78/78
f 79/79/79 80/80/80 81/81/81
f 79/79/79 53/52/52 80/80/80
f 52/53/53 53/52/52 79/79/79
f 56/56/56 52/53/53 79/79/79
f 56/56/56 79/79/79 82/82/82
f 83/83/83 84/84/84 85/85/85
f 86/86/86 83/83/83 85/85/85
f 83/83/83 87/87/87 84/84/84
f 88/88/88 83/83/83 86/86/86
f 89/89/89 87/87/87 83/83/83
f 89/89/89 83/83/83 88/88/88
f 90/90/90 91/91/91 92/92/92
f 90/90/90 93/93/93 91/91/91
f 94/94/94 90/90/90 92/92/92
f 95/95/95 93/93/93 90/90/90
f 96/96/96 90/90/90 94/94/94
f 95/95/95 90/90/90 96/96/96
f 97/97/97 98/98/98 99/99/99
f 97/97/97 100/100/100 98/98/98
f 101/101/101 97/97/97 99/99/99
f 102/102/102 100/100/100 97/97/97
f 103/103/103 97/97/97 101/101/101
f 102/102/102 97/97/97 103/103/103
f 104/104/104 33/33/33 35/35/35
f 33/33/33 104/104/104 31/31/31
f 105/105/105 104/104/104 35/35/35
f 104/104/104 106/106/106 31/31/31
f 104/104/104 105/105/105 107/107/107
f 106/106/106 104/104/104 107/107/107
