g skin
v -0.132335 4.825449 -0.613357
v 0.777435 1.991535 0.579954
v 0.722495 3.885813 0.613655
v 0.430004 4.724390 -0.454573
v -0.558814 -0.002944 0.521877
v -0.767330 3.442331 -0.047750
v -0.863790 3.087845 -0.717838
v -0.817874 0.013849 -0.836328
v 0.183117 1.162202 -0.702860
v -0.323183 0.013948 0.775009
v 0.903236 1.316652 -0.291678
v 0.425778 -0.010051 -0.642469
v -0.736079 1.186005 0.150538
v 0.556231 4.931831 0.565521
v 0.829209 4.710077 -0.075998
v -0.671578 5.036026 -0.075921
v -0.888409 1.292114 -0.728171
v -0.312651 3.385540 0.841891
v 0.647198 0.028697 0.472418
v 0.189222 3.861959 -0.601706
v -0.280274 1.538295 0.871027
v -0.754677 4.887948 -0.600653
v 0.871485 0.029140 -0.341951
v -0.832192 -0.012612 -0.189267
v -0.300513 5.093260 0.692483
v 0.891285 4.023793 -0.248863
vt 0.957817 0.448377
vt 0.930047 0.474905
vt 0.918518 0.441829
vt 0.805365 0.404792
vt 0.800349 0.366795
vt 0.894247 0.373073
vt 0.747930 0.381787
vt 0.140837 0.423193
vt 0.175311 0.434664
vt 0.173918 0.472066
vt 0.120225 0.449674
vt 0.117407 0.423246
vt 0.812557 0.487128
vt 0.752103 0.466254
vt 0.802606 0.451720
vt 0.592643 0.103599
vt 0.564778 0.066578
vt 0.614484 0.039081
vt 0.749436 0.251069
vt 0.834151 0.286061
vt 0.751184 0.287994
vt 0.958601 0.421954
vt 0.880556 0.401532
vt 0.957469 0.394041
vt 0.961550 0.472563
vt 0.631320 0.084385
vt 0.635255 0.048717
vt 0.749420 0.410430
vt 0.815511 0.331136
vt 0.748748 0.347766
vt 0.750087 0.332610
vt 0.890584 0.332529
vt 0.963154 0.332181
vt 0.910510 0.289986
vt 0.954852 0.293881
vt 0.561003 0.039319
vt 0.946457 0.262215
vt 0.917916 0.253847
vt 0.962967 0.370232
vt 0.805135 0.250328
vt 0.147318 0.488142
vt 0.129382 0.473143
vt 0.755882 0.489676
vt 0.581029 0.094572
vn 0.4715 0.3764 -0.7975
vn 0.8532 0.0770 -0.5159
vn 0.2613 0.0348 -0.9646
vn -0.9934 -0.0023 0.1146
vn -0.9270 0.0104 0.3748
vn -0.9678 0.0368 0.2489
vn -0.9850 -0.0170 0.1719
vn 0.1452 0.9669 -0.2099
vn 0.1615 0.9753 -0.1506
vn 0.4618 0.8622 0.2084
vn 0.2038 0.7877 -0.5814
vn 0.0533 0.3999 -0.9150
vn 0.7812 0.0184 -0.6241
vn 0.4066 0.0188 -0.9134
vn 0.2167 0.0336 -0.9757
vn 0.0449 -0.9989 0.0123
vn 0.0314 -0.9994 -0.0142
vn 0.0178 -0.9998 0.0092
vn 0.9869 -0.0356 -0.1572
vn 0.8315 -0.0285 0.5549
vn 0.7165 -0.0855 0.6923
vn -0.9916 0.0327 0.1254
vn -0.9902 0.0573 0.1270
vn 0.8601 0.5031 -0.0841
vn 0.0164 -0.9999 0.0040
vn 0.0364 -0.9990 0.0253
vn -0.9983 -0.0530 -0.0243
vn -0.3370 -0.0104 0.9414
vn -0.8495 -0.0046 0.5276
vn -0.0544 -0.0626 0.9966
vn -0.6321 0.0464 0.7735
vn 0.0573 0.0345 -0.9978
vn -0.2291 0.0807 0.9700
vn 0.5222 0.0678 0.8501
vn -0.0128 -0.9991 -0.0411
vn 0.0291 0.0458 -0.9985
vn 0.0941 0.0336 -0.9950
vn -0.9363 0.0565 0.3467
vn 0.0968 -0.9950 -0.0237
usemtl skin.001
s 1
f 4/1/1 26/2/2 20/3/3
f 17/4/4 13/5/5 6/6/6
f 24/7/7 13/5/5 17/4/4
f 16/8/8 25/9/9 14/10/10
f 1/11/11 22/12/12 16/8/8
f 11/13/13 12/14/14 9/15/15
f 10/16/16 24/17/17 12/18/18
f 23/19/19 2/20/20 19/21/21
f 4/1/1 20/3/3 1/22/11
f 7/23/22 6/6/6 22/24/23
f 4/1/1 15/25/24 26/2/2
f 19/26/25 10/16/16 23/27/26
f 17/4/4 8/28/27 24/7/7
f 21/29/28 5/30/29 10/31/30
f 6/6/6 13/5/5 18/32/31
f 20/3/3 11/13/13 9/15/15
f 20/3/3 7/23/32 22/24/12
f 25/33/33 3/34/34 14/35/10
f 24/17/17 8/36/35 12/18/18
f 15/37/24 2/20/20 26/38/2
f 13/5/5 21/29/28 18/32/31
f 13/5/5 5/30/29 21/29/28
f 13/5/5 24/7/7 5/30/29
f 15/37/24 14/35/10 3/34/34
f 14/10/10 1/11/11 16/8/8
f 17/4/36 9/15/15 8/28/37
f 16/39/38 22/24/23 6/6/6
f 19/21/21 2/20/20 10/31/30
f 8/28/37 9/15/15 12/14/14
f 26/2/2 11/13/13 20/3/3
f 23/19/19 11/40/13 2/20/20
f 18/32/31 16/39/38 6/6/6
f 6/6/6 7/23/22 17/4/4
f 1/11/11 15/41/24 4/42/1
f 2/20/20 21/29/28 10/31/30
f 11/13/13 23/43/19 12/14/14
f 3/34/34 18/32/31 21/29/28
f 3/34/34 21/29/28 2/20/20
f 1/22/11 20/3/3 22/24/12
f 16/39/38 18/32/31 25/33/33
f 25/33/33 18/32/31 3/34/34
f 20/3/3 9/15/15 7/23/32
f 10/16/16 5/44/39 24/17/17
f 14/10/10 15/41/24 1/11/11
f 15/37/24 3/34/34 2/20/20
f 9/15/15 17/4/36 7/23/32
f 10/16/16 12/18/18 23/27/26
f 26/38/2 2/20/20 11/40/13
