mtllib model.mtl
o model.obj
v -0.136768 7.961754 -0.506099
v -0.061279 4.012972 -0.704691
v -0.281031 3.978030 -0.298319
v -0.352033 7.973412 -0.155244
v -0.135274 -0.628763 0.361072
v 0.437594 -0.637237 0.193045
v 0.310627 3.904939 0.015598
v -0.089256 4.007593 0.083500
v -0.348705 -0.710329 -0.158521
v -0.100701 -0.665674 -0.475562
v 0.368054 3.951957 -0.651416
v 0.371295 -0.615285 -0.369022
v 0.386810 15.568084 -0.012767
v 0.320817 15.406380 0.671825
v 0.364416 7.997926 0.238250
v 0.350522 7.994113 -0.420783
v -0.311405 15.440482 0.317968
v -0.048080 15.513283 -0.064346
v -0.114310 15.458058 0.752809
v -0.009656 8.074706 0.297313
v 0.345906 11.685013 0.490349
v 0.432928 11.853441 -0.228874
v -0.030571 11.833612 -0.247993
v -0.332169 11.740710 0.125916
v -0.047218 11.834955 0.491787
v 0.025882 15.755979 0.393437
vn -0.454341 0.054731 -0.889145
vn -0.410246 -0.003982 -0.911966
vn -0.999924 0.000824 -0.012307
vn -0.997646 0.002749 0.068517
vn -0.399053 0.052729 0.915410
vn 0.833510 0.044812 0.550684
vn 0.783677 -0.001557 0.621166
vn -0.388321 0.002769 0.921520
vn -0.994794 0.007077 -0.101659
vn -0.383743 -0.041944 -0.922487
vn 0.749609 0.002865 -0.661875
vn 0.707256 -0.016801 -0.706758
vn 0.644260 0.634422 -0.427128
vn 0.640809 0.441531 0.628024
vn 0.718033 -0.045824 0.694499
vn 0.753738 0.036578 -0.656157
vn -0.910199 0.411650 -0.045623
vn -0.437438 0.532009 -0.724993
vn -0.411458 0.436871 0.799904
vn -0.412588 -0.051014 0.909488
vn 0.722324 -0.035806 0.690628
vn 0.745366 0.043076 -0.665262
vn -0.443505 0.057528 -0.894424
vn -0.999875 -0.001228 -0.015772
vn -0.453500 -0.059472 0.889270
vn -0.135210 0.983897 0.116900
vt 0.006037 0.470981
vt 0.000000 0.259389
vt 0.191503 0.257887
vt 0.167228 0.473700
vt 0.370229 0.008297
vt 0.596888 0.009127
vt 0.543937 0.255115
vt 0.370811 0.259883
vt 0.156198 0.004951
vt 0.994473 0.011692
vt 1.000000 0.263322
vt 0.822019 0.259187
vt 0.809883 0.013232
vt 0.826548 0.885690
vt 0.554861 0.877700
vt 0.532379 0.678247
vt 0.816694 0.686699
vt 0.194168 0.876645
vt 0.009677 0.878405
vt 0.008229 0.681002
vt 0.198917 0.678190
vt 0.538276 0.478380
vt 0.376516 0.685590
vt 0.387542 0.481774
vt 0.996037 0.476283
vt 0.998229 0.686342
vt 0.799713 0.477554
vt 0.004473 0.008244
vt 0.380445 0.880203
vt 0.999677 0.883741
vt 0.473922 0.943595
vt 0.150740 0.897239
vt 0.891600 0.901197
vt 0.976631 0.959477
vt 0.489855 0.995049
vt 0.004194 0.956064
g base
usemtl Material1
f 1/1/1 2/2/2 3/3/3 4/4/4 
f 5/5/5 6/6/6 7/7/7 8/8/8 
f 5/5/5 8/8/8 3/3/3 9/9/9 
f 10/10/10 2/11/2 11/12/11 12/13/12 
f 13/14/13 14/15/14 21/16/21 22/17/22 
f 17/18/17 18/19/18 23/20/23 24/21/24 
f 15/22/15 21/16/21 25/23/25 20/24/20 
f 20/24/20 25/23/25 24/21/24 4/4/4 
f 1/25/1 23/26/23 22/17/22 16/27/16 
f 15/22/15 7/7/7 11/12/11 16/27/16 
f 7/7/7 15/22/15 20/24/20 8/8/8 
f 8/8/8 20/24/20 4/4/4 3/3/3 
f 2/11/2 1/25/1 16/27/16 11/12/11 
f 7/7/7 6/6/6 12/13/12 11/12/11 
f 2/2/2 10/28/10 9/9/9 3/3/3 
f 21/16/21 15/22/15 16/27/16 22/17/22 
f 23/20/23 1/1/1 4/4/4 24/21/24 
f 21/16/21 14/15/14 19/29/19 25/23/25 
f 25/23/25 19/29/19 17/18/17 24/21/24 
f 23/26/23 18/30/18 13/14/13 22/17/22 
f 26/31/26 14/32/14 13/33/13 
f 26/31/26 18/34/18 17/35/17 
f 26/31/26 19/36/19 14/32/14 
f 26/31/26 17/35/17 19/36/19 
f 26/31/26 13/33/13 18/34/18 
v 0.532058 11.955656 -0.023019
v 0.352701 11.899985 1.929582
v 0.552635 11.918044 -1.968117
v 0.370884 11.879160 0.002930
v 0.593112 11.935834 1.931807
v 0.344361 11.923843 -1.945148
v 0.624145 9.317881 3.924185
v 0.624145 9.317881 3.924185
v 0.624145 9.317881 3.924185
v 0.347002 9.308712 3.867000
v 0.347002 9.308712 3.867000
v 0.347002 9.308712 3.867000
v 0.586492 14.617490 3.885339
v 0.586492 14.617490 3.885339
v 0.586492 14.617490 3.885339
v 0.325414 14.637841 3.848395
v 0.325414 14.637841 3.848395
v 0.325414 14.637841 3.848395
v 0.609209 9.258277 -3.750969
v 0.609209 9.258277 -3.750969
v 0.609209 9.258277 -3.750969
v 0.345110 9.243630 -3.777663
v 0.345110 9.243630 -3.777663
v 0.345110 9.243630 -3.777663
v 0.598801 14.603489 -3.651443
v 0.598801 14.603489 -3.651443
v 0.598801 14.603489 -3.651443
v 0.344811 14.577869 -3.668607
v 0.344811 14.577869 -3.668607
v 0.344811 14.577869 -3.668607
v 0.603001 8.917531 -0.011205
v 0.603001 8.917531 -0.011205
v 0.374302 8.943039 0.027767
v 0.374302 8.943039 0.027767
v 0.389429 14.735850 -0.017821
v 0.389429 14.735850 -0.017821
v 0.614898 14.749668 -0.010995
v 0.614898 14.749668 -0.010995
v 0.579898 9.023309 1.987790
v 0.579898 9.023309 1.987790
v 0.332278 9.022091 1.972320
v 0.332278 9.022091 1.972320
v 0.290577 14.611858 1.991211
v 0.290577 14.611858 1.991211
v 0.577204 14.582282 1.932092
v 0.577204 14.582282 1.932092
v 0.327964 9.035330 -1.951477
v 0.327964 9.035330 -1.951477
v 0.304717 14.616919 -1.929813
v 0.304717 14.616919 -1.929813
v 0.581229 14.601329 -1.975826
v 0.581229 14.601329 -1.975826
v 0.563681 9.029482 -1.932337
v 0.563681 9.029482 -1.932337
v 0.336354 11.924422 3.897423
v 0.336354 11.924422 3.897423
v 0.586385 11.887363 3.949905
v 0.586385 11.887363 3.949905
v 0.340173 11.903218 -3.941202
v 0.340173 11.903218 -3.941202
v 0.570393 11.908784 -3.908392
v 0.570393 11.908784 -3.908392
v 0.586444 13.317900 3.908552
v 0.586444 13.317900 3.908552
v 0.381255 13.351916 -3.958363
v 0.381255 13.351916 -3.958363
v 0.369951 13.334692 3.905642
v 0.369951 13.334692 3.905642
v 0.560546 13.338600 -3.901993
v 0.560546 13.338600 -3.901993
v 0.377617 10.482336 3.797524
v 0.377617 10.482336 3.797524
v 0.571999 10.674537 -3.760781
v 0.571999 10.674537 -3.760781
v 0.560719 10.454100 3.821638
v 0.560719 10.454100 3.821638
v 0.351003 10.667006 -3.754521
v 0.351003 10.667006 -3.754521
vn 0.999999 -0.001152 -0.000575
vn -0.999956 -0.005877 -0.007371
vn 0.999998 -0.000634 -0.001901
vn -0.999997 -0.002282 -0.001289
vn 0.999961 -0.002445 0.008482
vn -0.999979 0.002821 0.005823
vn 0.001683 -0.988631 0.150356
vn -0.203680 0.063149 0.976999
vn 0.998121 0.052932 -0.030859
vn 0.001683 -0.988631 0.150356
vn -0.203680 0.063149 0.976999
vn -0.999647 0.026301 0.003790
vn -0.010050 0.043542 0.999001
vn 0.079878 0.996685 -0.015442
vn 0.999989 -0.000122 -0.004753
vn -0.010050 0.043542 0.999001
vn 0.079878 0.996685 -0.015442
vn -0.999261 -0.033307 0.019210
vn -0.028869 0.016369 -0.999449
vn 0.067332 -0.990135 -0.122879
vn 0.999248 0.026450 0.028343
vn -0.028869 0.016369 -0.999449
vn 0.067332 -0.990135 -0.122879
vn -0.999951 0.004285 -0.008900
vn -0.098682 0.994815 -0.024617
vn 0.042387 0.231001 -0.972030
vn 0.999424 -0.032294 0.010439
vn -0.098682 0.994815 -0.024617
vn 0.042387 0.231001 -0.972030
vn -0.999449 -0.024393 -0.022498
vn -0.059384 -0.998234 -0.001228
vn 0.999948 0.009480 -0.003660
vn -0.059384 -0.998234 -0.001228
vn -0.999996 0.002903 0.000740
vn 0.028557 0.999585 0.003779
vn -0.999967 -0.007470 -0.003320
vn 0.028557 0.999585 0.003779
vn 0.999927 -0.011784 0.002510
vn 0.001648 -0.994811 0.101730
vn 0.999889 0.014792 -0.001763
vn 0.001648 -0.994811 0.101730
vn -0.999909 0.013485 0.000281
vn 0.098064 0.994847 0.025741
vn -0.999655 -0.026187 -0.001831
vn 0.098064 0.994847 0.025741
vn 0.999981 0.003966 0.004777
vn -0.026457 -0.995632 -0.089538
vn -0.999993 0.003004 0.002279
vn -0.079004 0.995989 -0.042002
vn -0.999940 -0.010720 -0.002434
vn -0.079004 0.995989 -0.042002
vn 0.999704 -0.024179 -0.002733
vn -0.026457 -0.995632 -0.089538
vn 0.999823 0.017884 0.005775
vn -0.173572 -0.036664 0.984138
vn -0.999964 -0.002093 -0.008281
vn -0.173572 -0.036664 0.984138
vn 0.999954 -0.009055 0.003116
vn 0.221923 -0.083591 -0.971474
vn -0.999948 0.009970 0.001995
vn 0.221923 -0.083591 -0.971474
vn 0.999948 0.004620 0.009130
vn -0.108346 0.021477 0.993881
vn 0.999998 0.001981 -0.000749
vn 0.173274 0.107359 -0.979005
vn -0.999858 -0.003526 -0.016450
vn -0.108346 0.021477 0.993881
vn -0.999866 -0.010979 0.012132
vn 0.173274 0.107359 -0.979005
vn 0.999914 -0.012040 0.005272
vn -0.172925 -0.004656 0.984924
vn -0.999986 0.001876 0.004924
vn 0.057492 -0.065559 -0.996191
vn 0.999825 0.010924 0.015189
vn -0.172925 -0.004656 0.984924
vn 0.999937 0.010172 -0.004727
vn 0.057492 -0.065559 -0.996191
vn -0.999988 0.000516 -0.004780
vt 0.993985 0.041616
vt 0.919379 0.034021
vt 0.918613 0.008959
vt 0.992998 0.011103
vt 0.689047 0.064302
vt 0.770515 0.061886
vt 0.771178 0.087428
vt 0.690176 0.094955
vt 0.670687 0.103967
vt 0.685811 0.107339
vt 0.681423 0.319151
vt 0.667951 0.316421
vt 0.690754 0.120572
vt 0.705372 0.118829
vt 0.706620 0.319960
vt 0.690796 0.314322
vt 0.681792 0.541699
vt 0.677200 0.772980
vt 0.663059 0.770370
vt 0.668572 0.545574
vt 0.992976 0.579686
vt 0.989004 0.773886
vt 0.846736 0.769417
vt 0.847835 0.576975
vt 0.701103 0.541393
vt 0.707180 0.774081
vt 0.690652 0.767601
vt 0.688173 0.542118
vt 0.331383 0.998554
vt 0.167544 0.968131
vt 0.168865 0.517167
vt 0.333793 0.522376
vt 0.676516 0.999500
vt 0.660756 0.991888
vt 0.706484 0.988866
vt 0.691520 0.993472
vt 0.988498 0.382001
vt 0.845716 0.382391
vt 0.497201 0.975059
vt 0.497843 0.517821
vt 0.838645 0.035901
vt 0.755905 0.031561
vt 0.754364 0.010185
vt 0.836714 0.006309
vt 0.842049 0.058163
vt 0.924969 0.062995
vt 0.924149 0.084717
vt 0.842313 0.085053
vt 0.846865 0.183074
vt 0.907929 0.201834
vt 0.661504 0.518079
vt 0.660277 0.761735
vt 0.845500 0.965941
vt 0.775816 0.966768
vt 0.775257 0.181138
vt 0.001461 0.750745
vt -0.001337 0.506994
vt 0.997036 0.069027
vt 0.997663 0.098582
vt 0.712643 0.775547
vt 0.706620 0.574698
vt 0.712583 0.383619
vt 0.916765 0.956053
vt 0.688599 0.033217
vt 0.689145 0.000500
vt 0.165469 0.020826
vt 0.334131 0.004648
vt 0.496147 0.025613
vt 0.010131 0.262900
vt 0.649621 0.307604
vt 0.978278 0.199645
vt 0.714631 0.209975
vt 0.711378 0.960997
vt 0.974785 0.963039
vt 0.649491 0.066190
vt 0.002783 0.972200
vt 0.638543 0.977129
vt 0.001951 0.068918
g sign
usemtl Default
f 42/37/42 93/38/93 89/39/89 39/40/39 
f 48/41/48 103/42/103 99/43/99 45/44/45 
f 49/45/49 46/46/46 79/47/79 73/48/73 
f 51/49/51 54/50/54 75/51/75 77/52/77 
f 57/53/57 65/54/65 67/55/67 59/56/59 
f 60/57/60 68/58/68 28/59/28 30/60/30 
f 61/61/61 69/62/69 71/63/71 63/64/63 
f 64/65/64 72/66/72 31/67/31 27/68/27 
f 65/54/65 33/69/33 36/70/36 67/55/67 
f 69/62/69 43/71/43 40/72/40 71/63/71 
f 79/47/79 57/53/57 59/56/59 73/48/73 
f 74/73/74 60/57/60 30/60/30 32/74/32 
f 75/51/75 61/61/61 63/64/63 77/52/77 
f 78/75/78 64/65/64 27/68/27 29/76/29 
f 81/77/81 97/78/97 101/79/101 83/80/83 
f 85/81/85 91/82/91 95/83/95 87/84/87 
f 86/85/86 104/86/104 32/74/32 
f 88/87/88 96/88/96 29/76/29 
f 82/89/82 94/90/94 28/59/28 
f 93/38/93 81/77/81 83/80/83 89/39/89 
f 92/91/92 86/85/86 32/74/32 
f 90/92/90 84/93/84 31/67/31 
f 91/82/91 55/94/55 52/95/52 95/83/95 
f 28/59/28 70/96/70 62/97/62 30/60/30 
f 30/60/30 62/97/62 76/98/76 32/74/32 
f 103/42/103 85/81/85 87/84/87 99/43/99 
f 98/99/98 82/89/82 28/59/28 
f 97/78/97 37/100/37 34/101/34 101/79/101 
f 31/67/31 66/102/66 58/103/58 27/68/27 
f 27/68/27 58/103/58 80/104/80 29/76/29 
f 84/93/84 102/105/102 31/67/31 
f 29/76/29 100/106/100 88/87/88 
f 104/86/104 50/107/50 74/73/74 
f 104/86/104 74/73/74 32/74/32 
f 92/91/92 32/74/32 76/98/76 
f 76/98/76 56/108/56 92/91/92 
f 94/90/94 44/109/44 70/96/70 
f 94/90/94 70/96/70 28/59/28 
f 68/58/68 38/110/38 98/99/98 
f 68/58/68 98/99/98 28/59/28 
f 100/106/100 29/76/29 80/104/80 
f 80/104/80 47/111/47 100/106/100 
f 72/66/72 41/112/41 90/92/90 
f 72/66/72 90/92/90 31/67/31 
f 96/88/96 53/113/53 78/75/78 
f 96/88/96 78/75/78 29/76/29 
f 102/105/102 35/114/35 66/102/66 
f 102/105/102 66/102/66 31/67/31 
