mtllib model.mtl
o model.obj
v -0.178176 -0.277464 -0.669888
v -0.178176 0.277464 -0.669888
v -0.178176 0.669888 -0.277464
v -0.178176 0.669888 0.277464
v -0.178176 0.277464 0.669888
v -0.178176 -0.277464 0.669888
v -0.178176 -0.669888 0.277464
v -0.178176 -0.669888 -0.277464
v 0.178176 0.000000 0.000000
v -0.178176 1.183992 -0.359016
v -0.178176 1.183992 0.359016
v -0.178176 1.717248 -0.370488
v -0.178176 1.717248 0.370488
v -0.178176 2.214336 -0.261768
v -0.178176 2.214336 0.261768
v -0.178176 3.058440 -0.160992
v -0.178176 3.058440 0.160992
v -0.178176 3.986760 -0.483528
v -0.178176 3.986760 0.483528
v -0.178176 4.296240 -0.713352
v -0.178176 4.296240 0.713352
v -0.178176 4.749096 -0.747264
v -0.178176 4.749096 0.747264
v -0.178176 5.347152 -0.572904
v -0.178176 5.347152 0.572904
v -0.178176 5.987256 -0.295680
v -0.178176 5.987256 0.295680
v -0.178176 6.418416 -0.177696
v -0.178176 6.418416 0.177696
v 0.178176 -0.277464 -0.669888
v 0.178176 -0.277464 -0.669888
v 0.178176 0.277464 -0.669888
v 0.178176 0.277464 -0.669888
v 0.178176 0.669888 -0.277464
v 0.178176 0.669888 -0.277464
v 0.178176 0.669888 0.277464
v 0.178176 0.669888 0.277464
v 0.178176 0.277464 0.669888
v 0.178176 0.277464 0.669888
v 0.178176 -0.277464 0.669888
v 0.178176 -0.277464 0.669888
v 0.178176 -0.669888 0.277464
v 0.178176 -0.669888 0.277464
v 0.178176 -0.669888 -0.277464
v 0.178176 -0.669888 -0.277464
v 0.178176 0.864600 0.196656
v 0.178176 0.864600 -0.196656
v 0.178176 1.183992 0.359016
v 0.178176 1.183992 0.359016
v 0.178176 1.183992 -0.359016
v 0.178176 1.183992 -0.359016
v 0.178176 1.717248 0.370488
v 0.178176 1.717248 0.370488
v 0.178176 1.717248 -0.370488
v 0.178176 1.717248 -0.370488
v 0.178176 2.214336 0.261768
v 0.178176 2.214336 0.261768
v 0.178176 2.214336 -0.261768
v 0.178176 2.214336 -0.261768
v 0.178176 3.058440 0.160992
v 0.178176 3.058440 0.160992
v 0.178176 3.058440 -0.160992
v 0.178176 3.058440 -0.160992
v 0.178176 3.828312 0.143376
v 0.178176 3.828312 0.143376
v 0.178176 3.828312 0.143376
v 0.178176 3.828312 -0.143376
v 0.178176 3.828312 -0.143376
v 0.178176 3.828312 -0.143376
v -0.178176 3.828312 -0.143376
v -0.178176 3.828312 -0.143376
v -0.178176 3.828312 0.143376
v -0.178176 3.828312 0.143376
v 0.178176 3.986760 0.483528
v 0.178176 3.986760 0.483528
v 0.178176 3.986760 -0.483528
v 0.178176 3.986760 -0.483528
v 0.178176 4.296240 0.713352
v 0.178176 4.296240 0.713352
v 0.178176 4.296240 -0.713352
v 0.178176 4.296240 -0.713352
v 0.178176 4.749096 0.747264
v 0.178176 4.749096 0.747264
v 0.178176 4.749096 -0.747264
v 0.178176 4.749096 -0.747264
v 0.178176 5.347152 0.567216
v 0.178176 5.347152 0.567216
v 0.178176 5.347152 -0.567216
v 0.178176 5.347152 -0.567216
v 0.178176 5.987256 0.292752
v 0.178176 5.987256 0.292752
v 0.178176 5.987256 -0.292752
v 0.178176 5.987256 -0.292752
v 0.178176 6.418416 0.175944
v 0.178176 6.418416 0.175944
v 0.178176 6.418416 -0.175944
v 0.178176 6.418416 -0.175944
v 0.178176 7.364136 0.078960
v 0.178176 7.364136 0.078960
v 0.178176 7.364136 0.078960
v 0.178176 7.364136 -0.078960
v 0.178176 7.364136 -0.078960
v 0.178176 7.364136 -0.078960
v -0.178176 7.364136 -0.079728
v -0.178176 7.364136 -0.079728
v -0.178176 7.364136 0.079728
v -0.178176 7.364136 0.079728
v -0.178176 0.864600 -0.196656
v -0.178176 0.864600 -0.196656
v -0.178176 0.864600 0.196656
v -0.178176 0.864600 0.196656
v 0.178176 0.864600 0.196656
v 0.178176 0.864600 0.196656
v 0.178176 0.864600 -0.196656
v 0.178176 0.864600 -0.196656
vn 0.000000 -0.382683 -0.923880
vn 0.000000 0.382683 -0.923880
vn 0.000000 0.555854 -0.831280
vn 0.000000 0.555854 0.831280
vn 0.000000 0.382683 0.923880
vn 0.000000 -0.382683 0.923880
vn 0.000000 -0.923880 0.382683
vn 0.000000 -0.923880 -0.382683
vn 1.000000 0.000000 0.000000
vn 0.000000 -0.243433 -0.969918
vn 0.000000 -0.243433 0.969918
vn 0.000000 0.096755 -0.995308
vn 0.000000 0.096755 0.995308
vn 0.000000 0.166298 -0.986076
vn 0.000000 0.166298 0.986076
vn 0.000000 0.070792 -0.997491
vn 0.000000 0.070792 0.997491
vn 0.000000 -0.775062 -0.631886
vn 0.000000 -0.775062 0.631886
vn 0.000000 -0.349232 -0.937036
vn 0.000000 -0.349232 0.937036
vn 0.000000 0.104278 -0.994548
vn 0.000000 0.108625 0.994083
vn 0.007337 0.339307 -0.940647
vn 0.007346 0.341708 0.939777
vn 0.011314 0.331487 -0.943392
vn 0.011327 0.328572 0.944411
vn 0.006429 0.184103 -0.982886
vn 0.006432 0.182349 0.983213
vn 0.000000 -0.382683 -0.923880
vn 1.000000 0.000000 0.000000
vn 0.000000 0.382683 -0.923880
vn 1.000000 0.000000 0.000000
vn 1.000000 0.000000 0.000000
vn 0.000000 0.555854 -0.831280
vn 1.000000 0.000000 0.000000
vn 0.000000 0.555854 0.831280
vn 0.000000 0.382683 0.923880
vn 1.000000 0.000000 0.000000
vn 0.000000 -0.382683 0.923880
vn 1.000000 0.000000 0.000000
vn 0.000000 -0.923880 0.382683
vn 1.000000 0.000000 0.000000
vn 0.000000 -0.923880 -0.382683
vn 1.000000 0.000000 0.000000
vn 1.000000 0.000000 0.000000
vn 1.000000 0.000000 0.000000
vn 0.000000 -0.243433 0.969918
vn 1.000000 0.000000 0.000000
vn 0.000000 -0.243433 -0.969918
vn 1.000000 0.000000 0.000000
vn 0.000000 0.096755 0.995308
vn 1.000000 0.000000 0.000000
vn 0.000000 0.096755 -0.995308
vn 1.000000 0.000000 0.000000
vn 0.000000 0.166298 0.986076
vn 1.000000 0.000000 0.000000
vn 0.000000 0.166298 -0.986076
vn 1.000000 0.000000 0.000000
vn 1.000000 0.000000 0.000000
vn 0.000000 0.070792 0.997491
vn 1.000000 0.000000 0.000000
vn 0.000000 0.070792 -0.997491
vn 1.000000 0.000000 0.000000
vn 0.000000 0.022876 0.999738
vn 0.000000 -0.906479 0.422252
vn 1.000000 0.000000 0.000000
vn 0.000000 0.022876 -0.999738
vn 0.000000 -0.906479 -0.422252
vn 0.000000 0.022876 -0.999738
vn 0.000000 -0.906479 -0.422252
vn 0.000000 0.022876 0.999738
vn 0.000000 -0.906479 0.422252
vn 0.000000 -0.775062 0.631886
vn 1.000000 0.000000 0.000000
vn 0.000000 -0.775062 -0.631886
vn 1.000000 0.000000 0.000000
vn 0.000000 -0.349232 0.937036
vn 1.000000 0.000000 0.000000
vn 0.000000 -0.349232 -0.937036
vn 1.000000 0.000000 0.000000
vn 0.000000 0.108625 0.994083
vn 1.000000 0.000000 0.000000
vn 0.000000 0.104278 -0.994548
vn 1.000000 0.000000 0.000000
vn 0.007346 0.341708 0.939777
vn 1.000000 0.000000 0.000000
vn 0.007337 0.339307 -0.940647
vn 1.000000 0.000000 0.000000
vn 0.011327 0.328572 0.944411
vn 1.000000 0.000000 0.000000
vn 0.011314 0.331487 -0.943392
vn 1.000000 0.000000 0.000000
vn 1.000000 0.000000 0.000000
vn 0.006432 0.182349 0.983213
vn 1.000000 0.000000 0.000000
vn 0.006429 0.184103 -0.982886
vn 0.000000 1.000000 0.000000
vn 1.000000 0.000000 0.000000
vn 0.004891 0.102014 0.994771
vn 0.000000 1.000000 0.000000
vn 1.000000 0.000000 0.000000
vn 0.004890 0.103038 -0.994665
vn 0.000000 1.000000 0.000000
vn 0.004890 0.103038 -0.994665
vn 0.000000 1.000000 0.000000
vn 0.004891 0.102014 0.994771
vn 0.000000 0.383314 -0.923618
vn 0.000000 -0.453152 -0.891433
vn 0.000000 0.383314 0.923618
vn 0.000000 -0.453152 0.891433
vn 0.000000 0.383314 0.923618
vn 0.000000 -0.453152 0.891433
vn 0.000000 0.383314 -0.923618
vn 0.000000 -0.453152 -0.891433
vt 0.257032 0.659775
vt 0.257032 0.501806
vt 0.626066 0.501806
vt 0.626066 0.659775
vt 0.058881 0.053707
vt 0.058881 0.121997
vt 0.500000 0.087851
vt 0.257032 0.817756
vt 0.626066 0.817756
vt 0.317291 0.170288
vt 2.140576 -0.192323
vt 1.977037 -0.192323
vt 1.976240 -0.293765
vt 2.141373 -0.293765
vt 0.682709 0.170288
vt 0.257032 -0.130095
vt 0.257032 -0.288077
vt 0.626066 -0.288077
vt 0.626066 -0.130095
vt 0.941119 0.121997
vt 0.257032 0.027874
vt 0.626066 0.027874
vt 0.941119 0.053707
vt 0.257032 0.185855
vt 0.626066 0.185855
vt 0.682709 0.005415
vt 0.257032 0.343824
vt 0.626066 0.343824
vt 0.317291 0.005415
vt 0.370503 0.194249
vt 0.629497 0.194249
vt 0.626066 0.877768
vt 0.257032 0.877768
vt 0.257032 -0.348088
vt 0.626066 -0.348088
vt 0.263589 0.233553
vt 0.736411 0.233553
vt -0.742323 1.030224
vt -1.111357 1.030224
vt -1.111357 0.928231
vt -0.742323 0.928231
vt -0.328349 0.054453
vt 0.040685 0.054453
vt 0.040685 0.156446
vt -0.328349 0.156446
vt 0.256035 0.299176
vt 0.743965 0.299176
vt -1.111357 0.776396
vt -0.742323 0.776396
vt 0.040685 0.308281
vt -0.328349 0.308281
vt 0.327627 0.360348
vt 0.672373 0.360348
vt -1.111357 0.631547
vt -0.742323 0.631547
vt 0.040685 0.453130
vt -0.328349 0.453130
vt 0.393988 0.464223
vt 0.606012 0.464223
vt -1.111357 0.389553
vt -0.742323 0.389553
vt 0.040685 0.695124
vt -0.328349 0.695124
vt 0.405588 0.558964
vt 0.594412 0.558964
vt -1.111357 0.170339
vt -0.742323 0.170339
vt 0.040685 0.914338
vt -0.328349 0.914338
vt 0.181598 0.578463
vt 0.818402 0.578463
vt 1.959855 0.460227
vt 1.590821 0.460282
vt 1.590610 0.353463
vt 1.959644 0.353408
vt 1.006367 -0.568036
vt 1.375401 -0.568162
vt 1.375882 -0.461343
vt 1.006848 -0.461217
vt 0.030260 0.616547
vt 0.969740 0.616547
vt 1.590392 0.243729
vt 1.959426 0.243674
vt 1.376380 -0.351609
vt 1.007342 -0.351483
vt 0.007930 0.672276
vt 0.992071 0.672276
vt 1.590133 0.114455
vt 1.959171 0.114400
vt 1.376962 -0.222335
vt 1.007928 -0.222210
vt 0.126490 0.745872
vt 0.873510 0.745872
vt 1.589784 -0.062878
vt 1.958859 -0.063394
vt 1.377763 -0.044542
vt 1.008685 -0.044876
vt 0.307224 0.824643
vt 0.692776 0.824643
vt 1.590694 -0.261449
vt 1.959743 -0.261654
vt 1.379924 0.153717
vt 1.010878 0.153694
vt 0.384142 0.877703
vt 0.615858 0.877703
vt 1.590767 -0.388698
vt 1.959804 -0.388815
vt 1.380815 0.280878
vt 1.011773 0.280943
vt 0.448005 0.994082
vt 0.551995 0.994082
vt 1.590133 -0.659353
vt 1.959171 -0.659441
vt 1.381935 0.551504
vt 1.012897 0.551597
g base
usemtl Default
f 32/1/32 30/2/30 1/3/1 2/4/2 
f 31/5/31 33/6/33 9/7/9 
f 35/8/35 32/1/32 2/4/2 3/9/3 
f 33/6/33 34/10/34 9/7/9 
f 98/11/98 101/12/101 104/13/104 106/14/106 
f 34/10/34 36/15/36 9/7/9 
f 38/16/38 37/17/37 4/18/4 5/19/5 
f 36/15/36 39/20/39 9/7/9 
f 40/21/40 38/16/38 5/19/5 6/22/6 
f 39/20/39 41/23/41 9/7/9 
f 42/24/42 40/21/40 6/22/6 7/25/7 
f 41/23/41 43/26/43 9/7/9 
f 44/27/44 42/24/42 7/25/7 8/28/8 
f 43/26/43 45/29/45 9/7/9 
f 30/2/30 44/27/44 8/28/8 1/3/1 
f 45/29/45 31/5/31 9/7/9 
f 36/15/36 34/10/34 47/30/47 46/31/46 
f 35/8/35 3/9/3 108/32/108 114/33/114 
f 4/18/4 37/17/37 112/34/112 110/35/110 
f 46/31/46 47/30/47 51/36/51 49/37/49 
f 115/38/115 109/39/109 10/40/10 50/41/50 
f 111/42/111 113/43/113 48/44/48 11/45/11 
f 49/37/49 51/36/51 55/46/55 53/47/53 
f 50/41/50 10/40/10 12/48/12 54/49/54 
f 11/45/11 48/44/48 52/50/52 13/51/13 
f 53/47/53 55/46/55 59/52/59 57/53/57 
f 54/49/54 12/48/12 14/54/14 58/55/58 
f 13/51/13 52/50/52 56/56/56 15/57/15 
f 57/53/57 59/52/59 62/58/62 60/59/60 
f 58/55/58 14/54/14 16/60/16 63/61/63 
f 15/57/15 56/56/56 61/62/61 17/63/17 
f 60/59/60 62/58/62 67/64/67 64/65/64 
f 63/61/63 16/60/16 70/66/70 68/67/68 
f 17/63/17 61/62/61 65/68/65 72/69/72 
f 64/65/64 67/64/67 77/70/77 75/71/75 
f 69/72/69 71/73/71 18/74/18 76/75/76 
f 73/76/73 66/77/66 74/78/74 19/79/19 
f 75/71/75 77/70/77 81/80/81 79/81/79 
f 76/75/76 18/74/18 20/82/20 80/83/80 
f 19/79/19 74/78/74 78/84/78 21/85/21 
f 79/81/79 81/80/81 85/86/85 83/87/83 
f 80/83/80 20/82/20 22/88/22 84/89/84 
f 21/85/21 78/84/78 82/90/82 23/91/23 
f 83/87/83 85/86/85 89/92/89 87/93/87 
f 84/89/84 22/88/22 24/94/24 88/95/88 
f 23/91/23 82/90/82 86/96/86 25/97/25 
f 87/93/87 89/92/89 93/98/93 91/99/91 
f 88/95/88 24/94/24 26/100/26 92/101/92 
f 25/97/25 86/96/86 90/102/90 27/103/27 
f 91/99/91 93/98/93 96/104/96 94/105/94 
f 92/101/92 26/100/26 28/106/28 97/107/97 
f 27/103/27 90/102/90 95/108/95 29/109/29 
f 94/105/94 96/104/96 102/110/102 99/111/99 
f 97/107/97 28/106/28 105/112/105 103/113/103 
f 29/109/29 95/108/95 100/114/100 107/115/107 
