# rusted dreams obj exporter
mtllib model.mtl
g base
usemtl mat_base
v 2.0741 4.34631 1.11827
v 2.0741 4.34631 -1.11827
v -0.355561 6.72616 1.23471
v -0.355561 6.72616 -1.23471
v -0.509724 6.62505 1.19875
v -0.509724 6.62505 -1.19875
v 1.19416 4.58737 1.11827
v 1.19416 4.58737 -1.11827
v 0.081124 4.73481 1.19875
v 0.081124 4.73481 -1.19875
v 2.05514 4.49587 1.11827
v 2.05514 4.49587 -1.11827
v 0.330119 4.53253 1.52242
v 0.330119 4.53253 -1.52242
v -2.31662 2.8208 1.27713
v -2.31662 2.8208 -1.27713
v -2.31662 6.62835 1.27713
v -2.31662 6.62835 -1.27713
v -2.31662 0.295933 1.27713
v -2.31662 0.295933 -1.27713
v -2.31662 4.43086 1.27713
v -2.31662 4.43086 -1.27713
v -2.4689 2.8208 1.27713
v -2.4689 2.8208 -1.27713
v -2.4689 6.93313 1.52242
v -2.4689 6.93313 -1.52242
v -2.4689 2.77364 1.52242
v -2.4689 2.77364 -1.52242
v -2.4689 6.62835 1.27713
v -2.4689 6.62835 -1.27713
v -2.4689 4.53253 1.52242
v -2.4689 4.53253 -1.52242
v -2.4689 0.295933 1.27713
v -2.4689 0.295933 -1.27713
v -2.4689 -0.008855 1.52242
v -2.4689 -0.008855 -1.52242
v -2.4689 4.43086 1.27713
v -2.4689 4.43086 -1.27713
v 1.12774 4.4385 1.11827
v 1.12774 4.4385 -1.11827
v -0.420255 6.93313 1.52242
v -0.420255 6.93313 -1.52242
v 0.265425 4.7395 1.23471
v 0.265425 4.7395 -1.23471
v 0.575926 2.77364 1.52242
v 0.575926 2.77364 -1.52242
v 0.575926 -0.008855 1.52242
v 0.575926 -0.008855 -1.52242
v 2.3396 4.34108 1.52242
v 2.3396 4.34108 -1.52242
v 2.3396 3.80486 1.52242
v 2.3396 3.80486 -1.52242
vt 0.725525 0.81138
vt 0.725525 0.680292
vt 0.725525 0.474722
vt 0.725525 0.990295
vt 0.984833 0.685941
vt 0.739197 0.801736
vt 0.739197 0.465077
vt 0.739197 0.670648
vt 0.739197 0.980651
vt 0.966782 0.619519
vt 0.054575 0.08531
vt 0.054575 0.496663
vt 0.263985 0.095069
vt 0.263985 0.660273
vt 0.263985 0.321615
vt 0.263985 0.46482
vt 0.743409 0.009705
vt 0.743409 0.236251
vt 0.78769 0.966669
vt 0.202557 0.110356
vt 0.202557 0.471618
vt 0.502092 0.923743
vt 0.502092 0.675838
vt 0.509173 0.095069
vt 0.509173 0.321615
vt 0.972827 0.742242
vt 0.962741 0.634256
vt 0.799823 0.611652
vt 0.827121 0.750011
vt 0.791797 0.660297
vt 0.823627 0.574909
vt 0.763203 0.379456
vt 0.23483 0.98436
vt 0.23483 0.961443
vt 0.23483 0.971961
vt 0.23483 0.949044
vt 0.950047 0.750107
vt 0.519841 0.81138
vt 0.519841 0.680292
vt 0.519841 0.474722
vt 0.519841 0.990295
vt 0.803899 0.596924
vt 0.254893 0.379456
vt 0.254893 0.574909
vt 0.254893 0.009705
vt 0.254893 0.236251
vt 0.788885 0.670815
vt 0.788885 0.64529
vt 0.990225 0.966728
vt 0.972769 0.943299
vt 0.777777 0.9809
vt 0.777777 0.465328
vt 0.777777 0.801985
vt 0.777777 0.670898
vt 0.987738 0.670932
vt 0.987738 0.645064
vt 0.062703 0.110356
vt 0.062703 0.471618
vt 0.799171 0.619823
vt 0.255314 0.766777
vt 0.010126 0.766654
vt 0.601388 0.363869
vt 0.601388 0.32021
vt 0.226908 0.110356
vt 0.226908 0.471618
vt 0.791772 0.685827
vt 0.010044 0.755664
vt 0.010044 0.932992
vt 0.010044 0.588867
vt 0.029146 0.98436
vt 0.029146 0.961443
vt 0.029146 0.971961
vt 0.029146 0.949044
vt 0.805216 0.742193
vt 0.651194 0.405574
vt 0.651194 0.449233
vt 0.984858 0.660077
vt 0.963374 0.597012
vt 0.75146 0.801736
vt 0.75146 0.465077
vt 0.75146 0.670648
vt 0.75146 0.980651
vt 0.988597 0.379456
vt 0.988597 0.574909
vt 0.988597 0.009705
vt 0.988597 0.236251
vt 0.787761 0.718764
vt 0.009705 0.379456
vt 0.009705 0.574909
vt 0.009705 0.009705
vt 0.009705 0.236251
vt 0.765514 0.9809
vt 0.765514 0.465328
vt 0.765514 0.801985
vt 0.765514 0.670898
vt 0.967434 0.611744
vt 0.036371 0.110356
vt 0.036371 0.471618
vt 0.255232 0.755664
vt 0.255232 0.933116
vt 0.255232 0.588867
vt 0.803265 0.634546
vt 0.235141 0.24009
vt 0.235141 0.371179
vt 0.235141 0.03452
vt 0.235141 0.550094
vt 0.029457 0.24009
vt 0.029457 0.371179
vt 0.029457 0.03452
vt 0.029457 0.550094
vt 0.265738 0.989505
vt 0.265738 0.945846
vt 0.278029 0.923743
vt 0.278029 0.675838
vt 0.826978 0.937485
vt 0.208156 0.495317
vt 0.208156 0.086656
vt 0.428954 0.660273
vt 0.489379 0.46482
vt 0.805159 0.94325
vt 0.949904 0.937581
vt 0.990295 0.718823
vt 0.510925 0.989505
vt 0.510925 0.945846
vn 0 0 1
vn 0 0 -1
vn 0 1 0
vn 0 -1 0
vn 1 0 0
vn -1 0 0
vn 0.094841 0.995492 0
vn 0.189728 0.059305 0.980044
vn 0.504749 -0.863266 0
vn 0.189729 0.059305 -0.980044
vn -0.913213 0.407483 0
vn 0.992057 0.125791 0
vn 0.95446 0.298339 -2e-06
vn -0.02544 0.999676 0
vn 0.105682 0.9944 0
vn 0.548416 -0.836205 0
s 4294967295
f 11/20/15 12/21/15 8/58/15 7/57/15
f 1/64/12 2/65/12 12/21/12 11/20/12
f 11/20/1 7/57/1 39/11/1 1/117/1
f 7/57/11 8/58/11 40/98/11 39/97/11
f 40/12/2 8/58/2 12/21/2 2/116/2
f 46/18/2 48/17/2 36/85/2 28/86/2
f 47/24/1 45/25/1 27/15/1 35/13/1
f 45/114/5 47/23/5 48/22/5 46/113/5
f 25/67/3 41/69/3 42/101/3 26/99/3
f 19/3/6 15/2/6 16/39/6 20/40/6
f 45/100/9 46/68/9 52/61/9 51/60/9
f 46/18/2 28/86/2 32/83/2 14/32/2
f 16/39/6 15/2/6 21/1/6 22/38/6
f 51/75/1 49/76/1 13/119/1 45/25/1
f 51/112/5 52/124/5 50/123/5 49/111/5
f 13/119/1 31/16/1 27/15/1 45/25/1
f 49/115/7 50/29/7 14/37/7 13/121/7
f 14/32/2 50/62/2 52/63/2 46/18/2
f 31/16/1 13/119/1 41/118/1 25/14/1
f 14/32/2 32/83/2 26/84/2 42/31/2
f 22/38/6 21/1/6 17/4/6 18/41/6
f 13/122/13 14/49/13 44/50/13 43/26/13
f 14/49/13 42/19/13 4/120/13 44/50/13
f 42/19/13 41/87/13 3/74/13 4/120/13
f 41/87/13 13/122/13 43/26/13 3/74/13
f 43/48/14 44/56/14 10/77/14 9/30/14
f 44/59/8 4/10/8 6/27/8 10/102/8
f 4/47/16 3/55/16 5/5/16 6/66/16
f 3/96/10 43/28/10 9/42/10 5/78/10
f 35/45/6 27/46/6 23/103/6 33/105/6
f 28/91/6 36/90/6 34/109/6 24/107/6
f 36/90/6 35/45/6 33/105/6 34/109/6
f 28/91/6 24/107/6 38/108/6 32/88/6
f 27/46/6 31/43/6 37/104/6 23/103/6
f 31/43/6 25/44/6 29/106/6 37/104/6
f 25/44/6 26/89/6 30/110/6 29/106/6
f 26/89/6 32/88/6 38/108/6 30/110/6
f 33/52/2 23/54/2 15/95/2 19/93/2
f 24/8/1 34/7/1 20/80/1 16/81/1
f 34/34/3 33/71/3 19/73/3 20/36/3
f 23/54/2 37/53/2 21/94/2 15/95/2
f 38/6/1 24/8/1 16/81/1 22/79/1
f 37/53/2 29/51/2 17/92/2 21/94/2
f 29/33/4 30/70/4 18/72/4 17/35/4
f 30/9/1 38/6/1 22/79/1 18/82/1
g screen
usemtl mat_no_ao
v -0.238904 6.14198 0.54277
v -0.238904 6.14198 -0.54277
v -0.509724 6.62505 1.19875
v -0.509724 6.62505 -1.19875
v 0.081124 4.73481 1.19875
v 0.081124 4.73481 -1.19875
v 0.028619 5.28612 0.54277
v 0.028619 5.28612 -0.54277
v -0.383671 6.43672 0.935609
v -0.383671 6.43672 -0.935609
v -0.076589 5.72689 0.064898
v -0.076589 5.72689 -0.064898
v 0.077476 4.96141 0.935609
v 0.077476 4.96141 -0.935609
vt 0 0
vt 1 0
vt 0.274659 0.723866
vt 0.526842 0.501867
vt 0.888583 0.888161
vt 0.000203 1
vt 0.724831 0.72455
vt 0.111211 0.111833
vt 0.99972 1
vt 0.110988 0.887695
vt 0.725383 0.27615
vt 0.889143 0.112312
vt 0.275054 0.275432
vt 0.473121 0.501867
vn 0.968461 0.244478 0.048105
vn 0.968461 0.244478 -0.048105
vn 0.980441 0.155653 -0.120445
vn 0.980441 0.155653 0.120447
vn 0.95412 0.298637 0.02168
vn 0.95412 0.298637 -0.02168
vn 0.894551 0.430431 -0.120445
vn 0.894551 0.430431 0.120447
vn 0.977471 0.189957 -0.092011
vn 0.977471 0.189956 0.092012
vn 0.935191 0.350861 0.048105
vn 0.935191 0.350861 -0.048105
vn 0.911647 0.400541 0.092012
vn 0.911647 0.400541 -0.092012
s 4294967295
f 57/125/20 58/126/19 66/136/25 65/132/26
f 58/126/19 56/133/23 62/129/30 66/136/25
f 56/133/23 55/130/24 61/134/29 62/129/30
f 55/130/24 57/125/20 65/132/26 61/134/29
f 65/132/26 66/136/25 60/135/18 59/137/17
f 66/136/25 62/129/30 54/131/28 60/135/18
f 62/129/30 61/134/29 53/127/27 54/131/28
f 61/134/29 65/132/26 59/137/17 53/127/27
f 59/137/17 60/135/18 64/128/22 63/138/21
f 60/135/18 54/131/28 64/128/22
f 54/131/28 53/127/27 63/138/21 64/128/22
f 53/127/27 59/137/17 63/138/21
