o tris.obj
v 4.062500 36.968750 3.312500
v 4.671875 36.968750 1.468750
v 2.078125 36.968750 3.359375
v 0.437500 0.000000 0.156250
v -5.984375 18.875000 1.421875
v -4.578125 18.875000 -3.500000
v 5.984375 18.875000 -0.953125
v 5.093750 18.875000 3.640625
v 2.359375 18.875000 5.984375
v 3.406250 18.875000 -4.859375
v -2.781250 18.875000 5.421875
v -0.015625 18.875000 -5.984375
v 3.406250 26.078123 -4.859375
v 5.984375 26.078123 -0.953125
v 5.093750 26.078123 3.640625
v 2.359375 26.078123 5.984375
v -2.781250 26.078123 5.421875
v -5.984375 26.078123 1.421875
v -4.578125 26.078123 -3.500000
v -0.015625 26.078123 -5.984375
v 2.453125 28.843748 -3.312500
v 4.250000 28.843748 -0.625000
v 3.640625 28.843748 2.546875
v 1.750000 28.843748 4.156250
v -1.796875 28.843748 3.781250
v -4.015625 28.843748 1.000000
v -3.031250 28.843748 -2.359375
v 0.109375 28.843748 -4.109375
v 0.531250 29.453123 -1.609375
v 1.937500 29.453123 -0.156250
v 1.328125 29.453123 1.609375
v -0.625000 29.453123 1.703125
v -1.375000 29.453123 -0.156250
v 1.937500 32.828125 -0.156250
v 0.531250 32.984375 -1.609375
v 1.328125 32.828125 1.609375
v -0.625000 32.828125 1.703125
v -1.375000 32.828125 -0.156250
v -3.546875 39.125000 2.687500
v -0.953125 39.125000 0.812500
v -4.250000 39.125000 0.812500
v 0.250000 37.750000 -3.265625
v 3.546875 37.750000 -3.265625
v 2.125000 37.750000 -4.718750
vn 0.554315 0.003094 0.832301
vn 0.931976 0.336569 -0.134692
vn -0.522566 0.797617 0.301217
vn 0.192298 -0.980674 -0.036066
vn -0.945883 -0.133020 0.295991
vn -0.824050 -0.126466 -0.552221
vn 0.954959 -0.116031 -0.273113
vn 0.891637 -0.118331 0.437015
vn 0.374986 -0.125236 0.918532
vn 0.546118 -0.118548 -0.829277
vn -0.402532 -0.125782 0.906723
vn -0.175981 -0.125629 -0.976344
vn 0.590513 0.289267 -0.753405
vn 0.938036 0.322747 -0.126188
vn 0.767050 0.289158 0.572733
vn 0.148653 0.299440 0.942464
vn -0.569020 0.300347 0.765512
vn -0.964141 0.251331 0.085232
vn -0.735655 0.302855 -0.605880
vn -0.076710 0.298253 -0.951399
vn 0.436162 0.768523 -0.468119
vn 0.450717 0.887799 -0.093099
vn 0.581588 0.768368 0.267144
vn 0.254201 0.784980 0.564967
vn -0.204861 0.859472 0.468338
vn -0.626002 0.770596 0.119598
vn -0.438881 0.783604 -0.439715
vn -0.011007 0.832634 -0.553714
vn 0.102295 0.711255 -0.695451
vn 0.849466 0.525964 -0.042067
vn 0.299565 0.868545 0.394831
vn -0.483271 0.453481 0.748869
vn -0.457587 0.881345 -0.117663
vn 0.876384 0.356768 -0.323523
vn 0.024965 -0.381939 -0.923850
vn 0.552331 -0.308703 0.774359
vn -0.266605 0.008040 0.963772
vn -0.928741 -0.058745 -0.366046
vn -0.595638 0.146949 0.789697
vn 0.579049 0.793697 -0.186405
vn -0.651037 0.554256 -0.518605
vn -0.612750 0.785295 0.088595
vn 0.911306 0.315737 -0.264255
vn 0.001397 0.099031 -0.995083
vt 0.720072 0.967624
vt 0.676083 0.909810
vt 0.231670 0.458839
vt 0.132982 0.458896
vt 0.735354 0.464649
vt 0.627349 0.464702
vt 0.734940 0.031998
vt 0.544224 0.464742
vt 0.843382 0.464597
vt 0.430166 0.458723
vt 0.330467 0.458781
vt 0.231219 0.024107
vt 0.032825 0.458955
vt 0.926523 0.464556
vt 0.843479 0.603182
vt 0.735450 0.603234
vt 0.627446 0.603287
vt 0.544321 0.603327
vt 0.430247 0.597595
vt 0.330547 0.597653
vt 0.231751 0.597711
vt 0.133063 0.597768
vt 0.032906 0.597827
vt 0.926620 0.603141
vt 0.825841 0.665126
vt 0.751223 0.664973
vt 0.645889 0.665087
vt 0.720439 0.665105
vt 0.561147 0.666644
vt 0.618454 0.666528
vt 0.346009 0.660618
vt 0.414772 0.660712
vt 0.249165 0.661324
vt 0.317757 0.661215
vt 0.213540 0.661100
vt 0.146050 0.661387
vt 0.117424 0.660787
vt 0.048110 0.660471
vt 0.910406 0.666036
vt 0.853269 0.666322
vt 0.817670 0.715445
vt 0.771716 0.708636
vt 0.657052 0.713623
vt 0.699759 0.708707
vt 0.591965 0.710741
vt 0.401453 0.710087
vt 0.364174 0.704478
vt 0.263574 0.716270
vt 0.300703 0.705518
vt 0.178020 0.705429
vt 0.109960 0.714695
vt 0.064222 0.708092
vt 0.882933 0.710672
vt 0.158419 0.735171
vt 0.152967 0.798705
vt 0.199588 0.817419
vt 0.692358 0.735991
vt 0.738144 0.732347
vt 0.692904 0.827089
vt 0.644767 0.734080
vt 0.641468 0.816223
vt 0.700870 0.733559
vt 0.745563 0.732074
vt 0.703369 0.808793
vt 0.201572 0.729948
vt 0.254099 0.728003
vt 0.731944 0.904471
vt 0.172799 0.900094
vt 0.164536 0.961967
vt 0.742076 0.815633
vt 0.807934 0.784076
vt 0.835551 0.918855
vt 0.768605 0.950805
vt 0.670955 0.949770
vt 0.119279 0.942175
vt 0.256837 0.801964
vt 0.172086 0.819771
vt 0.218852 0.942671
vt 0.133776 0.960286
vt 0.635792 0.780884
vt 0.637327 0.936915
vt 0.704585 0.964683
vt 0.748062 0.807308
vt 0.811929 0.779140
vt 0.813793 0.935167
vt 0.749238 0.963680
g carrot
f 1/1/1 2/73/2 3/2/3 
f 4/12/4 5/3/5 6/4/6 
f 7/5/7 8/6/8 4/7/4 
f 4/7/4 8/6/8 9/8/9 
f 7/5/7 4/7/4 10/9/10 
f 9/10/9 11/11/11 4/12/4 
f 4/12/4 11/11/11 5/3/5 
f 4/12/4 6/4/6 12/13/12 
f 10/9/10 4/7/4 12/14/12 
f 7/5/7 10/9/10 13/15/13 
f 7/5/7 13/15/13 14/16/14 
f 8/6/8 7/5/7 14/16/14 
f 8/6/8 14/16/14 15/17/15 
f 9/8/9 8/6/8 15/17/15 
f 9/8/9 15/17/15 16/18/16 
f 11/11/11 9/10/9 16/19/16 
f 11/11/11 16/19/16 17/20/17 
f 5/3/5 11/11/11 17/20/17 
f 5/3/5 17/20/17 18/21/18 
f 6/4/6 5/3/5 18/21/18 
f 6/4/6 18/21/18 19/22/19 
f 12/13/12 6/4/6 19/22/19 
f 12/13/12 19/22/19 20/23/20 
f 10/9/10 12/14/12 20/24/20 
f 10/9/10 20/24/20 13/15/13 
f 14/16/14 13/15/13 21/25/21 
f 14/16/14 21/25/21 22/26/22 
f 15/17/15 14/16/14 23/27/23 
f 14/16/14 22/28/22 23/27/23 
f 16/18/16 15/17/15 24/29/24 
f 15/17/15 23/30/23 24/29/24 
f 17/20/17 16/19/16 25/31/25 
f 16/19/16 24/32/24 25/31/25 
f 18/21/18 17/20/17 26/33/26 
f 17/20/17 25/34/25 26/33/26 
f 19/22/19 18/21/18 26/35/26 
f 19/22/19 26/35/26 27/36/27 
f 20/23/20 19/22/19 27/37/27 
f 20/23/20 27/37/27 28/38/28 
f 13/15/13 20/24/20 28/39/28 
f 13/15/13 28/39/28 21/40/21 
f 22/26/22 21/25/21 29/41/29 
f 22/26/22 29/41/29 30/42/30 
f 23/27/23 22/28/22 31/43/31 
f 22/28/22 30/44/30 31/43/31 
f 24/29/24 23/30/23 31/45/31 
f 25/31/25 24/32/24 31/46/31 
f 25/31/25 31/46/31 32/47/32 
f 26/33/26 25/34/25 33/48/33 
f 25/34/25 32/49/32 33/48/33 
f 27/36/27 26/35/26 33/50/33 
f 28/38/28 27/37/27 33/51/33 
f 28/38/28 33/51/33 29/52/29 
f 21/40/21 28/39/28 29/53/29 
f 30/54/30 29/65/29 34/55/34 
f 29/65/29 35/56/35 34/55/34 
f 31/57/31 30/58/30 36/59/36 
f 30/58/30 34/70/34 36/59/36 
f 32/60/32 31/57/31 36/59/36 
f 32/60/32 36/59/36 37/61/37 
f 33/62/33 32/63/32 38/64/38 
f 32/63/32 37/83/37 38/64/38 
f 29/65/29 33/66/33 38/76/38 
f 29/65/29 38/76/38 35/56/35 
f 39/86/39 40/67/40 41/82/41 
f 42/68/42 43/75/43 44/69/44 
f 34/70/34 37/71/37 3/72/3 
f 34/70/34 3/72/3 2/73/2 
f 36/59/36 34/70/34 2/73/2 
f 36/59/36 2/73/2 1/1/1 
f 37/61/37 36/59/36 3/74/3 
f 36/59/36 1/1/1 3/74/3 
f 34/55/34 35/56/35 43/75/43 
f 35/56/35 44/69/44 43/75/43 
f 38/76/38 34/77/34 42/78/42 
f 34/77/34 43/79/43 42/78/42 
f 35/56/35 38/76/38 42/78/42 
f 35/56/35 42/78/42 44/69/44 
f 34/80/34 38/64/38 40/81/40 
f 38/64/38 41/82/41 40/81/40 
f 37/83/37 34/84/34 40/85/40 
f 37/83/37 40/85/40 39/86/39 
f 38/64/38 37/83/37 39/86/39 
f 38/64/38 39/86/39 41/82/41 
