# rusted dreams obj exporter
mtllib model.mtl
g base
usemtl mat_base
v 0.230477 0 1.4687
v 0.230477 0 -1.4687
v 0.230477 0 1.62572
v 0.230477 0 -1.62572
v 0.230477 0.055515 1.49169
v 0.230477 0.055515 -1.49169
v 0.230477 0.055515 1.60272
v 0.230477 0.055515 -1.60272
v 0.230477 -0.055515 1.49169
v 0.230477 -0.055515 -1.49169
v 0.230477 -0.055515 1.60272
v 0.230477 -0.055515 -1.60272
v 0.230477 0.07851 1.5472
v 0.230477 0.07851 -1.5472
v 0.230477 -0.07851 1.5472
v 0.230477 -0.07851 -1.5472
v 0.269785 0 1.63074
v 0.269785 0 -1.63074
v 0.269785 0 1.46367
v 0.269785 0 -1.46367
v 0.269785 0.059067 1.60627
v 0.269785 0.059067 -1.60627
v 0.269785 0.059067 1.48814
v 0.269785 0.059067 -1.48814
v 0.269785 -0.059067 1.60627
v 0.269785 -0.059067 -1.60627
v 0.269785 -0.059067 1.48814
v 0.269785 -0.059067 -1.48814
v 0.269785 0.083533 1.5472
v 0.269785 0.083533 -1.5472
v 0.269785 -0.083533 1.5472
v 0.269785 -0.083533 -1.5472
v 0.166299 1.66227 1.73039
v 0.166299 1.66227 -1.73039
v 0.166299 -1.66227 1.73039
v 0.166299 -1.66227 -1.73039
v 0.166299 1.73039 1.66227
v 0.166299 1.73039 -1.66227
v 0.166299 -1.73039 1.66227
v 0.166299 -1.73039 -1.66227
v 0.05032 -1.2034 1.46906
v 0.05032 -1.2034 -1.46906
v 0.05032 0.487458 1.46906
v 0.05032 0.487458 -1.46906
v 0.05032 0.205548 1.46906
v 0.05032 0.205548 -1.46906
v 0.05032 -0.076302 1.46906
v 0.05032 -0.076302 -1.46906
v 0.05032 -0.639271 1.46906
v 0.05032 -0.639271 -1.46906
v 0.05032 1.05064 1.46906
v 0.05032 1.05064 -1.46906
v 0.05032 -0.357936 1.46906
v 0.05032 -0.357936 -1.46906
v 0.05032 -0.921393 1.46906
v 0.05032 -0.921393 -1.46906
v 0.05032 0.769005 1.46906
v 0.05032 0.769005 -1.46906
v 0.05032 1.33285 1.46906
v 0.05032 1.33285 -1.46906
v -0.925573 1.41554 1.41554
v -0.925573 1.41554 -1.41554
v -0.925573 -1.41554 1.41554
v -0.925573 -1.41554 -1.41554
v 0.222036 -1.30243 1.46906
v 0.222036 -1.30243 -1.46906
v 0.222036 -1.02042 1.46906
v 0.222036 -1.02042 -1.46906
v 0.222036 0.388429 1.46906
v 0.222036 0.388429 -1.46906
v 0.222036 -0.175332 1.46906
v 0.222036 -0.175332 -1.46906
v 0.222036 -0.738301 1.46906
v 0.222036 -0.738301 -1.46906
v 0.222036 -0.456966 1.46906
v 0.222036 -0.456966 -1.46906
v 0.222036 0.669976 1.46906
v 0.222036 0.669976 -1.46906
v 0.222036 0.106519 1.46906
v 0.222036 0.106519 -1.46906
v 0.222036 0.951609 1.46906
v 0.222036 0.951609 -1.46906
v 0.222036 1.23382 1.46906
v 0.222036 1.23382 -1.46906
v 0.234419 1.66227 1.66227
v 0.234419 1.66227 -1.66227
v 0.234419 -1.66227 1.66227
v 0.234419 -1.66227 -1.66227
v 0.234419 1.41554 1.41554
v 0.234419 1.41554 -1.41554
v 0.234419 -1.41554 1.41554
v 0.234419 -1.41554 -1.41554
v 0.18899 -1.05478 1.46906
v 0.18899 -1.05478 -1.46906
v 0.18899 0.354073 1.46906
v 0.18899 0.354073 -1.46906
v 0.18899 0.917254 1.46906
v 0.18899 0.917254 -1.46906
v 0.18899 -0.209687 1.46906
v 0.18899 -0.209687 -1.46906
v 0.18899 0.072163 1.46906
v 0.18899 0.072163 -1.46906
v 0.18899 -0.491321 1.46906
v 0.18899 -0.491321 -1.46906
v 0.18899 -1.33678 1.46906
v 0.18899 -1.33678 -1.46906
v 0.18899 -0.772656 1.46906
v 0.18899 -0.772656 -1.46906
v 0.18899 1.19946 1.46906
v 0.18899 1.19946 -1.46906
v 0.18899 0.63562 1.46906
v 0.18899 0.63562 -1.46906
v 0.303853 0 1.60251
v 0.303853 0 -1.60251
v 0.303853 0 1.4919
v 0.303853 0 -1.4919
v 0.303853 0.055305 1.5472
v 0.303853 0.055305 -1.5472
v 0.303853 -0.055305 1.5472
v 0.303853 -0.055305 -1.5472
v 0.303853 0.039107 1.58631
v 0.303853 0.039107 -1.58631
v 0.303853 0.039107 1.5081
v 0.303853 0.039107 -1.5081
v 0.303853 -0.039107 1.58631
v 0.303853 -0.039107 -1.58631
v 0.303853 -0.039107 1.5081
v 0.303853 -0.039107 -1.5081
v 0.314985 0 1.5472
v 0.314985 0 -1.5472
v 0.083366 0.803361 1.46906
v 0.083366 0.803361 -1.46906
v 0.083366 -1.16904 1.46906
v 0.083366 -1.16904 -1.46906
v 0.083366 -0.32358 1.46906
v 0.083366 -0.32358 -1.46906
v 0.083366 1.085 1.46906
v 0.083366 1.085 -1.46906
v 0.083366 0.239904 1.46906
v 0.083366 0.239904 -1.46906
v 0.083366 1.3672 1.46906
v 0.083366 1.3672 -1.46906
v 0.083366 -0.041946 1.46906
v 0.083366 -0.041946 -1.46906
v 0.083366 0.521814 1.46906
v 0.083366 0.521814 -1.46906
v 0.083366 -0.604916 1.46906
v 0.083366 -0.604916 -1.46906
v 0.083366 -0.887037 1.46906
v 0.083366 -0.887037 -1.46906
v -0.027523 1.66227 1.73039
v -0.027523 1.66227 -1.73039
v -0.027523 -1.66227 1.73039
v -0.027523 -1.66227 -1.73039
v -0.027523 1.73039 1.66227
v -0.027523 1.73039 -1.66227
v -0.027523 -1.73039 1.66227
v -0.027523 -1.73039 -1.66227
vt 0.309067 0.53591
vt 0.309067 0.144641
vt 0.177807 0.53591
vt 0.177807 0.144641
vt 0.282265 0.852898
vt 0.282265 0.54057
vt 0.791001 0.803873
vt 0.811631 0.144641
vt 0.746705 0.823317
vt 0.674119 0.53591
vt 0.674119 0.144641
vt 0.469193 0.53591
vt 0.469193 0.144641
vt 0.747285 0.578377
vt 0.817979 0.144641
vt 0.414887 0.852898
vt 0.414887 0.54057
vt 0.812135 0.625487
vt 0.777635 0.75858
vt 0.336312 0.53591
vt 0.680467 0.53591
vt 0.680467 0.144641
vt 0.557176 0.53591
vt 0.557176 0.144641
vt 0.176186 0.53591
vt 0.176186 0.144641
vt 0.281823 0.53591
vt 0.281823 0.144641
vt 0.513994 0.53591
vt 0.811632 0.53591
vt 0.943697 0.919205
vt 0.943697 0.080795
vt 0.520342 0.53591
vt 0.81798 0.53591
vt 0.820513 0.744403
vt 0.820513 0.809032
vt 0.441949 0.53591
vt 0.441949 0.144641
vt 0.76845 0.144641
vt 0.007571 0.92248
vt 0.007571 0.07752
vt 0.774798 0.53591
vt 0.774798 0.144641
vt 0.408357 0.53591
vt 0.408357 0.144641
vt 0.853091 0.625567
vt 0.513995 0.144641
vt 0.150563 0.53591
vt 0.150563 0.144641
vt 0.791934 0.830279
vt 0.791934 0.723158
vt 0.520343 0.144641
vt 0.792453 0.705479
vt 0.619632 0.53591
vt 0.619632 0.144641
vt 0.768451 0.53591
vt 0.81998 0.657235
vt 0.81998 0.593149
vt 0.414705 0.53591
vt 0.414705 0.144641
vt 0.80582 0.643177
vt 0.8064 0.60762
vt 0.725269 0.53591
vt 0.725269 0.144641
vt 0.763355 0.809032
vt 0.791416 0.847959
vt 0.240262 0.53591
vt 0.381113 0.53591
vt 0.381113 0.144641
vt 0.731617 0.53591
vt 0.731617 0.144641
vt 0.791935 0.776716
vt 0.836491 0.578983
vt 0.763356 0.744403
vt 0.790715 0.652118
vt 0.791127 0.695833
vt 0.8196 0.53591
vt 0.8196 0.144641
vt 0.25458 0.53591
vt 0.25458 0.144641
vt 0.837163 0.730117
vt 0.582799 0.53591
vt 0.582799 0.144641
vt 0.143163 0.859408
vt 0.682088 0.53591
vt 0.682088 0.144641
vt 0.85732 0.143117
vt 0.498057 0.53591
vt 0.498057 0.144641
vt 0.080712 0.946154
vt 0.080712 0.053846
vt 0.24661 0.53591
vt 0.806234 0.794855
vt 0.919653 0.918978
vt 0.919653 0.081022
vt 0.143209 0.140606
vt 0.776419 0.53591
vt 0.776419 0.144641
vt 0.792868 0.749563
vt 0.470813 0.53591
vt 0.470813 0.144641
vt 0.277736 0.852898
vt 0.277736 0.54057
vt 0.337932 0.53591
vt 0.337932 0.144641
vt 0.733237 0.53591
vt 0.733237 0.144641
vt 0.831107 0.625194
vt 0.645255 0.53591
vt 0.645255 0.144641
vt 0.521964 0.53591
vt 0.521964 0.144641
vt 0.35387 0.53591
vt 0.35387 0.144641
vt 0.528312 0.53591
vt 0.528312 0.144641
vt 0.845222 0.53591
vt 0.845222 0.144641
vt 0.080615 0.004951
vt 0.080615 0.995049
vt 0.310688 0.53591
vt 0.310688 0.144641
vt 0.240263 0.144641
vt 0.853905 0.777091
vt 0.248232 0.53591
vt 0.248232 0.144641
vt 0.752175 0.625194
vt 0.707711 0.53591
vt 0.707711 0.144641
vt 0.919976 0.943045
vt 0.919976 0.056955
vt 0.58442 0.53591
vt 0.58442 0.144641
vt 0.283444 0.53591
vt 0.283444 0.144641
vt 0.590768 0.53591
vt 0.590768 0.144641
vt 0.238642 0.53591
vt 0.238642 0.144641
vt 0.857339 0.85687
vt 0.410237 0.852898
vt 0.410237 0.54057
vt 0.831735 0.776715
vt 0.246611 0.144641
vt 0.344281 0.53591
vt 0.344281 0.144641
vt 0.44357 0.53591
vt 0.44357 0.144641
vt 0.802042 0.53591
vt 0.802042 0.144641
vt 0.529932 0.144641
vt 0.2562 0.53591
vt 0.2562 0.144641
vt 0.75886 0.144641
vt 0.213019 0.53591
vt 0.213019 0.144641
vt 0.646876 0.53591
vt 0.646876 0.144641
vt 0.792155 0.554549
vt 0.792567 0.598265
vt 0.416326 0.53591
vt 0.416326 0.144641
vt 0.812602 0.777012
vt 0.504405 0.53591
vt 0.504405 0.144641
vt 0.529933 0.53591
vt 0.806819 0.758997
vt 0.846843 0.144641
vt 0.758861 0.53591
vt 0.709331 0.53591
vt 0.709331 0.144641
vt 0.211398 0.53591
vt 0.211398 0.144641
vt 0.715679 0.53591
vt 0.715679 0.144641
vt 0.592388 0.144641
vt 0.776882 0.642764
vt 0.836666 0.823929
vt 0.777462 0.607206
vt 0.77705 0.794439
vt 0.771267 0.77642
vt 0.920437 0.008174
vt 0.920437 0.991826
vt 0.727215 0.852898
vt 0.727215 0.54057
vt 0.746792 0.671402
vt 0.763302 0.657235
vt 0.763302 0.593149
vt 0.835995 0.672008
vt 0.846844 0.53591
vt 0.379492 0.53591
vt 0.853192 0.53591
vt 0.853192 0.144641
vt 0.803662 0.53591
vt 0.803662 0.144641
vt 0.730191 0.624821
vt 0.185775 0.53591
vt 0.185775 0.144641
vt 0.592389 0.53591
vt 0.992429 0.91948
vt 0.992429 0.08052
vt 0.747205 0.729505
vt 0.05665 0.077797
vt 0.05665 0.922203
vt 0.406737 0.53591
vt 0.406737 0.144641
vt 0.496436 0.53591
vt 0.496436 0.144641
vt 0.184154 0.53591
vt 0.184154 0.144641
vt 0.810011 0.53591
vt 0.810011 0.144641
vt 0.760481 0.53591
vt 0.760481 0.144641
vt 0.771147 0.624901
vt 0.672499 0.53591
vt 0.672499 0.144641
vt 0.379493 0.144641
vt 0.766829 0.144641
vt 0.555556 0.53591
vt 0.555556 0.144641
vt 0.752135 0.776715
vt 0.506026 0.53591
vt 0.506026 0.144641
vt 0.729964 0.77634
vt 0.345901 0.53591
vt 0.345901 0.144641
vt 0.512374 0.53591
vt 0.512374 0.144641
vt 0.336311 0.144641
vt 0.618011 0.53591
vt 0.618011 0.144641
vt 0.76683 0.53591
vt 0.7173 0.53591
vt 0.7173 0.144641
vt 0.080862 0.921975
vt 0.080862 0.078025
vt 0.352249 0.53591
vt 0.352249 0.144641
vt 0.791641 0.678302
vt 0.791641 0.625194
vt 0.791641 0.57208
vt 0.723648 0.53591
vt 0.723648 0.144641
vt 0.149765 0.852898
vt 0.149765 0.54057
vn 0 0 1
vn 0 0 -1
vn 0 1 0
vn 0 -1 0
vn 0 0.382683 0.92388
vn 0 0.382683 -0.92388
vn 0 -0.382683 0.92388
vn 0 -0.382683 -0.92388
vn 0 0.92388 0.382683
vn 0 0.92388 -0.382683
vn 0 -0.92388 0.382683
vn 0 -0.92388 -0.382683
vn 1 0 0
vn 1 0 1.4e-05
vn 1 0 -1.4e-05
vn 0.693253 0.720694 0
vn -0.693253 -0.720694 0
vn -0.126732 0.70141 0.701401
vn 0.720704 -0.693243 0
vn -0.720704 0.693243 0
vn 0.862428 -2e-06 -0.50618
vn 0.284829 0.958578 -3e-05
vn -0.126824 5e-06 0.991925
vn 0.862414 -0.357942 -0.357939
vn 0.69324 0.720707 0
vn -0.69324 -0.720707 0
vn 0.86243 -1e-06 0.506177
vn 0.693256 0.720692 0
vn 0.862415 -0.357936 0.357943
vn 0.862415 0.506202 2.4e-05
vn 0.284853 0.677845 0.677779
vn 0.693226 0.72072 0
vn -0.693226 -0.72072 0
vn 0.720753 -0.693192 0
vn 0.284838 -0.677847 0.677784
vn -0.126733 0.701366 -0.701444
vn 0.862416 0.5062 -1.7e-05
vn 0.693242 0.720705 0
vn -0.693242 -0.720705 0
vn -0.12684 -0.70136 -0.701431
vn 0.284869 -2e-06 -0.958566
vn -0.126699 1e-06 -0.991941
vn 0.284854 0.677839 -0.677785
vn 0.720755 -0.69319 0
vn -0.720755 0.69319 0
vn 0.284839 0.677797 -0.677833
vn -0.126707 0.701445 0.70137
vn 0.284809 4e-06 0.958584
vn 0.862419 2e-06 0.506196
vn 0.862419 -0.506194 2.4e-05
vn 0.862419 -0.506195 -1.8e-05
vn 0.284832 0.677817 0.677816
vn -0.693245 -0.720702 0
vn -0.126833 -0.701405 0.701388
vn 0.284794 -0.677827 0.677822
vn 0.284794 -0.677809 -0.67784
vn 0.28484 -0.677839 -0.677791
vn 0.367001 0.367001 0.854763
vn 0.367001 0.367001 -0.854763
vn 0.367001 -0.367001 0.854763
vn 0.367001 -0.367001 -0.854763
vn 0.367001 0.854763 0.367001
vn 0.367001 0.854763 -0.367001
vn 0.367001 -0.854763 0.367001
vn 0.367001 -0.854763 -0.367001
vn -0.126734 -0.701432 -0.701379
vn 0.86242 1e-06 -0.506193
vn 0.86242 -0.357947 0.357918
vn 0.284802 4e-06 -0.958586
vn -0.126818 5e-06 -0.991926
vn 0.284871 -1e-06 0.958566
vn 0.862421 0.357948 0.357916
vn 0.284833 -0.958577 -3e-05
vn -0.1267 1e-06 0.991941
vn 0.720652 -0.693297 0
vn 0.910182 0.29289 0.29289
vn 0.910182 0.29289 -0.29289
vn 0.910182 -0.29289 0.29289
vn 0.910182 -0.29289 -0.29289
vn 0.862422 -0.357944 -0.357918
vn -0.126746 0.991935 -3.2e-05
vn 0.720714 -0.693233 0
vn -0.720714 0.693233 0
vn -0.126708 0.701434 -0.701382
vn 0.862423 0.357945 -0.357914
vn -0.12675 -0.991935 3e-05
vn -0.12675 -0.991935 -3.2e-05
vn -0.720654 0.693295 0
vn 0.693234 0.720712 0
vn -0.126735 -0.701443 0.701368
vn 0.284827 0.958579 3.5e-05
vn 0.284835 -0.958577 3.6e-05
vn 0.86241 0.357941 0.357949
vn 0.86241 0.357945 -0.357944
vn -0.126747 0.991935 2.9e-05
vn 0.720703 -0.693244 0
s 4294967295
f 126/93/80 120/163/50 32/143/92 26/36/57
f 130/72/14 120/163/50 126/93/80
f 114/7/21 126/93/80 26/36/57 18/50/41
f 130/72/14 126/93/80 114/7/21
f 122/180/85 114/7/21 18/50/41 22/65/43
f 130/72/14 114/7/21 122/180/85
f 118/181/30 122/180/85 22/65/43 30/222/91
f 130/72/14 122/180/85 118/181/30
f 124/19/93 118/181/30 30/222/91 24/74/52
f 130/72/14 118/181/30 124/19/93
f 116/99/49 124/19/93 24/74/52 20/51/48
f 130/72/14 124/19/93 116/99/49
f 128/167/29 116/99/49 20/51/48 28/35/55
f 130/72/14 116/99/49 128/167/29
f 120/163/50 128/167/29 28/35/55 32/143/92
f 130/72/14 128/167/29 120/163/50
f 26/36/57 32/143/92 16/124/86 12/178/66
f 18/50/41 26/36/57 12/178/66 4/66/42
f 22/65/43 18/50/41 4/66/42 8/9/84
f 30/222/91 22/65/43 8/9/84 14/225/95
f 24/74/52 30/222/91 14/225/95 6/202/18
f 20/51/48 24/74/52 6/202/18 2/53/23
f 28/35/55 20/51/48 2/53/23 10/81/54
f 32/143/92 28/35/55 10/81/54 16/124/86
f 25/58/35 31/108/73 119/18/51 125/62/68
f 125/62/68 119/18/51 129/241/15
f 17/242/71 25/58/35 125/62/68 113/160/27
f 113/160/27 125/62/68 129/241/15
f 21/188/31 17/242/71 113/160/27 121/179/72
f 121/179/72 113/160/27 129/241/15
f 29/127/22 21/188/31 121/179/72 117/215/37
f 117/215/37 121/179/72 129/241/15
f 23/187/46 29/127/22 117/215/37 123/177/94
f 123/177/94 117/215/37 129/241/15
f 19/240/69 23/187/46 123/177/94 115/75/67
f 115/75/67 123/177/94 129/241/15
f 27/57/56 19/240/69 115/75/67 127/61/24
f 127/61/24 115/75/67 129/241/15
f 31/108/73 27/57/56 127/61/24 119/18/51
f 119/18/51 127/61/24 129/241/15
f 11/73/90 15/46/87 31/108/73 25/58/35
f 3/159/74 11/73/90 25/58/35 17/242/71
f 7/14/47 3/159/74 17/242/71 21/188/31
f 13/196/81 7/14/47 21/188/31 29/127/22
f 5/186/36 13/196/81 29/127/22 23/187/46
f 1/76/70 5/186/36 23/187/46 19/240/69
f 9/189/40 1/76/70 19/240/69 27/57/56
f 15/46/87 9/189/40 27/57/56 31/108/73
f 34/90/59 36/130/61 154/183/8 152/120/6
f 35/131/60 33/91/58 151/119/5 153/182/7
f 39/32/64 157/201/11 158/200/12 40/31/65
f 155/41/9 37/203/62 38/204/63 156/40/10
f 88/94/79 40/31/65 36/130/61
f 34/90/59 38/204/63 86/236/77
f 35/131/60 39/32/64 87/95/78
f 85/237/76 37/203/62 33/91/58
f 86/236/77 88/94/79 36/130/61 34/90/59
f 40/31/65 158/200/12 154/183/8 36/130/61
f 156/40/10 38/204/63 34/90/59 152/120/6
f 87/95/78 85/237/76 33/91/58 35/131/60
f 37/203/62 155/41/9 151/119/5 33/91/58
f 157/201/11 39/32/64 35/131/60 153/182/7
f 88/94/79 87/95/78 39/32/64 40/31/65
f 38/204/63 37/203/62 85/237/76 86/236/77
f 85/237/76 87/95/78 91/87/13 89/96/13
f 87/95/78 88/94/79 92/140/13 91/87/13
f 88/94/79 86/236/77 90/84/13 92/140/13
f 86/236/77 85/237/76 89/96/13 90/84/13
f 69/227/82 95/239/82 96/238/82 70/226/82
f 43/224/83 145/229/83 146/228/83 44/223/83
f 77/47/82 111/52/82 112/33/82 78/29/82
f 57/112/83 131/116/83 132/115/83 58/111/83
f 81/133/19 97/137/19 98/136/19 82/132/19
f 51/105/45 137/146/45 138/145/45 52/104/45
f 83/214/34 109/219/34 110/233/34 84/213/34
f 59/4/88 141/210/88 142/209/88 60/3/88
f 79/195/82 101/212/82 102/211/82 80/194/82
f 45/64/83 139/71/83 140/70/83 46/63/83
f 71/8/19 99/15/19 100/34/19 72/30/19
f 47/11/83 143/22/83 144/21/83 48/10/83
f 75/39/96 103/43/96 104/42/96 76/56/96
f 53/89/83 135/165/83 136/164/83 54/88/83
f 73/126/19 107/80/19 108/79/19 74/125/19
f 49/123/20 147/144/20 148/92/20 50/67/20
f 67/235/44 93/244/44 94/243/44 68/234/44
f 55/45/83 149/60/83 150/59/83 56/44/83
f 65/171/75 105/175/75 106/174/75 66/170/75
f 41/168/45 133/193/45 134/192/45 42/190/45
f 133/135/16 65/2/16 66/1/16 134/134/16
f 149/153/89 67/28/89 68/27/89 150/152/89
f 147/148/25 73/13/25 74/12/25 148/147/25
f 135/49/38 75/26/38 76/25/38 136/48/38
f 143/198/38 71/173/38 72/172/38 144/197/38
f 139/24/25 79/83/25 80/82/25 140/23/25
f 145/98/25 69/150/25 70/149/25 146/97/25
f 131/162/25 77/38/25 78/37/25 132/161/25
f 137/69/28 81/206/28 82/205/28 138/68/28
f 141/114/32 83/218/32 84/191/32 142/113/32
f 105/78/33 41/118/33 42/117/33 106/77/33
f 93/156/53 55/139/53 56/138/53 94/155/53
f 107/86/26 49/129/26 50/128/26 108/85/26
f 103/158/26 53/217/26 54/216/26 104/157/26
f 99/107/26 47/154/26 48/169/26 100/106/26
f 101/176/26 45/232/26 46/231/26 102/199/26
f 95/101/26 43/208/26 44/207/26 96/100/26
f 111/55/26 57/110/26 58/109/26 112/54/26
f 97/151/39 51/221/39 52/220/39 98/166/39
f 109/122/17 59/230/17 60/20/17 110/121/17
f 91/103/3 92/102/3 64/245/3 63/246/3
f 90/102/4 89/103/4 61/246/4 62/245/4
f 92/142/1 90/141/1 62/5/1 64/6/1
f 89/141/2 91/142/2 63/6/2 61/5/2
f 61/17/13 63/185/13 64/184/13 62/16/13
