# Blender v2.80 (sub 75) OBJ File: ''
# www.blender.org
o Plane.001
v 0.683740 0.135457 -0.913470
v -0.683740 0.135457 0.913470
v 0.683740 0.135457 0.913470
v 0.683740 0.000000 -1.000000
v 1.000000 0.000000 -0.694091
v 1.000000 0.000000 0.694091
v -0.913470 0.135457 0.694091
v -1.000000 0.000000 -1.000000
v -1.000000 0.000000 1.000000
v 1.000000 0.000000 -1.000000
v 1.000000 0.000000 1.000000
v 0.804953 0.135457 -0.804953
v -0.804953 0.135457 -0.804953
v -0.804953 0.135457 0.804953
v 0.804953 0.135457 0.804953
v 0.600399 0.135350 0.286273
v 0.000000 0.135350 0.163061
v 0.000000 0.135350 -0.044627
v 0.000000 0.135350 -0.742674
v 0.000000 0.135350 -0.534986
v 0.600399 0.135350 -0.411774
v 0.600399 0.135350 -0.204086
v 0.000000 0.135350 -0.393764
v 0.000000 0.135350 -0.186076
v -0.600399 0.135350 -0.411774
v 0.450300 0.135350 -0.145589
v 0.450300 0.135350 0.062099
v -0.450300 0.135350 0.062099
v -0.450300 0.135350 -0.145589
v -0.600399 0.135350 -0.204086
v 0.600399 0.135350 0.493961
v 0.000000 0.135350 0.304283
v 0.000000 0.135350 0.511971
v -0.600399 0.135350 0.286273
v 0.450300 0.135350 0.552458
v 0.450300 0.135350 0.760146
v -0.450300 0.135350 0.760146
v -0.450300 0.135350 0.552458
v -0.600399 0.135350 0.493961
v 0.404372 0.110341 0.682393
v -0.000000 0.110341 0.459530
v 0.554472 0.110341 0.313402
v 0.554472 0.110341 0.416208
v 0.000000 0.110341 0.007814
v 0.000000 0.110341 -0.690233
v 0.000000 0.110341 -0.587427
v -0.404372 0.110341 -0.118460
v 0.000000 0.110341 -0.341323
v 0.554472 0.110341 -0.281839
v 0.554472 0.110341 -0.384645
v 0.404372 0.110341 -0.015654
v 0.000000 0.110341 -0.238517
v -0.000000 0.110341 0.110620
v 0.404372 0.110341 -0.118460
v -0.404372 0.110341 -0.015655
v -0.554472 0.110341 -0.384645
v -0.404372 0.110341 0.579587
v -0.000000 0.110341 0.356724
v -0.554472 0.110341 -0.281839
v 0.404372 0.110341 0.579587
v -0.404372 0.110341 0.682393
v -0.554472 0.110341 0.313402
v -0.554472 0.110341 0.416208
v 0.913470 0.135457 -0.913470
v -0.913470 0.135457 -0.913470
v -0.913470 0.135457 0.913470
v 0.913470 0.135457 0.913470
v -0.790127 0.153113 0.821747
v -0.771231 0.153113 0.813735
v -0.768722 0.153113 0.793364
v -0.785108 0.153113 0.781006
v -0.806513 0.153113 0.809388
v -0.804004 0.153113 0.789018
v -0.794538 0.171911 0.857556
v -0.742425 0.171911 0.835459
v -0.735504 0.171911 0.779280
v -0.780697 0.171911 0.745197
v -0.839731 0.171911 0.823473
v -0.832810 0.171911 0.767293
v -0.791482 0.171911 0.832748
v -0.794538 0.130771 0.857556
v -0.762381 0.171911 0.820409
v -0.742425 0.130771 0.835459
v -0.758517 0.171911 0.789037
v -0.735504 0.130771 0.779280
v -0.783753 0.171911 0.770005
v -0.780697 0.130771 0.745197
v -0.812854 0.171911 0.782344
v -0.832810 0.130771 0.767293
v -0.816718 0.171911 0.813715
v -0.839731 0.130771 0.823473
v 0.780844 0.130771 0.864331
v 0.789051 0.171911 0.840722
v 0.743834 0.130771 0.821502
v 0.768385 0.171911 0.816805
v 0.762421 0.130771 0.768036
v 0.778764 0.171911 0.786949
v 0.818017 0.130771 0.757400
v 0.809809 0.171911 0.781009
v 0.855026 0.130771 0.800229
v 0.830476 0.171911 0.804926
v 0.836440 0.130771 0.853695
v 0.820097 0.171911 0.834782
v 0.743834 0.171911 0.821502
v 0.780844 0.171911 0.864331
v 0.762421 0.171911 0.768036
v 0.818017 0.171911 0.757400
v 0.855026 0.171911 0.800229
v 0.836440 0.171911 0.853695
v 0.779272 0.153113 0.814722
v 0.792691 0.153113 0.830252
v 0.786011 0.153113 0.795336
v 0.806170 0.153113 0.791479
v 0.819589 0.153113 0.807009
v 0.812850 0.153113 0.826395
v 0.792636 0.153113 -0.786979
v 0.812204 0.153113 -0.793171
v 0.816626 0.153113 -0.813213
v 0.801480 0.153113 -0.827064
v 0.777490 0.153113 -0.800830
v 0.781912 0.153113 -0.820872
v 0.784863 0.171911 -0.751747
v 0.838830 0.171911 -0.768823
v 0.851026 0.171911 -0.824098
v 0.809254 0.171911 -0.862297
v 0.743091 0.171911 -0.789946
v 0.755287 0.171911 -0.845221
v 0.790248 0.171911 -0.776155
v 0.784863 0.130771 -0.751747
v 0.820384 0.171911 -0.785691
v 0.838830 0.130771 -0.768823
v 0.827194 0.171911 -0.816557
v 0.851026 0.130771 -0.824098
v 0.803868 0.171911 -0.837888
v 0.809254 0.130771 -0.862297
v 0.773732 0.171911 -0.828352
v 0.755287 0.130771 -0.845221
v 0.766922 0.171911 -0.797486
v 0.743091 0.130771 -0.789946
v -0.815712 0.130771 -0.756340
v -0.810639 0.171911 -0.780815
v -0.857968 0.130771 -0.794003
v -0.834235 0.171911 -0.801847
v -0.846479 0.130771 -0.849429
v -0.827820 0.171911 -0.832798
v -0.792734 0.130771 -0.867192
v -0.797808 0.171911 -0.842717
v -0.750478 0.130771 -0.829530
v -0.774211 0.171911 -0.821686
v -0.761967 0.130771 -0.774104
v -0.780627 0.171911 -0.790735
v -0.857968 0.171911 -0.794003
v -0.815712 0.171911 -0.756340
v -0.846479 0.171911 -0.849429
v -0.792734 0.171911 -0.867192
v -0.750478 0.171911 -0.829530
v -0.761967 0.171911 -0.774104
v -0.823711 0.153113 -0.805326
v -0.808389 0.153113 -0.791669
v -0.819545 0.153113 -0.825422
v -0.800057 0.153113 -0.831863
v -0.784736 0.153113 -0.818207
v -0.788902 0.153113 -0.798110
v -0.683740 0.135457 -0.913470
v -0.683740 0.000000 -1.000000
v 0.683740 0.000000 1.000000
v -0.683740 0.000000 1.000000
v -1.000000 0.000000 0.694091
v -1.000000 0.000000 -0.694091
v 0.913470 0.135457 0.694091
v 0.913470 0.135457 -0.694091
v -0.913470 0.135457 -0.694091
v 0.670271 0.135457 -0.791484
v 0.697209 0.135457 -0.818422
v 0.683740 0.106364 -0.804953
v -0.670271 0.135457 0.791484
v -0.697209 0.135457 0.818422
v -0.683740 0.106364 0.804953
v 0.818422 0.135457 0.707560
v 0.791484 0.135457 0.680622
v 0.804953 0.106364 0.694091
v -0.818422 0.135457 -0.707560
v -0.791484 0.135457 -0.680622
v -0.804953 0.106364 -0.694091
v 0.697209 0.135457 0.707560
v 0.670271 0.135457 0.680622
v 0.683740 0.106364 0.694091
v -0.697209 0.135457 -0.707560
v -0.670271 0.135457 -0.680622
v -0.683740 0.106364 -0.694091
v -0.670271 0.135457 -0.791484
v -0.697209 0.135457 -0.818422
v -0.683740 0.106364 -0.804953
v 0.670271 0.135457 0.791484
v 0.697209 0.135457 0.818422
v 0.683740 0.106364 0.804953
v 0.791484 0.135457 -0.680622
v 0.818422 0.135457 -0.707560
v 0.804953 0.106364 -0.694091
v -0.791484 0.135457 0.680622
v -0.818422 0.135457 0.707560
v -0.804953 0.106364 0.694091
v 0.697209 0.135457 -0.707560
v 0.670271 0.135457 -0.680622
v 0.683740 0.106364 -0.694091
v -0.697209 0.135457 0.707560
v -0.670271 0.135457 0.680622
v -0.683740 0.106364 0.694091
vt 0.285923 0.873376
vt 0.245196 0.918432
vt 0.239563 0.873376
vt 0.999987 0.295894
vt 0.963802 0.867744
vt 0.963802 0.295894
vt 0.163631 0.867744
vt 0.199816 0.295894
vt 0.199816 0.867744
vt 0.918423 0.245205
vt 0.877695 0.290261
vt 0.877695 0.239573
vt 0.245196 0.245205
vt 0.291556 0.199826
vt 0.285923 0.239573
vt 0.199816 0.199826
vt 0.918423 0.918432
vt 0.872063 0.963812
vt 0.877695 0.924065
vt 0.291556 0.163641
vt 0.872063 0.199826
vt 0.285923 0.924065
vt 0.872063 0.999997
vt 0.291556 0.963812
vt 0.239563 0.290261
vt 0.924055 0.873376
vt 0.924055 0.290261
vt 0.963802 0.199826
vt 0.872063 0.163641
vt 0.999987 0.163641
vt 0.712867 0.349951
vt 0.628068 0.581819
vt 0.585077 0.581819
vt 0.420959 0.349951
vt 0.336160 0.581819
vt 0.293169 0.581819
vt 0.420959 0.813686
vt 0.532272 0.412719
vt 0.482067 0.581819
vt 0.439076 0.581819
vt 0.532272 0.750918
vt 0.712867 0.813686
vt 0.824180 0.412719
vt 0.773975 0.581819
vt 0.730984 0.581819
vt 0.824180 0.750918
vt 0.867171 0.750918
vt 0.795904 0.581819
vt 0.899686 0.770124
vt 0.755858 0.813686
vt 0.701522 0.832892
vt 0.563147 0.581819
vt 0.271239 0.581819
vt 0.463950 0.349951
vt 0.358090 0.581819
vt 0.417146 0.581819
vt 0.520927 0.393513
vt 0.463950 0.813686
vt 0.409614 0.832892
vt 0.575263 0.750918
vt 0.503997 0.581819
vt 0.607778 0.770124
vt 0.755858 0.349951
vt 0.649998 0.581819
vt 0.409615 0.330745
vt 0.520927 0.770124
vt 0.575263 0.412719
vt 0.496465 0.832892
vt 0.607778 0.393513
vt 0.709054 0.581819
vt 0.812835 0.393513
vt 0.496465 0.330745
vt 0.701522 0.330745
vt 0.812835 0.770124
vt 0.867171 0.412719
vt 0.788373 0.832892
vt 0.899686 0.393513
vt 0.788373 0.330745
vt 0.963802 0.963812
vt 0.999987 0.867744
vt 0.999987 0.999997
vt 0.877695 0.873376
vt 0.774977 0.059130
vt 0.772433 0.079221
vt 0.767140 0.070921
vt 0.739478 0.080854
vt 0.741799 0.043581
vt 0.751010 0.059514
vt 0.775050 0.100507
vt 0.743389 0.116511
vt 0.751841 0.101075
vt 0.693433 0.065992
vt 0.714422 0.028325
vt 0.804826 0.079842
vt 0.810161 0.028485
vt 0.831095 0.064628
vt 0.757682 0.071869
vt 0.783893 0.043700
vt 0.741885 0.012986
vt 0.783979 0.013106
vt 0.786394 0.079863
vt 0.783971 0.115985
vt 0.758502 0.089273
vt 0.768548 0.088384
vt 0.754058 0.080553
vt 0.831095 0.095000
vt 0.810240 0.131142
vt 0.720809 0.081247
vt 0.784354 0.145480
vt 0.743772 0.146006
vt 0.717759 0.132922
vt 0.695179 0.097659
vt 0.606018 0.058528
vt 0.642482 0.061720
vt 0.627118 0.070515
vt 0.606581 0.124584
vt 0.658301 0.128911
vt 0.622401 0.150677
vt 0.626509 0.093679
vt 0.642482 0.102818
vt 0.614565 0.076936
vt 0.606150 0.073117
vt 0.597354 0.077572
vt 0.585948 0.070873
vt 0.569980 0.061625
vt 0.539766 0.103012
vt 0.539854 0.061561
vt 0.606186 0.040343
vt 0.554512 0.035310
vt 0.590718 0.014028
vt 0.672351 0.061721
vt 0.672351 0.102818
vt 0.585389 0.094209
vt 0.598053 0.087603
vt 0.606600 0.106350
vt 0.569893 0.103076
vt 0.606440 0.091902
vt 0.614959 0.086897
vt 0.590949 0.151249
vt 0.554260 0.129741
vt 0.621724 0.013963
vt 0.658019 0.035341
vt 0.468830 0.102084
vt 0.477189 0.082631
vt 0.488739 0.089413
vt 0.448178 0.066607
vt 0.468417 0.036077
vt 0.468248 0.054262
vt 0.468811 0.120318
vt 0.432210 0.057359
vt 0.401996 0.098746
vt 0.402084 0.057295
vt 0.504712 0.057455
vt 0.483954 0.009697
vt 0.520249 0.031075
vt 0.476795 0.072670
vt 0.468380 0.068851
vt 0.459584 0.073307
vt 0.460283 0.083337
vt 0.468670 0.087636
vt 0.504712 0.098552
vt 0.432122 0.098810
vt 0.447619 0.089943
vt 0.489349 0.066249
vt 0.520532 0.124644
vt 0.484631 0.146411
vt 0.453179 0.146983
vt 0.416490 0.125475
vt 0.416742 0.031044
vt 0.452948 0.009762
vt 0.534581 0.057455
vt 0.534581 0.098552
vt 0.861329 0.102099
vt 0.882386 0.150272
vt 0.845697 0.128764
vt 0.898018 0.123607
vt 0.949738 0.127934
vt 0.913838 0.149700
vt 0.933919 0.101841
vt 0.963788 0.060744
vt 0.963788 0.101841
vt 0.933919 0.060744
vt 0.913160 0.012986
vt 0.949456 0.034364
vt 0.918555 0.069538
vt 0.906395 0.085921
vt 0.906001 0.075959
vt 0.897623 0.039366
vt 0.845949 0.034334
vt 0.882155 0.013051
vt 0.861417 0.060648
vt 0.831203 0.102035
vt 0.831290 0.060585
vt 0.898037 0.105373
vt 0.876825 0.093232
vt 0.917946 0.092702
vt 0.897454 0.057551
vt 0.877384 0.069896
vt 0.897587 0.072141
vt 0.889489 0.086626
vt 0.897877 0.090925
vt 0.888791 0.076596
vt 0.199816 0.963812
vt 0.163631 0.295894
vt 0.163631 0.163641
vt 0.285923 0.290261
vt 0.291556 0.999997
vt 0.163631 0.999997
vt 0.291556 0.245205
vt 0.291556 0.295894
vt 0.297188 0.250837
vt 0.297188 0.301526
vt 0.872063 0.918432
vt 0.872063 0.867744
vt 0.866431 0.912800
vt 0.866431 0.862112
vt 0.872063 0.245205
vt 0.872063 0.295894
vt 0.866431 0.250837
vt 0.291556 0.918432
vt 0.291556 0.867744
vt 0.297188 0.912800
vt 0.912791 0.301526
vt 0.918423 0.867744
vt 0.912791 0.862112
vt 0.918423 0.295894
vt 0.250828 0.862112
vt 0.245196 0.295894
vt 0.250828 0.301526
vt 0.245196 0.867744
vt 0.866431 0.301526
vt 0.297188 0.862112
vn 0.0000 1.0000 0.0000
vn -0.0000 0.5383 0.8427
vn 0.0000 0.5383 -0.8427
vn -0.8427 0.5383 -0.0000
vn 0.8427 0.5383 0.0000
vn 0.2308 0.8782 -0.4188
vn -0.4782 0.8782 0.0000
vn -0.2308 0.8782 0.4188
vn -0.2308 0.8782 -0.4188
vn 0.2308 0.8782 0.4188
vn 0.4782 0.8782 0.0000
vn -0.5363 0.4548 0.7111
vn 0.3904 0.0000 0.9207
vn 0.6021 0.0000 -0.7984
vn -0.8839 0.4548 -0.1089
vn 0.9925 0.0000 0.1223
vn 0.8839 0.4548 0.1089
vn 0.5363 0.4548 -0.7111
vn -0.3477 0.4548 -0.8199
vn -0.3904 0.0000 -0.9207
vn -0.9925 0.0000 -0.1223
vn 0.3477 0.4548 0.8199
vn -0.6021 0.0000 0.7984
vn -0.9446 0.0000 -0.3284
vn -0.6739 0.4548 0.5823
vn -0.8412 0.4548 -0.2924
vn 0.1879 0.0000 0.9822
vn 0.9446 0.0000 0.3284
vn -0.1879 0.0000 -0.9822
vn -0.1673 0.4548 -0.8747
vn 0.6739 0.4548 -0.5823
vn 0.8412 0.4548 0.2924
vn -0.7566 0.0000 0.6538
vn 0.7566 0.0000 -0.6538
vn 0.1674 0.4548 0.8747
vn 0.2687 0.4548 0.8491
vn -0.6748 0.0000 0.7380
vn 0.9765 0.0000 0.2155
vn -0.8697 0.4548 -0.1919
vn -0.2687 0.4548 -0.8491
vn 0.8697 0.4548 0.1919
vn -0.6010 0.4548 0.6572
vn -0.3017 0.0000 -0.9534
vn -0.9765 0.0000 -0.2155
vn 0.6010 0.4548 -0.6572
vn 0.3017 0.0000 0.9534
vn 0.6748 0.0000 -0.7380
vn -0.6654 0.0000 0.7465
vn -0.9792 0.0000 -0.2030
vn -0.3138 0.0000 -0.9495
vn 0.6654 0.0000 -0.7465
vn 0.2795 0.4548 0.8456
vn 0.9792 0.0000 0.2030
vn 0.3138 0.0000 0.9495
vn 0.5926 0.4548 -0.6648
vn -0.2795 0.4548 -0.8456
vn -0.5926 0.4548 0.6648
vn 0.8721 0.4548 0.1808
vn -0.8721 0.4548 -0.1808
vn 0.0000 0.4201 0.9075
vn 0.0000 0.4201 -0.9075
vn -0.9075 0.4201 0.0000
vn 0.9075 0.4201 0.0000
vn 0.0000 1.0000 0.0022
vn 0.0000 1.0000 -0.0034
vn 0.0005 1.0000 0.0000
vn -0.0005 1.0000 0.0000
vn 0.0015 1.0000 0.0000
vn 0.0000 1.0000 0.0004
vn -0.0006 1.0000 0.0000
vn 0.0006 1.0000 0.0000
vn 0.1673 0.4548 0.8747
vn -0.5926 0.4548 0.6649
vn -0.0001 1.0000 0.0003
vn 0.0001 1.0000 0.0003
vn -0.0015 1.0000 0.0000
vn -0.0002 1.0000 -0.0005
vn 0.0000 1.0000 -0.0006
vn 0.0002 1.0000 -0.0005
s off
f 203/1/1 12/2/1 174/3/1
f 167/4/2 3/5/2 2/6/2
f 4/7/3 164/8/3 1/9/3
f 14/10/1 206/11/1 201/12/1
f 13/13/1 172/14/1 182/15/1
f 13/13/1 164/8/1 65/16/1
f 172/14/1 201/12/1 182/15/1
f 15/17/1 170/18/1 179/19/1
f 169/20/4 7/21/4 172/14/4
f 170/18/1 198/22/1 179/19/1
f 6/23/5 171/24/5 170/18/5
f 1/9/1 192/25/1 174/3/1
f 2/6/1 195/26/1 177/27/1
f 66/28/4 168/29/4 9/30/4
f 62/31/1 53/32/1 44/33/1
f 56/34/1 46/35/1 45/36/1
f 46/35/1 50/37/1 45/36/1
f 47/38/1 52/39/1 48/40/1
f 52/39/1 54/41/1 48/40/1
f 53/32/1 42/42/1 44/33/1
f 57/43/1 41/44/1 58/45/1
f 41/44/1 60/46/1 58/45/1
f 40/47/6 33/48/6 36/49/6
f 43/50/7 16/51/7 42/42/7
f 42/42/8 18/52/8 44/33/8
f 50/37/8 19/53/8 45/36/8
f 59/54/9 20/55/9 46/35/9
f 47/38/10 23/56/10 29/57/10
f 49/58/7 21/59/7 50/37/7
f 51/60/6 24/61/6 27/62/6
f 63/63/9 17/64/9 53/32/9
f 56/34/10 19/53/10 25/65/10
f 51/60/7 26/66/7 54/41/7
f 55/67/9 24/61/9 52/39/9
f 49/58/6 20/55/6 22/68/6
f 55/67/11 29/57/11 28/69/11
f 54/41/8 23/56/8 48/40/8
f 57/43/10 32/70/10 38/71/10
f 59/54/11 25/65/11 30/72/11
f 62/31/10 18/52/10 34/73/10
f 40/47/7 35/74/7 60/46/7
f 61/75/9 33/48/9 41/44/9
f 43/50/6 17/64/6 31/76/6
f 61/75/11 38/71/11 37/77/11
f 60/46/8 32/70/8 58/45/8
f 17/64/1 35/74/1 31/76/1
f 38/71/1 17/64/1 39/78/1
f 63/63/11 34/73/11 39/78/11
f 67/79/2 166/80/2 11/81/2
f 185/82/1 15/17/1 179/19/1
f 84/83/12 71/84/12 70/85/12
f 80/86/1 75/87/1 82/88/1
f 88/89/1 78/90/1 90/91/1
f 75/87/13 81/92/13 83/93/13
f 77/94/14 85/95/14 87/96/14
f 82/88/15 70/85/15 69/97/15
f 76/98/16 83/99/16 85/100/16
f 86/101/1 79/102/1 88/89/1
f 69/97/1 70/85/1 71/84/1
f 88/89/17 72/103/17 73/104/17
f 80/86/18 72/103/18 90/91/18
f 80/86/19 69/97/19 68/105/19
f 79/102/20 87/106/20 89/107/20
f 80/86/1 78/90/1 74/108/1
f 82/88/1 76/98/1 84/83/1
f 78/90/21 89/109/21 91/110/21
f 86/101/22 73/104/22 71/84/22
f 74/108/23 91/111/23 81/112/23
f 86/101/1 76/98/1 77/94/1
f 101/113/1 107/114/1 99/115/1
f 104/116/24 96/117/24 94/118/24
f 97/119/1 107/114/1 106/120/1
f 101/113/25 113/121/25 114/122/25
f 101/113/26 115/123/26 103/124/26
f 109/125/27 92/126/27 102/127/27
f 108/128/28 102/129/28 100/130/28
f 106/120/29 98/131/29 96/132/29
f 93/133/30 115/123/30 111/134/30
f 95/135/1 105/136/1 93/133/1
f 95/135/31 111/134/31 110/137/31
f 103/124/1 108/128/1 101/113/1
f 103/124/1 105/136/1 109/125/1
f 95/135/32 112/138/32 97/119/32
f 114/122/1 113/121/1 112/138/1
f 105/136/33 94/139/33 92/140/33
f 107/114/34 100/141/34 98/142/34
f 99/115/35 112/138/35 113/121/35
f 97/119/1 104/116/1 95/135/1
f 136/143/36 119/144/36 134/145/36
f 128/146/1 123/147/1 130/148/1
f 134/145/1 127/149/1 136/143/1
f 122/150/37 139/151/37 129/152/37
f 124/153/38 131/154/38 133/155/38
f 130/148/39 118/156/39 117/157/39
f 130/148/40 116/158/40 128/146/40
f 136/143/41 120/159/41 121/160/41
f 134/145/1 124/153/1 125/161/1
f 136/143/1 126/162/1 138/163/1
f 132/164/42 119/144/42 118/156/42
f 127/149/43 135/165/43 137/166/43
f 128/146/1 126/162/1 122/150/1
f 126/162/44 137/167/44 139/168/44
f 138/163/45 116/158/45 120/159/45
f 117/157/1 118/156/1 119/144/1
f 123/147/46 129/169/46 131/170/46
f 130/148/1 124/153/1 132/164/1
f 125/161/47 133/171/47 135/172/47
f 153/173/48 142/174/48 140/175/48
f 152/176/49 144/177/49 142/178/49
f 154/179/50 146/180/50 144/181/50
f 155/182/51 148/183/51 146/184/51
f 147/185/52 160/186/52 161/187/52
f 156/188/53 150/189/53 148/190/53
f 157/191/54 140/192/54 150/193/54
f 143/194/1 153/173/1 141/195/1
f 145/196/1 152/176/1 143/194/1
f 145/196/1 155/182/1 154/179/1
f 149/197/1 155/182/1 147/185/1
f 151/198/1 156/188/1 149/197/1
f 151/198/1 153/173/1 157/191/1
f 162/199/1 161/187/1 160/186/1
f 143/194/55 159/200/55 158/201/55
f 141/195/56 163/202/56 159/200/56
f 149/197/57 161/187/57 162/199/57
f 143/194/58 160/186/58 145/196/58
f 149/197/59 163/202/59 151/198/59
f 66/28/2 167/4/2 2/6/2
f 64/203/3 4/7/3 1/9/3
f 12/2/1 171/24/1 64/203/1
f 15/17/1 3/5/1 67/79/1
f 14/10/1 2/6/1 177/27/1
f 65/16/3 165/204/3 8/205/3
f 13/13/1 188/206/1 192/25/1
f 64/203/5 5/207/5 10/208/5
f 67/79/5 6/23/5 170/18/5
f 65/16/4 169/20/4 172/14/4
f 14/10/1 7/21/1 66/28/1
f 188/206/60 184/209/60 190/210/60
f 190/210/61 183/211/61 189/212/61
f 185/82/61 181/213/61 187/214/61
f 187/214/60 180/215/60 186/216/60
f 206/11/61 202/217/61 201/12/61
f 208/218/60 200/219/60 202/217/60
f 203/1/60 199/220/60 198/22/60
f 205/221/61 197/222/61 199/220/61
f 176/223/60 196/224/60 194/225/60
f 178/226/61 195/26/61 196/224/61
f 173/227/61 193/228/61 191/229/61
f 175/230/60 192/25/60 193/228/60
f 183/211/62 202/217/62 200/219/62
f 184/209/63 201/12/63 202/217/63
f 180/215/63 199/220/63 197/222/63
f 181/213/62 198/22/62 199/220/62
f 194/225/63 187/214/63 186/216/63
f 196/224/62 185/82/62 187/214/62
f 173/227/63 205/221/63 175/230/63
f 175/230/62 203/1/62 174/3/62
f 176/223/62 208/218/62 178/226/62
f 178/226/63 206/11/63 177/27/63
f 191/229/62 190/210/62 189/212/62
f 193/228/63 188/206/63 190/210/63
f 12/2/1 1/9/1 174/3/1
f 27/62/1 18/52/1 16/51/1
f 18/52/1 28/69/1 34/73/1
f 20/55/1 29/57/1 23/56/1
f 20/55/1 26/66/1 22/68/1
f 173/227/64 191/229/64 19/53/64
f 36/49/65 37/77/65 194/225/65
f 207/231/66 37/77/66 38/71/66
f 36/49/67 186/216/67 35/74/67
f 189/212/68 25/65/68 191/229/68
f 204/232/69 21/59/69 197/222/69
f 180/215/70 22/68/70 16/51/70
f 39/78/71 34/73/71 200/219/71
f 203/1/1 198/22/1 12/2/1
f 167/4/2 166/80/2 3/5/2
f 4/7/3 165/204/3 164/8/3
f 14/10/1 177/27/1 206/11/1
f 13/13/1 65/16/1 172/14/1
f 13/13/1 192/25/1 164/8/1
f 172/14/1 7/21/1 201/12/1
f 15/17/1 67/79/1 170/18/1
f 169/20/4 168/29/4 7/21/4
f 170/18/1 171/24/1 198/22/1
f 6/23/5 5/207/5 171/24/5
f 1/9/1 164/8/1 192/25/1
f 2/6/1 3/5/1 195/26/1
f 66/28/4 7/21/4 168/29/4
f 62/31/1 63/63/1 53/32/1
f 56/34/1 59/54/1 46/35/1
f 46/35/1 49/58/1 50/37/1
f 47/38/1 55/67/1 52/39/1
f 52/39/1 51/60/1 54/41/1
f 53/32/1 43/50/1 42/42/1
f 57/43/1 61/75/1 41/44/1
f 41/44/1 40/47/1 60/46/1
f 40/47/6 41/44/6 33/48/6
f 43/50/7 31/76/7 16/51/7
f 42/42/8 16/51/8 18/52/8
f 50/37/8 21/59/8 19/53/8
f 59/54/9 30/72/9 20/55/9
f 47/38/10 48/40/10 23/56/10
f 49/58/7 22/68/7 21/59/7
f 51/60/6 52/39/6 24/61/6
f 63/63/9 39/78/9 17/64/9
f 56/34/10 45/36/10 19/53/10
f 51/60/7 27/62/7 26/66/7
f 55/67/9 28/69/9 24/61/9
f 49/58/6 46/35/6 20/55/6
f 55/67/11 47/38/11 29/57/11
f 54/41/8 26/66/8 23/56/8
f 57/43/10 58/45/10 32/70/10
f 59/54/11 56/34/11 25/65/11
f 62/31/10 44/33/10 18/52/10
f 40/47/7 36/49/7 35/74/7
f 61/75/9 37/77/9 33/48/9
f 43/50/6 53/32/6 17/64/6
f 61/75/11 57/43/11 38/71/11
f 60/46/8 35/74/8 32/70/8
f 17/64/1 32/70/1 35/74/1
f 38/71/1 32/70/1 17/64/1
f 63/63/11 62/31/11 34/73/11
f 67/79/2 3/5/2 166/80/2
f 185/82/1 195/26/1 15/17/1
f 84/83/12 86/101/12 71/84/12
f 80/86/1 74/108/1 75/87/1
f 88/89/1 79/102/1 78/90/1
f 75/87/13 74/108/13 81/92/13
f 77/94/14 76/98/14 85/95/14
f 82/88/15 84/83/15 70/85/15
f 76/98/16 75/87/16 83/99/16
f 86/101/1 77/94/1 79/102/1
f 71/84/1 73/104/1 72/103/1
f 72/103/1 68/105/1 71/84/1
f 68/105/1 69/97/1 71/84/1
f 88/89/17 90/91/17 72/103/17
f 80/86/18 68/105/18 72/103/18
f 80/86/19 82/88/19 69/97/19
f 79/102/20 77/94/20 87/106/20
f 80/86/1 90/91/1 78/90/1
f 82/88/1 75/87/1 76/98/1
f 78/90/21 79/102/21 89/109/21
f 86/101/22 88/89/22 73/104/22
f 74/108/23 78/90/23 91/111/23
f 86/101/1 84/83/1 76/98/1
f 101/113/1 108/128/1 107/114/1
f 104/116/24 106/120/24 96/117/24
f 97/119/1 99/115/1 107/114/1
f 101/113/25 99/115/25 113/121/25
f 101/113/26 114/122/26 115/123/26
f 109/125/27 105/136/27 92/126/27
f 108/128/28 109/125/28 102/129/28
f 106/120/29 107/114/29 98/131/29
f 93/133/30 103/124/30 115/123/30
f 95/135/1 104/116/1 105/136/1
f 95/135/31 93/133/31 111/134/31
f 103/124/1 109/125/1 108/128/1
f 103/124/1 93/133/1 105/136/1
f 95/135/32 110/137/32 112/138/32
f 112/138/1 110/137/1 111/134/1
f 111/134/1 115/123/1 112/138/1
f 115/123/1 114/122/1 112/138/1
f 105/136/33 104/116/33 94/139/33
f 107/114/34 108/128/34 100/141/34
f 99/115/72 97/119/72 112/138/72
f 97/119/1 106/120/1 104/116/1
f 136/143/36 121/160/36 119/144/36
f 128/146/1 122/150/1 123/147/1
f 134/145/1 125/161/1 127/149/1
f 122/150/37 126/162/37 139/151/37
f 124/153/38 123/147/38 131/154/38
f 130/148/39 132/164/39 118/156/39
f 130/148/40 117/157/40 116/158/40
f 136/143/41 138/163/41 120/159/41
f 134/145/1 132/164/1 124/153/1
f 136/143/1 127/149/1 126/162/1
f 132/164/42 134/145/42 119/144/42
f 127/149/43 125/161/43 135/165/43
f 128/146/1 138/163/1 126/162/1
f 126/162/44 127/149/44 137/167/44
f 138/163/45 128/146/45 116/158/45
f 119/144/1 121/160/1 120/159/1
f 120/159/1 116/158/1 119/144/1
f 116/158/1 117/157/1 119/144/1
f 123/147/46 122/150/46 129/169/46
f 130/148/1 123/147/1 124/153/1
f 125/161/47 124/153/47 133/171/47
f 153/173/48 152/176/48 142/174/48
f 152/176/49 154/179/49 144/177/49
f 154/179/50 155/182/50 146/180/50
f 155/182/51 156/188/51 148/183/51
f 147/185/52 145/196/52 160/186/52
f 156/188/53 157/191/53 150/189/53
f 157/191/54 153/173/54 140/192/54
f 143/194/1 152/176/1 153/173/1
f 145/196/1 154/179/1 152/176/1
f 145/196/1 147/185/1 155/182/1
f 149/197/1 156/188/1 155/182/1
f 151/198/1 157/191/1 156/188/1
f 151/198/1 141/195/1 153/173/1
f 160/186/1 158/201/1 159/200/1
f 159/200/1 163/202/1 160/186/1
f 163/202/1 162/199/1 160/186/1
f 143/194/55 141/195/55 159/200/55
f 141/195/56 151/198/56 163/202/56
f 149/197/73 147/185/73 161/187/73
f 143/194/58 158/201/58 160/186/58
f 149/197/59 162/199/59 163/202/59
f 66/28/2 9/30/2 167/4/2
f 64/203/3 10/208/3 4/7/3
f 12/2/1 198/22/1 171/24/1
f 15/17/1 195/26/1 3/5/1
f 14/10/1 66/28/1 2/6/1
f 65/16/3 164/8/3 165/204/3
f 13/13/1 182/15/1 188/206/1
f 64/203/5 171/24/5 5/207/5
f 67/79/5 11/81/5 6/23/5
f 65/16/4 8/205/4 169/20/4
f 14/10/1 201/12/1 7/21/1
f 188/206/60 182/15/60 184/209/60
f 190/210/61 184/209/61 183/211/61
f 185/82/61 179/19/61 181/213/61
f 187/214/60 181/213/60 180/215/60
f 206/11/61 208/218/61 202/217/61
f 208/218/60 207/231/60 200/219/60
f 203/1/60 205/221/60 199/220/60
f 205/221/61 204/232/61 197/222/61
f 176/223/60 178/226/60 196/224/60
f 178/226/61 177/27/61 195/26/61
f 173/227/61 175/230/61 193/228/61
f 175/230/60 174/3/60 192/25/60
f 183/211/62 184/209/62 202/217/62
f 184/209/63 182/15/63 201/12/63
f 180/215/63 181/213/63 199/220/63
f 181/213/62 179/19/62 198/22/62
f 194/225/63 196/224/63 187/214/63
f 196/224/62 195/26/62 185/82/62
f 173/227/63 204/232/63 205/221/63
f 175/230/62 205/221/62 203/1/62
f 176/223/62 207/231/62 208/218/62
f 178/226/63 208/218/63 206/11/63
f 191/229/62 193/228/62 190/210/62
f 193/228/63 192/25/63 188/206/63
f 12/2/1 64/203/1 1/9/1
f 27/62/1 24/61/1 18/52/1
f 18/52/1 24/61/1 28/69/1
f 20/55/1 30/72/1 29/57/1
f 20/55/1 23/56/1 26/66/1
f 19/53/74 21/59/74 173/227/74
f 191/229/75 25/65/75 19/53/75
f 36/49/1 33/48/1 37/77/1
f 37/77/65 176/223/65 194/225/65
f 207/231/66 176/223/66 37/77/66
f 36/49/67 194/225/67 186/216/67
f 189/212/69 183/211/69 25/65/69
f 204/232/76 173/227/76 21/59/76
f 31/76/77 35/74/77 186/216/77
f 186/216/78 180/215/78 31/76/78
f 180/215/70 197/222/70 22/68/70
f 197/222/70 21/59/70 22/68/70
f 22/68/1 26/66/1 27/62/1
f 16/51/70 31/76/70 180/215/70
f 22/68/1 27/62/1 16/51/1
f 28/69/1 29/57/1 30/72/1
f 30/72/71 25/65/71 183/211/71
f 183/211/71 200/219/71 30/72/71
f 200/219/78 207/231/78 39/78/78
f 30/72/71 200/219/71 34/73/71
f 207/231/79 38/71/79 39/78/79
f 34/73/1 28/69/1 30/72/1
