g leaf
v 1.359985 2.586224 0.163978
v 1.000637 2.499506 1.007018
v 1.785078 3.945391 1.755146
v 2.476501 4.208870 0.819216
v 0.195800 -0.198811 -0.062277
v 0.083875 2.504353 1.402922
v 0.879156 4.270792 2.451215
v 2.147532 5.434144 3.471992
v 2.804260 4.945011 2.795206
v 3.523914 5.305686 2.075648
v -0.197820 -0.149096 0.223568
v 3.441918 5.049767 4.578752
v 3.934659 4.703527 3.832917
v 4.640563 4.990191 3.230274
v 4.370032 4.017716 4.964273
v 4.632661 3.954393 4.414767
v 5.107185 4.066713 4.039268
v 5.282216 2.098595 4.844249
v -0.013276 2.639511 1.510288
v -0.904072 2.641559 1.270227
v -1.652785 4.615080 2.398924
v -0.616687 5.053216 2.842038
v 0.212137 -0.200678 0.118348
v -1.504760 2.645878 0.540572
v -2.494943 4.974142 1.664790
v -3.522970 6.336061 3.174055
v -2.601891 5.873230 3.810354
v -1.798084 6.348152 4.368476
v -0.266680 -0.160122 -0.150088
v -4.318787 5.863326 4.589490
v -3.489294 5.453515 5.028127
v -2.856803 5.806085 5.594405
v -4.560324 4.517410 5.577090
v -4.029324 4.353193 5.774357
v -3.635025 4.512655 6.271965
v -4.562830 2.500266 6.504917
v -1.590317 2.447843 0.637438
v -1.736298 2.393508 -0.393762
v -3.022785 3.877290 -0.584900
v -3.179197 4.275658 0.448813
v -0.097314 -0.124064 0.300909
v -1.270285 2.430403 -1.107820
v -2.754307 4.310868 -1.770479
v -4.457619 5.114678 -1.940929
v -4.597408 4.860100 -0.912114
v -4.892012 5.256631 0.057658
v -0.020831 -0.143272 -0.254951
v -5.920839 4.290154 -2.068887
v -5.968760 4.130813 -1.135514
v -6.371439 4.416557 -0.353471
v -6.747131 2.797355 -1.897408
v -6.732737 2.696466 -1.270491
v -6.995664 2.743174 -0.757404
v -7.060516 0.977109 -1.424817
v -1.074791 3.272645 -0.819221
v -0.219521 3.323679 -1.304629
v -0.371501 4.896799 -2.251871
v -1.409726 5.481144 -2.001988
v -0.307410 -0.148616 -0.006565
v 0.713724 3.262086 -1.126785
v 0.837738 5.345153 -2.340774
v 0.419161 6.339548 -3.839591
v -0.581361 5.750154 -3.736728
v -1.636655 6.350832 -3.607756
v 0.230602 -0.189967 -0.064585
v 0.094799 5.899674 -5.330742
v -0.738102 5.612094 -4.980198
v -1.686123 5.891451 -5.000201
v -0.236069 4.306608 -5.941470
v -0.943560 4.240062 -5.703887
v -1.548225 4.348856 -5.750957
v -1.054025 2.199196 -6.211794
v 0.764629 2.113449 -1.468686
v 1.501174 2.035234 -0.826104
v 2.452886 3.023590 -1.332806
v 1.908002 3.337926 -2.229520
v -0.099415 -0.064195 -0.300568
v 1.537102 2.112630 0.151232
v 2.931636 3.342578 -0.283245
v 4.423645 3.837671 -1.231694
v 3.864100 3.609632 -2.092920
v 3.499143 3.849586 -3.033132
v 0.070771 -0.121424 0.256409
v 5.574941 3.452045 -1.927457
v 4.995145 3.261003 -2.644161
v 4.726904 3.538857 -3.493654
v 6.136519 2.469380 -2.513134
v 5.738800 2.404403 -3.017447
v 5.602455 2.438992 -3.638458
v 6.197583 0.978438 -3.309259
vt 0.108909 0.259004
vt 0.510037 0.267464
vt 0.488590 0.430953
vt 0.044645 0.444895
vt 0.382337 0.008172
vt 0.883413 0.252591
vt 0.965101 0.443233
vt 0.910708 0.598797
vt 0.495935 0.587996
vt 0.066772 0.598001
vt 0.580688 0.009829
vt 0.835045 0.719579
vt 0.486732 0.720724
vt 0.110763 0.719218
vt 0.698507 0.836142
vt 0.477561 0.840251
vt 0.261746 0.837390
vt 0.507069 0.991829
vt 0.108909 0.259004
vt 0.510037 0.267464
vt 0.488590 0.430953
vt 0.044645 0.444895
vt 0.382337 0.008172
vt 0.883413 0.252591
vt 0.965101 0.443233
vt 0.910708 0.598797
vt 0.495935 0.587996
vt 0.066772 0.598001
vt 0.580688 0.009829
vt 0.835045 0.719579
vt 0.486732 0.720724
vt 0.110763 0.719218
vt 0.698507 0.836142
vt 0.477561 0.840251
vt 0.261746 0.837390
vt 0.507069 0.991829
vt 0.108909 0.259004
vt 0.510037 0.267464
vt 0.488590 0.430953
vt 0.044645 0.444895
vt 0.382337 0.008172
vt 0.883413 0.252591
vt 0.965101 0.443233
vt 0.910708 0.598797
vt 0.495935 0.587996
vt 0.066772 0.598001
vt 0.580688 0.009829
vt 0.835045 0.719579
vt 0.486732 0.720724
vt 0.110763 0.719218
vt 0.698507 0.836142
vt 0.477561 0.840251
vt 0.261746 0.837390
vt 0.507069 0.991829
vt 0.108909 0.259004
vt 0.510037 0.267464
vt 0.488590 0.430953
vt 0.044645 0.444895
vt 0.382337 0.008172
vt 0.883413 0.252591
vt 0.965101 0.443233
vt 0.910708 0.598797
vt 0.495935 0.587996
vt 0.066772 0.598001
vt 0.580688 0.009829
vt 0.835045 0.719579
vt 0.486732 0.720724
vt 0.110763 0.719218
vt 0.698507 0.836142
vt 0.477561 0.840251
vt 0.261746 0.837390
vt 0.507069 0.991829
vt 0.108909 0.259004
vt 0.510037 0.267464
vt 0.488590 0.430953
vt 0.044645 0.444895
vt 0.382337 0.008172
vt 0.883413 0.252591
vt 0.965101 0.443233
vt 0.910708 0.598797
vt 0.495935 0.587996
vt 0.066772 0.598001
vt 0.580688 0.009829
vt 0.835045 0.719579
vt 0.486732 0.720724
vt 0.110763 0.719218
vt 0.698507 0.836142
vt 0.477561 0.840251
vt 0.261746 0.837390
vt 0.507069 0.991829
vn -0.8247 0.4781 -0.3023
vn -0.5958 0.5072 -0.6227
vn -0.4970 0.7178 -0.4875
vn -0.6851 0.6877 -0.2403
vn -0.7045 0.4330 -0.5623
vn -0.3410 0.5007 -0.7956
vn -0.2618 0.6784 -0.6864
vn 0.1280 0.8855 -0.4467
vn -0.1322 0.9716 -0.1963
vn -0.3720 0.9249 0.0784
vn -0.4259 0.4284 -0.7969
vn 0.5900 0.8068 -0.0315
vn 0.3552 0.8986 0.2575
vn 0.0671 0.8578 0.5095
vn 0.7954 0.5476 0.2599
vn 0.6278 0.5824 0.5165
vn 0.3983 0.5612 0.7255
vn 0.7119 0.3851 0.5873
vn 0.2271 0.4951 -0.8386
vn 0.4657 0.5057 -0.7263
vn 0.3811 0.6889 -0.6165
vn 0.0991 0.6514 -0.7523
vn 0.3496 0.4666 -0.8125
vn 0.6738 0.4913 -0.5519
vn 0.6253 0.6580 -0.4195
vn 0.4133 0.9087 0.0587
vn 0.0746 0.9800 -0.1846
vn -0.2752 0.8771 -0.3937
vn 0.5822 0.4691 -0.6641
vn 0.0289 0.7834 0.6208
vn -0.3162 0.8437 0.4339
vn -0.6108 0.7712 0.1792
vn -0.1633 0.5087 0.8453
vn -0.4809 0.5454 0.6865
vn -0.7370 0.5127 0.4404
vn -0.5219 0.4387 0.7315
vn 0.8044 0.5763 -0.1441
vn 0.7860 0.5988 0.1538
vn 0.6103 0.7825 0.1236
vn 0.6595 0.7284 -0.1857
vn 0.8411 0.5402 -0.0268
vn 0.6688 0.5789 0.4664
vn 0.4987 0.7574 0.4215
vn -0.0753 0.9512 0.2993
vn 0.0155 0.9990 -0.0408
vn 0.1055 0.9188 -0.3804
vn 0.7831 0.5459 0.2981
vn -0.7101 0.6977 0.0950
vn -0.6704 0.7095 -0.2170
vn -0.5645 0.6512 -0.5073
vn -0.9395 0.3394 0.0458
vn -0.9075 0.3459 -0.2382
vn -0.8019 0.3243 -0.5018
vn -0.9563 0.2013 -0.2121
vn 0.4334 0.4031 0.8060
vn 0.1461 0.4087 0.9009
vn 0.1509 0.6962 0.7018
vn 0.4780 0.6551 0.5851
vn 0.2963 0.3266 0.8975
vn -0.1445 0.4101 0.9005
vn -0.1908 0.6532 0.7327
vn -0.4108 0.8793 0.2409
vn 0.0715 0.9778 0.1971
vn 0.5168 0.8490 0.1103
vn -0.0158 0.3310 0.9435
vn -0.5348 0.6784 -0.5038
vn -0.1106 0.7880 -0.6057
vn 0.3493 0.7340 -0.5824
vn -0.4023 0.3245 -0.8561
vn -0.1391 0.3457 -0.9280
vn 0.1342 0.3410 -0.9304
vn -0.1088 0.2456 -0.9632
vn -0.4707 0.6313 0.6164
vn -0.6712 0.6729 0.3108
vn -0.4330 0.8732 0.2238
vn -0.2941 0.8151 0.4991
vn -0.6344 0.6043 0.4820
vn -0.7581 0.6517 -0.0238
vn -0.5291 0.8455 -0.0728
vn -0.1334 0.9651 -0.2253
vn -0.0191 0.9996 0.0220
vn 0.0974 0.9582 0.2691
vn -0.7919 0.5948 0.1386
vn 0.3257 0.8196 -0.4713
vn 0.4643 0.8575 -0.2218
vn 0.5638 0.8247 0.0443
vn 0.6195 0.5025 -0.6031
vn 0.7665 0.5257 -0.3688
vn 0.8548 0.5082 -0.1047
vn 0.8419 0.3542 -0.4072
usemtl leave-thing
s 1
f 1/1/1 2/2/2 3/3/3 4/4/4
f 2/2/2 1/1/1 5/5/5
f 2/2/2 6/6/6 7/7/7 3/3/3
f 3/3/3 7/7/7 8/8/8 9/9/9
f 4/4/4 3/3/3 9/9/9 10/10/10
f 2/2/2 5/5/5 11/11/11
f 11/11/11 6/6/6 2/2/2
f 9/9/9 8/8/8 12/12/12 13/13/13
f 10/10/10 9/9/9 13/13/13 14/14/14
f 13/13/13 12/12/12 15/15/15 16/16/16
f 14/14/14 13/13/13 16/16/16 17/17/17
f 16/16/16 15/15/15 18/18/18
f 17/17/17 16/16/16 18/18/18
f 19/19/19 20/20/20 21/21/21 22/22/22
f 20/20/20 19/19/19 23/23/23
f 20/20/20 24/24/24 25/25/25 21/21/21
f 21/21/21 25/25/25 26/26/26 27/27/27
f 22/22/22 21/21/21 27/27/27 28/28/28
f 20/20/20 23/23/23 29/29/29
f 29/29/29 24/24/24 20/20/20
f 27/27/27 26/26/26 30/30/30 31/31/31
f 28/28/28 27/27/27 31/31/31 32/32/32
f 31/31/31 30/30/30 33/33/33 34/34/34
f 32/32/32 31/31/31 34/34/34 35/35/35
f 34/34/34 33/33/33 36/36/36
f 35/35/35 34/34/34 36/36/36
f 37/37/37 38/38/38 39/39/39 40/40/40
f 38/38/38 37/37/37 41/41/41
f 38/38/38 42/42/42 43/43/43 39/39/39
f 39/39/39 43/43/43 44/44/44 45/45/45
f 40/40/40 39/39/39 45/45/45 46/46/46
f 38/38/38 41/41/41 47/47/47
f 47/47/47 42/42/42 38/38/38
f 45/45/45 44/44/44 48/48/48 49/49/49
f 46/46/46 45/45/45 49/49/49 50/50/50
f 49/49/49 48/48/48 51/51/51 52/52/52
f 50/50/50 49/49/49 52/52/52 53/53/53
f 52/52/52 51/51/51 54/54/54
f 53/53/53 52/52/52 54/54/54
f 55/55/55 56/56/56 57/57/57 58/58/58
f 56/56/56 55/55/55 59/59/59
f 56/56/56 60/60/60 61/61/61 57/57/57
f 57/57/57 61/61/61 62/62/62 63/63/63
f 58/58/58 57/57/57 63/63/63 64/64/64
f 56/56/56 59/59/59 65/65/65
f 65/65/65 60/60/60 56/56/56
f 63/63/63 62/62/62 66/66/66 67/67/67
f 64/64/64 63/63/63 67/67/67 68/68/68
f 67/67/67 66/66/66 69/69/69 70/70/70
f 68/68/68 67/67/67 70/70/70 71/71/71
f 70/70/70 69/69/69 72/72/72
f 71/71/71 70/70/70 72/72/72
f 73/73/73 74/74/74 75/75/75 76/76/76
f 74/74/74 73/73/73 77/77/77
f 74/74/74 78/78/78 79/79/79 75/75/75
f 75/75/75 79/79/79 80/80/80 81/81/81
f 76/76/76 75/75/75 81/81/81 82/82/82
f 74/74/74 77/77/77 83/83/83
f 83/83/83 78/78/78 74/74/74
f 81/81/81 80/80/80 84/84/84 85/85/85
f 82/82/82 81/81/81 85/85/85 86/86/86
f 85/85/85 84/84/84 87/87/87 88/88/88
f 86/86/86 85/85/85 88/88/88 89/89/89
f 88/88/88 87/87/87 90/90/90
f 89/89/89 88/88/88 90/90/90
g stem
v 0.225253 3.469579 -0.255834
v 0.240218 -0.147697 0.081326
v 0.000000 -0.144137 -0.160068
v 0.000000 3.469579 -0.481087
v -0.001650 -0.147697 0.323194
v 0.000000 3.469579 -0.030582
v -0.225253 3.469579 -0.255834
v -0.241868 -0.144137 0.081799
v 0.000000 7.956724 -0.208168
v -0.220836 7.956724 -0.429004
v 0.220836 7.956724 -0.429004
v 0.000000 7.956724 -0.649840
v 0.000000 11.928189 -0.007050
v -0.220836 11.945541 -0.227203
v 0.220836 11.945541 -0.227203
v 0.000000 11.962893 -0.447356
v 0.000000 13.867347 0.470402
v -0.214526 14.014524 0.314323
v 0.214526 14.014524 0.314323
v 0.000000 14.161700 0.158244
v 0.000000 14.277872 1.483589
v -0.210516 14.487409 1.463310
v 0.210516 14.487409 1.463310
v 0.000000 14.696945 1.443031
v 0.000000 14.016864 2.331758
v -0.210516 14.166872 2.479455
v 0.210516 14.166872 2.479455
v 0.000000 14.316880 2.627152
vt -1.424063 0.345445
vt -2.826314 0.338382
vt -2.815367 0.207711
vt -1.417785 0.222095
vt -2.835205 0.468284
vt -1.429945 0.468062
vt -1.424083 0.590684
vt -2.825022 0.597529
vt -1.417785 0.714035
vt -2.815376 0.728862
vt 0.329608 0.468063
vt 0.329067 0.590362
vt 0.329066 0.345757
vt 0.328635 0.224026
vt 0.328636 0.712095
vt 1.902057 0.468056
vt 1.895106 0.584754
vt 1.895105 0.351359
vt 1.886904 0.225816
vt 1.886906 0.710297
vt 2.832542 0.468055
vt 2.836870 0.608347
vt 2.836869 0.327762
vt 2.841389 0.202201
vt 2.841390 0.733908
vt 3.382846 0.468054
vt 3.378955 0.589060
vt 3.378955 0.347048
vt 3.379167 0.234068
vt 3.379168 0.702040
vt 3.747791 0.468053
vt 3.787781 0.566613
vt 3.787781 0.369494
vt 3.830283 0.269847
vt 3.830283 0.666260
vn 1.0000 0.0026 0.0003
vn 1.0000 0.0042 0.0007
vn 0.0009 -0.0886 -0.9961
vn 0.0004 -0.0630 -0.9980
vn 0.0001 0.0973 0.9953
vn -0.0000 0.0686 0.9976
vn -1.0000 0.0028 -0.0002
vn -1.0000 0.0047 -0.0002
vn 0.0000 -0.0056 1.0000
vn -1.0000 0.0005 0.0000
vn 1.0000 0.0007 0.0000
vn 0.0000 0.0063 -1.0000
vn -0.0002 -0.1487 0.9889
vn -1.0000 0.0044 0.0007
vn 1.0000 0.0039 0.0007
vn -0.0002 0.1569 -0.9876
vn 0.0003 -0.6623 0.7492
vn -1.0000 0.0041 0.0002
vn 1.0000 0.0038 0.0004
vn 0.0000 0.6672 -0.7449
vn -0.0000 -0.9991 0.0416
vn -1.0000 -0.0042 -0.0018
vn 1.0000 -0.0012 0.0014
vn -0.0039 0.9991 -0.0422
vn -0.0008 -0.9547 -0.2975
vn -1.0000 -0.0078 -0.0024
vn 1.0000 -0.0021 0.0035
vn -0.0082 0.9536 0.3008
usemtl Material6
s 1
f 91/91/91 92/92/92 93/93/93 94/94/94
f 95/95/95 96/96/96 97/97/97 98/98/98
f 96/96/96 95/95/95 92/92/92 91/91/91
f 98/98/98 97/97/97 94/99/94 93/100/93
f 97/97/97 96/96/96 99/101/99 100/102/100
f 96/96/96 91/91/91 101/103/101 99/101/99
f 91/91/91 94/94/94 102/104/102 101/103/101
f 94/99/94 97/97/97 100/102/100 102/105/102
f 100/102/100 99/101/99 103/106/103 104/107/104
f 99/101/99 101/103/101 105/108/105 103/106/103
f 101/103/101 102/104/102 106/109/106 105/108/105
f 102/105/102 100/102/100 104/107/104 106/110/106
f 104/107/104 103/106/103 107/111/107 108/112/108
f 103/106/103 105/108/105 109/113/109 107/111/107
f 105/108/105 106/109/106 110/114/110 109/113/109
f 106/110/106 104/107/104 108/112/108 110/115/110
f 108/112/108 107/111/107 111/116/111 112/117/112
f 107/111/107 109/113/109 113/118/113 111/116/111
f 109/113/109 110/114/110 114/119/114 113/118/113
f 110/115/110 108/112/108 112/117/112 114/120/114
f 115/121/115 116/122/116 112/117/112 111/116/111
f 117/123/117 115/121/115 111/116/111 113/118/113
f 118/124/118 117/123/117 113/118/113 114/119/114
f 114/120/114 112/117/112 116/122/116 118/125/118
g flower
v 0.000000 11.048720 3.909766
v 0.382896 11.283785 3.778655
v 0.000000 11.496600 4.096960
v -0.382896 11.283785 3.778655
v 0.000000 11.070969 3.460350
v -0.210516 11.615873 3.598092
v 0.000000 11.434093 3.491918
v 0.210516 11.615873 3.598092
v 0.000000 11.797653 3.704267
v -0.210516 14.166872 2.479455
v 0.000000 14.016864 2.331758
v 0.210516 14.166872 2.479455
v 0.000000 14.316880 2.627152
v -0.609322 14.216993 3.090209
v 0.218183 14.315028 3.313084
v 0.111199 14.407189 2.767529
v -0.290204 14.348669 2.672299
v -0.830127 13.826854 2.357652
v -0.394934 14.168960 2.322221
v -0.226026 13.553911 1.805291
v -0.106122 14.045185 2.058807
v 0.622084 13.652843 2.009745
v 0.289058 14.091424 2.154902
v 0.835538 14.038251 2.757991
v 0.395983 14.274120 2.505734
v -0.568918 13.406918 3.812426
v 0.031059 13.471353 3.974361
v 0.003540 13.998598 3.723172
v -0.542438 13.942070 3.574615
v -0.989771 13.267558 3.467424
v -0.910417 13.760498 3.261349
v -1.121992 12.997505 2.927468
v -1.057224 13.506456 2.755649
v -0.970001 12.716110 2.475458
v -0.924188 13.267277 2.304748
v -0.553406 12.541730 2.104903
v -0.528305 13.106133 1.943822
v 0.000319 12.460159 1.966119
v 0.005195 13.043862 1.821230
v 0.563793 12.540448 2.085973
v 0.527738 13.108871 1.950776
v 0.931088 12.738276 2.469139
v 0.915850 13.280941 2.275534
v 1.129747 13.004846 2.966199
v 1.085847 13.532997 2.753159
v 0.967563 13.208979 3.467733
v 0.931336 13.791973 3.236997
v 0.550911 13.412833 3.845660
v 0.517608 13.927684 3.570008
v -0.510921 12.092366 4.417082
v 0.001547 12.179195 4.507528
v 0.004581 12.635658 4.253705
v -0.542358 12.552673 4.148055
v -0.867084 11.722405 4.100955
v -0.935375 12.330813 3.792577
v -0.986288 11.405650 3.695343
v -1.036498 12.029395 3.346009
v -0.867775 11.137689 3.264094
v -0.904730 11.768180 2.925653
v -0.497177 10.894721 2.989477
v -0.531976 11.522183 2.596493
v 0.001459 10.793846 2.892023
v 0.005602 11.438889 2.460432
v 0.497209 10.855400 3.010258
v 0.531701 11.532503 2.589036
v 0.858212 11.123104 3.275949
v 0.913292 11.734382 2.901556
v 0.996091 11.408769 3.682931
v 1.042046 12.035100 3.346354
v 0.862545 11.738809 4.097323
v 0.908246 12.329538 3.810040
v 0.502834 12.092640 4.390593
v 0.520165 12.565070 4.103505
v -0.603677 11.993861 4.727532
v -0.000435 12.099580 4.802969
v -1.014250 11.546009 4.407642
v -1.146251 11.145082 3.930479
v -0.978755 10.797474 3.483143
v -0.583822 10.442440 3.189763
v 0.001588 10.328535 3.062303
v 0.593909 10.418819 3.193313
v 1.019277 10.752344 3.492657
v 1.148244 11.135989 3.941640
v 0.979255 11.561465 4.361736
v 0.574045 11.984737 4.660464
vt 0.264077 0.107378
vt 0.293222 0.076434
vt 0.300905 0.103762
vt 0.294652 0.137615
vt 0.253595 0.048559
vt 0.256990 0.169486
vt 0.322003 0.156327
vt 0.300719 0.200674
vt 0.300057 0.023728
vt 0.321764 0.068022
vt 0.342686 0.112071
vt 0.790343 0.159144
vt 0.777211 0.207436
vt 0.775914 0.014383
vt 0.789671 0.062556
vt 0.803442 0.110840
vt 0.489863 0.383412
vt 0.405344 0.423425
vt 0.389884 0.354215
vt 0.458500 0.326690
vt 0.560088 0.324366
vt 0.507197 0.282980
vt 0.606374 0.229210
vt 0.528660 0.230885
vt 0.181654 0.425319
vt 0.040945 0.341844
vt 0.141692 0.283511
vt 0.220449 0.340474
vt 0.301708 0.438055
vt 0.309403 0.360176
vt 0.532254 0.495998
vt 0.469953 0.530033
vt 0.446381 0.469395
vt 0.497624 0.443035
vt 0.579512 0.458161
vt 0.540328 0.417768
vt 0.629925 0.414479
vt 0.585293 0.378713
vt 0.676039 0.374894
vt 0.623550 0.338705
vt 0.718980 0.321771
vt 0.656592 0.283481
vt 0.765573 0.265617
vt 0.692197 0.220608
vt 0.100256 0.577050
vt 0.004950 0.576145
vt 0.024355 0.456239
vt 0.117648 0.487653
vt 0.184858 0.577948
vt 0.195865 0.498900
vt 0.267454 0.572012
vt 0.269429 0.502693
vt 0.340086 0.568980
vt 0.333656 0.495282
vt 0.411373 0.550575
vt 0.393888 0.485774
vt 0.650726 0.662635
vt 0.573040 0.718569
vt 0.524390 0.636108
vt 0.599657 0.593498
vt 0.729804 0.616398
vt 0.663949 0.544835
vt 0.789336 0.571304
vt 0.721976 0.501693
vt 0.841431 0.522402
vt 0.771977 0.458533
vt 0.896257 0.479448
vt 0.826126 0.413321
vt 0.946302 0.433484
vt 0.875593 0.361349
vt 0.111768 0.886651
vt 0.025517 0.891660
vt 0.012295 0.762702
vt 0.102113 0.753970
vt 0.199109 0.862260
vt 0.187033 0.742616
vt 0.288388 0.843212
vt 0.272701 0.723485
vt 0.381560 0.813284
vt 0.360735 0.701030
vt 0.478294 0.762679
vt 0.442018 0.669245
vt 0.681943 0.704430
vt 0.612097 0.770929
vt 0.756978 0.659719
vt 0.817453 0.611897
vt 0.872904 0.566386
vt 0.939462 0.528360
vt 0.995050 0.473607
vt 0.124761 0.965875
vt 0.025364 0.972119
vt 0.219674 0.936284
vt 0.312255 0.907152
vt 0.404221 0.867116
vt 0.502273 0.814380
vt 0.345015 0.236158
vt 0.412608 0.209592
vt 0.469254 0.255243
vt 0.333908 0.308008
vn 0.0000 -0.8422 0.5391
vn 0.9593 -0.2249 0.1710
vn -0.0087 0.1996 0.9798
vn -0.9478 -0.2716 0.1670
vn -0.0187 -0.7264 -0.6870
vn -0.9730 0.1822 -0.1419
vn -0.0138 -0.2076 -0.9781
vn 0.9606 0.2446 -0.1318
vn -0.0258 0.6264 0.7790
vn -0.9994 -0.0138 -0.0314
vn 0.0016 -0.4057 -0.9140
vn 1.0000 -0.0044 0.0037
vn -0.0342 0.4014 0.9153
vn -0.5521 0.8108 0.1942
vn 0.2034 0.9042 0.3757
vn 0.0972 0.9925 -0.0736
vn -0.2830 0.9434 -0.1731
vn -0.7484 0.4727 -0.4652
vn -0.3836 0.7713 -0.5078
vn -0.2017 0.2264 -0.9529
vn -0.1070 0.6515 -0.7511
vn 0.5444 0.3165 -0.7768
vn 0.2739 0.6969 -0.6628
vn 0.7334 0.6696 -0.1174
vn 0.3762 0.8686 -0.3226
vn -0.4824 0.3338 0.8099
vn -0.0093 0.3790 0.9253
vn 0.0111 0.6322 0.7747
vn -0.4878 0.5718 0.6596
vn -0.8620 0.2167 0.4582
vn -0.8344 0.4487 0.3202
vn -0.9988 0.0174 -0.0464
vn -0.9562 0.2480 -0.1556
vn -0.8571 -0.1744 -0.4847
vn -0.8248 0.0559 -0.5626
vn -0.5030 -0.3058 -0.8084
vn -0.4740 -0.0976 -0.8751
vn -0.0178 -0.3464 -0.9379
vn -0.0123 -0.1442 -0.9895
vn 0.5240 -0.2837 -0.8031
vn 0.4848 -0.0793 -0.8710
vn 0.8650 -0.1668 -0.4732
vn 0.8250 0.0331 -0.5642
vn 0.9997 -0.0081 -0.0243
vn 0.9641 0.2354 -0.1231
vn 0.8614 0.1838 0.4736
vn 0.8379 0.4446 0.3165
vn 0.5070 0.3245 0.7985
vn 0.4941 0.5842 0.6439
vn -0.5577 0.6802 0.4757
vn 0.0298 0.7854 0.6182
vn 0.0074 0.4040 0.9147
vn -0.5097 0.3436 0.7888
vn -0.9035 0.3888 0.1802
vn -0.8775 0.1499 0.4555
vn -0.9836 0.1241 -0.1310
vn -0.9966 -0.0768 0.0298
vn -0.8522 -0.1593 -0.4983
vn -0.8651 -0.2756 -0.4191
vn -0.4991 -0.3769 -0.7803
vn -0.5010 -0.4285 -0.7519
vn -0.0047 -0.4536 -0.8912
vn -0.0100 -0.4942 -0.8693
vn 0.4890 -0.3729 -0.7885
vn 0.5177 -0.4345 -0.7370
vn 0.8515 -0.1581 -0.4999
vn 0.8676 -0.2691 -0.4181
vn 0.9869 0.1214 -0.1058
vn 0.9977 -0.0650 0.0179
vn 0.8967 0.3710 0.2414
vn 0.8687 0.1426 0.4744
vn 0.5674 0.6423 0.5153
vn 0.5199 0.3181 0.7928
vn -0.4938 0.8595 0.1318
vn 0.0309 0.9583 0.2841
vn -0.8123 0.5779 -0.0784
vn -0.9001 0.3123 -0.3039
vn -0.8144 -0.0353 -0.5793
vn -0.4971 -0.2894 -0.8180
vn -0.0062 -0.3521 -0.9359
vn 0.4642 -0.2564 -0.8478
vn 0.8072 -0.0029 -0.5903
vn 0.9221 0.3025 -0.2411
vn 0.8371 0.5469 0.0142
vn 0.5300 0.8214 0.2106
usemtl flower
s 1
f 119/126/119 120/127/120 121/128/121
f 121/128/121 122/129/122 119/126/119
f 119/126/119 123/130/123 120/127/120
f 119/126/119 122/129/122 123/131/123
f 123/131/123 122/129/122 124/132/124 125/133/125
f 120/127/120 123/130/123 125/134/125 126/135/126
f 121/128/121 120/127/120 126/135/126 127/136/127
f 127/136/127 124/132/124 122/129/122 121/128/121
f 125/133/125 124/132/124 128/137/128 129/138/129
f 126/135/126 125/134/125 129/139/129 130/140/130
f 127/136/127 126/135/126 130/140/130 131/141/131
f 131/141/131 128/137/128 124/132/124 127/136/127
f 132/142/132 133/143/133 134/144/134 135/145/135
f 136/146/136 132/142/132 135/145/135 137/147/137
f 138/148/138 136/146/136 137/147/137 139/149/139
f 140/150/140 138/151/138 139/152/139 141/153/141
f 142/154/142 140/150/140 141/153/141 143/155/143
f 133/143/133 142/154/142 143/155/143 134/144/134
f 144/156/144 145/157/145 146/158/146 147/159/147
f 148/160/148 144/156/144 147/159/147 149/161/149
f 150/162/150 148/160/148 149/161/149 151/163/151
f 152/164/152 150/162/150 151/163/151 153/165/153
f 154/166/154 152/164/152 153/165/153 155/167/155
f 156/168/156 154/166/154 155/167/155 157/169/157
f 158/170/158 156/171/156 157/172/157 159/173/159
f 160/174/160 158/170/158 159/173/159 161/175/161
f 162/176/162 160/174/160 161/175/161 163/177/163
f 164/178/164 162/176/162 163/177/163 165/179/165
f 166/180/166 164/178/164 165/179/165 167/181/167
f 145/157/145 166/180/166 167/181/167 146/158/146
f 168/182/168 169/183/169 170/184/170 171/185/171
f 172/186/172 168/182/168 171/185/171 173/187/173
f 174/188/174 172/186/172 173/187/173 175/189/175
f 176/190/176 174/188/174 175/189/175 177/191/177
f 178/192/178 176/190/176 177/191/177 179/193/179
f 180/194/180 178/192/178 179/193/179 181/195/181
f 182/196/182 180/197/180 181/198/181 183/199/183
f 184/200/184 182/196/182 183/199/183 185/201/185
f 186/202/186 184/200/184 185/201/185 187/203/187
f 188/204/188 186/202/186 187/203/187 189/205/189
f 190/206/190 188/204/188 189/205/189 191/207/191
f 169/183/169 190/206/190 191/207/191 170/184/170
f 146/158/146 133/143/133 132/142/132 147/159/147
f 147/159/147 132/142/132 149/161/149
f 149/161/149 132/142/132 136/146/136 151/163/151
f 151/163/151 136/146/136 153/165/153
f 153/165/153 136/146/136 138/148/138 155/167/155
f 155/167/155 138/148/138 157/169/157
f 157/172/157 138/151/138 140/150/140 159/173/159
f 159/173/159 140/150/140 161/175/161
f 161/175/161 140/150/140 142/154/142 163/177/163
f 163/177/163 142/154/142 165/179/165
f 165/179/165 142/154/142 133/143/133 167/181/167
f 167/181/167 133/143/133 146/158/146
f 170/184/170 145/157/145 144/156/144 171/185/171
f 171/185/171 144/156/144 148/160/148 173/187/173
f 173/187/173 148/160/148 150/162/150 175/189/175
f 175/189/175 150/162/150 152/164/152 177/191/177
f 177/191/177 152/164/152 154/166/154 179/193/179
f 179/193/179 154/166/154 156/168/156 181/195/181
f 181/198/181 156/171/156 158/170/158 183/199/183
f 183/199/183 158/170/158 160/174/160 185/201/185
f 185/201/185 160/174/160 162/176/162 187/203/187
f 187/203/187 162/176/162 164/178/164 189/205/189
f 189/205/189 164/178/164 166/180/166 191/207/191
f 191/207/191 166/180/166 145/157/145 170/184/170
f 192/208/192 193/209/193 169/183/169 168/182/168
f 194/210/194 192/208/192 168/182/168 172/186/172
f 195/211/195 194/210/194 172/186/172 174/188/174
f 196/212/196 195/211/195 174/188/174 176/190/176
f 197/213/197 196/212/196 176/190/176 178/192/178
f 198/214/198 197/213/197 178/192/178 180/194/180
f 199/215/199 198/216/198 180/197/180 182/196/182
f 200/217/200 199/215/199 182/196/182 184/200/184
f 201/218/201 200/217/200 184/200/184 186/202/186
f 202/219/202 201/218/201 186/202/186 188/204/188
f 203/220/203 202/219/202 188/204/188 190/206/190
f 193/209/193 203/220/203 190/206/190 169/183/169
f 141/221/141 139/222/139 137/223/137 135/145/135 134/144/134 143/224/143
