# Blender v2.83 (sub 11) OBJ File: ''
# www.blender.org
o tris.001
v -0.761711 -0.205966 0.630677
v 0.300362 -0.205966 -0.193723
v -0.613281 3.786802 0.515465
v 1.269602 3.786803 -0.946063
v 0.540146 8.164524 -0.774397
v 1.408177 11.175860 -0.628911
v 2.583877 6.902173 -1.744046
v 1.433589 3.402380 -2.127772
v -1.299535 5.989596 2.038105
v -0.287489 10.393741 1.651437
v -0.278920 3.446081 -0.235871
v 0.402631 -0.300772 -0.440844
v -1.352339 5.117555 1.966310
v -0.516435 -0.256292 0.746425
v -0.539559 2.321785 0.593435
v 0.493980 4.078627 2.984938
v -0.752968 6.079042 2.752200
v 0.412936 -0.178928 0.443180
v -2.121876 5.909950 -0.361739
v -0.188993 -0.181835 -0.341431
v -1.826227 2.315166 -1.833418
v -1.177702 7.211157 -0.646426
v 0.270882 11.753381 -0.995461
v 1.572005 7.753984 -1.491952
v -1.555746 11.731644 -0.352979
v -1.834236 6.698045 1.152035
v 0.269588 2.336464 -0.522199
v -0.754164 4.168017 -2.404874
v 1.484797 6.249560 -2.249522
v -0.447584 -0.191898 -0.581088
v 2.704780 5.952761 -0.018076
v 0.351154 -0.199408 0.062641
v 2.532227 2.281580 1.164142
v -0.204736 12.429034 -1.531336
v 1.039170 8.761819 0.930960
v -0.500887 9.517425 -2.538616
v 0.288790 13.211209 1.138400
v 0.075650 4.285439 -1.975151
v -0.371545 8.761817 2.460204
v -2.825001 9.698579 0.105471
v -1.923272 4.285437 0.556934
v 1.061366 4.285437 0.906898
v 0.160276 0.140051 -1.071716
v -0.289412 -0.143555 0.550247
v 0.029554 4.285437 2.025404
v -1.084934 -0.030407 0.485931
vt 0.039368 0.270996
vt 0.046722 0.427246
vt 0.091919 0.270996
vt 0.139893 0.427246
vt 0.682617 0.875122
vt 0.702148 0.986679
vt 0.764648 0.824097
vt 0.750000 0.693848
vt 0.564453 0.785522
vt 0.556641 0.982361
vt 0.659180 0.693848
vt 0.685547 0.547363
vt 0.565918 0.752441
vt 0.626953 0.547363
vt 0.294922 0.642334
vt 0.382568 0.711426
vt 0.332031 0.790283
vt 0.312256 0.542969
vt 0.224854 0.782471
vt 0.273438 0.542969
vt 0.189453 0.641602
vt 0.083069 0.561768
vt 0.123596 0.739258
vt 0.167358 0.582520
vt 0.064392 0.738525
vt -0.001195 0.541260
vt 0.294922 0.642334
vt 0.332031 0.790283
vt 0.382568 0.711426
vt 0.312256 0.542969
vt 0.224854 0.782471
vt 0.273438 0.542969
vt 0.189453 0.641602
vt 0.933105 0.502441
vt 0.852051 0.359863
vt 0.986816 0.389160
vt 0.821777 0.533936
vt 0.958008 0.185547
vt 0.738281 0.359863
vt 0.587402 0.405273
vt 0.673828 0.185547
vt 0.857422 0.185547
vt 0.909180 0.024414
vt 0.816895 0.013184
vt 0.769043 0.185547
vt 0.719727 0.017578
vn -0.6132 0.0000 -0.7899
vn -0.6566 -0.1893 -0.7301
vn -0.5321 -0.1490 -0.8335
vn -0.6309 0.1503 -0.7612
vn -0.3493 0.1454 -0.9256
vn -0.3238 0.1880 -0.9273
vn -0.6785 0.0223 -0.7342
vn -0.8694 0.1127 -0.4810
vn -0.8786 0.1625 -0.4491
vn -0.8289 -0.0153 -0.5593
vn -0.7730 -0.1064 -0.6254
vn -0.8791 0.0586 -0.4730
vn -0.8275 -0.0938 -0.5536
vn -0.8094 -0.3031 0.5030
vn -0.7257 -0.3661 0.5826
vn -0.8139 -0.3235 0.4826
vn -0.7534 -0.3214 0.5737
vn -0.8667 -0.2706 0.4191
vn -0.7918 -0.3079 0.5275
vn -0.8508 -0.2685 0.4518
vn -0.6714 -0.1264 -0.7303
vn -0.3203 0.0294 -0.9469
vn -0.2863 -0.0410 -0.9573
vn -0.4835 0.0164 -0.8752
vn -0.9036 -0.1898 -0.3840
vn -0.6616 0.2631 0.7022
vn -0.6763 0.4629 0.5730
vn -0.5613 0.4196 0.7134
vn -0.6634 0.1712 0.7284
vn -0.7063 0.3936 0.5884
vn -0.6062 0.1602 0.7790
vn -0.5772 0.2348 0.7821
vn 0.9453 0.1159 -0.3049
vn 0.9813 0.0661 0.1810
vn 0.9169 0.0509 -0.3959
vn 0.8229 0.3697 0.4316
vn 0.9401 -0.0066 -0.3409
vn 0.0040 0.0856 0.9963
vn -0.6601 0.1305 0.7397
vn -0.6197 -0.1151 0.7764
vn 0.9670 -0.1040 0.2325
vn 0.9738 -0.2256 0.0293
vn 0.5290 -0.3810 0.7582
vn 0.1295 -0.1733 0.9763
vn -0.2567 -0.2652 0.9294
s 1
f 1/1/1 3/2/2 2/3/1
f 3/2/2 4/4/3 2/3/1
f 5/5/4 6/6/5 7/7/6
f 5/5/4 7/7/6 8/8/7
f 9/9/8 10/10/9 5/5/4
f 11/11/10 5/5/4 8/8/7
f 9/9/8 5/5/4 11/11/10
f 12/12/11 11/11/10 8/8/7
f 13/13/12 9/9/8 11/11/10
f 14/14/13 11/11/10 12/12/11
f 11/11/10 14/14/13 13/13/12
f 15/15/14 16/16/15 17/17/16
f 15/15/14 18/18/17 16/16/15
f 19/19/18 15/15/14 17/17/16
f 20/20/19 18/18/17 15/15/14
f 21/21/20 15/15/14 19/19/18
f 20/20/19 15/15/14 21/21/20
f 22/22/21 23/23/22 24/24/23
f 22/22/21 24/24/23 4/4/3
f 25/25/24 23/23/22 22/22/21
f 3/2/2 22/22/21 4/4/3
f 26/26/25 25/25/24 22/22/21
f 3/2/2 26/26/25 22/22/21
f 27/27/26 29/28/27 28/29/28
f 27/27/26 28/29/28 30/30/29
f 31/31/30 29/28/27 27/27/26
f 32/32/31 27/27/26 30/30/29
f 33/33/32 31/31/30 27/27/26
f 32/32/31 33/33/32 27/27/26
f 34/34/33 35/35/34 36/36/35
f 35/35/34 34/34/33 37/37/36
f 35/35/34 38/38/37 36/36/35
f 39/39/38 35/35/34 37/37/36
f 40/40/39 39/39/38 37/37/36
f 41/41/40 39/39/38 40/40/39
f 42/42/41 38/38/37 35/35/34
f 42/42/41 43/43/42 38/38/37
f 44/44/43 43/43/42 42/42/41
f 35/35/34 39/39/38 45/45/44
f 45/45/44 42/42/41 35/35/34
f 39/39/38 41/41/40 45/45/44
f 45/45/44 44/44/43 42/42/41
f 46/46/45 45/45/44 41/41/40
f 46/46/45 44/44/43 45/45/44
