mtllib model.mtl
o model.obj
v -0.178176 -0.277464 0.669888
v -0.178176 0.277464 0.669888
v -0.178176 0.669888 0.277464
v -0.178176 0.669888 -0.277464
v -0.178176 0.277464 -0.669888
v -0.178176 -0.277464 -0.669888
v -0.178176 -0.669888 -0.277464
v -0.178176 -0.669888 0.277464
v 0.178176 0.000000 0.000000
v -0.178176 0.832104 0.153168
v -0.178176 1.219584 -0.190632
v -0.178176 1.219584 0.191064
v -0.178176 2.302008 -0.233808
v -0.178176 2.302008 0.233808
v -0.178176 5.091888 -0.143376
v -0.178176 5.091888 0.143376
v -0.178176 7.675632 -0.193200
v -0.178176 7.675632 0.193200
v 0.178176 -0.277464 0.669888
v 0.178176 -0.277464 0.669888
v 0.178176 0.277464 0.669888
v 0.178176 0.277464 0.669888
v 0.178176 0.669888 0.277464
v 0.178176 0.669888 0.277464
v 0.178176 0.669888 -0.277464
v 0.178176 0.669888 -0.277464
v 0.178176 0.277464 -0.669888
v 0.178176 0.277464 -0.669888
v 0.178176 -0.277464 -0.669888
v 0.178176 -0.277464 -0.669888
v 0.178176 -0.669888 -0.277464
v 0.178176 -0.669888 -0.277464
v 0.178176 -0.669888 0.277464
v 0.178176 -0.669888 0.277464
v 0.178176 0.832104 0.153168
v 0.178176 0.832104 0.153168
v 0.178176 0.832104 -0.153168
v 0.178176 1.219584 0.191064
v 0.178176 1.219584 0.191064
v 0.178176 1.219584 -0.190632
v 0.178176 1.219584 -0.190632
v 0.178176 2.302008 0.233808
v 0.178176 2.302008 0.233808
v 0.178176 2.302008 -0.233808
v 0.178176 2.302008 -0.233808
v 0.178176 5.091888 0.143376
v 0.178176 5.091888 0.143376
v 0.178176 5.091888 -0.143376
v 0.178176 5.091888 -0.143376
v 0.178176 7.675632 0.193200
v 0.178176 7.675632 0.193200
v 0.178176 7.675632 -0.193200
v 0.178176 7.675632 -0.193200
v -0.178176 10.801296 -0.085584
v -0.178176 10.801296 -0.085584
v -0.178176 10.801296 0.085584
v -0.178176 10.801296 0.085584
v 0.178176 10.801296 0.085584
v 0.178176 10.801296 0.085584
v 0.178176 10.801296 0.085584
v 0.178176 10.801296 -0.085584
v 0.178176 10.801296 -0.085584
v 0.178176 10.801296 -0.085584
v -0.178176 0.832104 -0.153168
v -0.178176 0.832104 -0.153168
v 0.178176 0.832104 -0.153168
v 0.178176 0.832104 -0.153168
vn 0.000000 -0.382683 0.923880
vn 0.000000 0.382683 0.923880
vn 0.000000 0.659088 0.752066
vn 0.000000 0.659088 -0.752066
vn 0.000000 0.382683 -0.923880
vn 0.000000 -0.382683 -0.923880
vn 0.000000 -0.923880 -0.382683
vn 0.000000 -0.923880 0.382683
vn 1.000000 0.000000 0.000000
vn 0.000000 0.274587 0.961562
vn 0.000000 -0.068074 -0.997680
vn 0.000000 -0.068426 0.997656
vn 0.000000 -0.003732 -0.999993
vn 0.000000 -0.003533 0.999994
vn 0.000000 0.006561 -0.999978
vn 0.000000 0.006561 0.999978
vn 0.000000 0.007567 -0.999971
vn 0.000000 0.007567 0.999971
vn 0.000000 -0.382683 0.923880
vn 1.000000 0.000000 0.000000
vn 0.000000 0.382683 0.923880
vn 1.000000 0.000000 0.000000
vn 0.000000 0.659088 0.752066
vn 1.000000 0.000000 0.000000
vn 1.000000 0.000000 0.000000
vn 0.000000 0.659088 -0.752066
vn 0.000000 0.382683 -0.923880
vn 1.000000 0.000000 0.000000
vn 0.000000 -0.382683 -0.923880
vn 1.000000 0.000000 0.000000
vn 0.000000 -0.923880 -0.382683
vn 1.000000 0.000000 0.000000
vn 0.000000 -0.923880 0.382683
vn 1.000000 0.000000 0.000000
vn 0.000000 0.274587 0.961562
vn 1.000000 0.000000 0.000000
vn 1.000000 0.000000 0.000000
vn 0.000000 -0.068426 0.997656
vn 1.000000 0.000000 0.000000
vn 0.000000 -0.068074 -0.997680
vn 1.000000 0.000000 0.000000
vn 0.000000 -0.003533 0.999994
vn 1.000000 0.000000 0.000000
vn 0.000000 -0.003732 -0.999993
vn 1.000000 0.000000 0.000000
vn 1.000000 0.000000 0.000000
vn 0.000000 0.006561 0.999978
vn 1.000000 0.000000 0.000000
vn 0.000000 0.006561 -0.999978
vn 0.000000 0.007567 0.999971
vn 1.000000 0.000000 0.000000
vn 0.000000 0.007567 -0.999971
vn 1.000000 0.000000 0.000000
vn 0.000000 1.000000 0.000000
vn 0.000000 0.034409 -0.999408
vn 0.000000 1.000000 0.000000
vn 0.000000 0.034409 0.999408
vn 1.000000 0.000000 0.000000
vn 0.000000 1.000000 0.000000
vn 0.000000 0.034409 0.999408
vn 1.000000 0.000000 0.000000
vn 0.000000 1.000000 0.000000
vn 0.000000 0.034409 -0.999408
vn 0.000000 0.608217 -0.793771
vn 0.000000 -0.096238 -0.995358
vn 0.000000 0.608217 -0.793771
vn 0.000000 -0.096238 -0.995358
vt 0.665732 0.655480
vt 0.665732 0.712852
vt 0.484021 0.712852
vt 0.484021 0.655480
vt 0.151906 0.086718
vt 0.151906 0.038821
vt 0.500000 0.062770
vt 0.665732 0.598104
vt 0.484021 0.598104
vt 0.355821 0.120589
vt 0.644179 0.120589
vt 0.665732 0.942349
vt 0.665732 0.999726
vt 0.484021 0.999726
vt 0.484021 0.942349
vt 0.848094 0.086718
vt 0.665732 0.884977
vt 0.484021 0.884977
vt 0.848094 0.038821
vt 0.665732 0.827601
vt 0.484021 0.827601
vt 0.644179 0.004951
vt 0.665732 0.770229
vt 0.484021 0.770229
vt 0.355821 0.004951
vt 0.484021 0.576976
vt 0.665732 0.576976
vt 0.579591 0.134590
vt 0.420409 0.134590
vt 0.665732 1.020854
vt 0.484021 1.020854
vt 0.484021 0.536724
vt 0.665732 0.536724
vt 0.599058 0.168034
vt 0.400717 0.168034
vt 0.380190 1.258048
vt 0.198479 1.258048
vt 0.198479 1.217801
vt 0.380190 1.217801
vt 0.484021 0.424729
vt 0.665732 0.424729
vt 0.621494 0.261460
vt 0.378506 0.261460
vt 0.198479 1.105804
vt 0.380190 1.105804
vt 0.484021 0.136142
vt 0.665732 0.136142
vt 0.574503 0.502260
vt 0.425497 0.502260
vt 0.198479 0.817217
vt 0.380190 0.817217
vt 0.484021 -0.131031
vt 0.665732 -0.131031
vt 0.600393 0.725268
vt 0.399607 0.725268
vt 0.198479 0.550043
vt 0.380190 0.550044
vt 0.484017 -0.454374
vt 0.665727 -0.454374
vt 0.544472 0.995049
vt 0.455528 0.995049
vt 0.198479 0.226701
vt 0.380190 0.226701
vt 0.718990 -0.397802
vt 0.718990 -0.434644
vt 0.806274 -0.434644
vt 0.806274 -0.397802
g base
usemtl Default
f 2/1/2 1/2/1 19/3/19 21/4/21 
f 22/5/22 20/6/20 9/7/9 
f 3/8/3 2/1/2 21/4/21 23/9/23 
f 24/10/24 22/5/22 9/7/9 
f 25/11/25 24/10/24 9/7/9 
f 5/12/5 4/13/4 26/14/26 27/15/27 
f 28/16/28 25/11/25 9/7/9 
f 6/17/6 5/12/5 27/15/27 29/18/29 
f 30/19/30 28/16/28 9/7/9 
f 7/20/7 6/17/6 29/18/29 31/21/31 
f 32/22/32 30/19/30 9/7/9 
f 8/23/8 7/20/7 31/21/31 33/24/33 
f 34/25/34 32/22/32 9/7/9 
f 1/2/1 8/23/8 33/24/33 19/3/19 
f 20/6/20 34/25/34 9/7/9 
f 3/8/3 23/9/23 35/26/35 10/27/10 
f 24/10/24 25/11/25 37/28/37 36/29/36 
f 26/14/26 4/13/4 64/30/64 66/31/66 
f 10/27/10 35/26/35 38/32/38 12/33/12 
f 36/29/36 37/28/37 41/34/41 39/35/39 
f 67/36/67 65/37/65 11/38/11 40/39/40 
f 12/33/12 38/32/38 42/40/42 14/41/14 
f 39/35/39 41/34/41 45/42/45 43/43/43 
f 40/39/40 11/38/11 13/44/13 44/45/44 
f 14/41/14 42/40/42 47/46/47 16/47/16 
f 43/43/43 45/42/45 48/48/48 46/49/46 
f 44/45/44 13/44/13 15/50/15 49/51/49 
f 50/52/50 18/53/18 16/47/16 47/46/47 
f 46/49/46 48/48/48 53/54/53 51/55/51 
f 49/51/49 15/50/15 17/56/17 52/57/52 
f 60/58/60 57/59/57 18/53/18 50/52/50 
f 51/55/51 53/54/53 61/60/61 58/61/58 
f 52/57/52 17/56/17 55/62/55 63/63/63 
f 62/64/62 54/65/54 56/66/56 59/67/59 
