# Blender v2.83 (sub 11) OBJ File: ''
# www.blender.org
o tris
v -0.269688 8.705459 -3.340549
v -0.163765 9.869117 -5.189154
v -2.355007 6.587011 -5.034001
v -0.252211 4.592617 0.019647
v 1.315854 9.124069 1.500192
v 1.518877 4.622509 0.954218
v -0.828258 9.190200 0.091908
v 4.225470 5.342834 -1.688626
v 3.883125 2.511065 0.746758
v 5.737164 4.079292 -1.179475
v -2.676762 -0.151502 0.262181
v -4.532781 3.341033 3.125584
v -1.944386 2.470349 1.521938
v -2.966564 5.058579 3.751575
v -4.888401 3.966820 4.774243
v 0.146074 4.999433 4.700858
v 3.556266 2.534413 4.424441
v 2.249656 4.642983 5.920146
v -2.152101 6.480519 -3.078404
v -0.496256 3.236081 -3.972281
v -2.216375 5.631413 -4.926612
v -2.576296 2.409795 0.647515
v -3.292214 2.329618 3.462552
v -1.859618 1.523301 2.726226
v 3.187607 3.487661 -1.311208
v 2.476791 5.674859 -1.672294
v 0.754814 5.758492 -0.368497
v -1.725722 5.148743 0.498672
v -1.448039 2.730322 1.943601
v 3.398782 1.675930 1.335724
v 6.414296 1.286502 -0.874018
v 4.633880 1.042536 -0.997511
v 6.869846 3.074745 2.051478
v 5.062146 3.347662 4.035056
v 3.647523 0.896788 4.110927
v 7.598008 3.082491 0.016335
v 1.186265 2.312876 1.696807
v 2.960166 -0.350891 0.784836
v -1.325401 0.046276 -0.397365
v -2.393304 4.653543 -0.397363
v -4.275447 10.051271 -0.397361
v -1.855947 12.856567 1.174752
v 1.679656 -0.078275 1.695364
v 2.377329 -0.075535 0.230777
v 0.889534 -0.089599 0.853556
v 2.491068 0.228244 -0.079878
v 3.631962 4.653543 -0.079876
v 4.310602 10.238813 -0.079874
v 2.711999 13.293192 1.075525
v -0.095213 14.169559 2.072181
v -0.429645 0.091606 -1.721898
v -0.216851 4.265917 -1.385470
v 0.507446 0.028107 -0.636623
v 1.444461 4.153343 0.538546
v 0.740771 8.026647 -0.689655
v -0.094273 7.455801 -2.527875
v -3.428232 4.552789 3.000739
v -4.381057 4.576227 1.068593
v -3.707548 4.552968 -1.543436
v -3.428375 1.820281 -2.227672
v -1.050244 -0.064462 -1.023327
v -0.954337 -0.055864 0.596085
v -1.817869 -0.004247 -0.013255
v -2.083498 3.659610 -0.085305
v -0.956279 0.078992 -0.900203
v -0.556037 3.807180 -1.657720
v -2.194437 6.833878 -1.087979
v -3.670523 6.161206 0.102459
v -1.088800 7.380478 -2.829103
v -3.745205 10.639819 -1.697432
v -2.776363 10.745173 -2.698106
v 1.867322 12.519748 -1.991162
v 2.929003 12.407159 -1.093092
v 2.908307 8.306553 0.605149
v 1.643821 -0.088327 1.719553
v 1.040993 0.148066 0.713500
v 1.683731 3.395523 2.384537
v 0.615013 3.814610 0.600967
v 0.873793 6.498397 2.618903
v 1.575199 5.611546 4.198301
v -0.439797 7.268912 1.231922
v 0.094828 10.027466 4.358395
v -0.585570 10.304787 3.227691
v 4.100265 5.573396 -0.257904
v 5.252237 3.754337 0.818594
v 6.329378 4.596778 -0.350258
v 2.258855 2.720374 0.830461
v 2.421353 -0.065709 1.929919
v 1.843799 5.709529 -2.599479
v -0.383278 2.651478 -0.863866
v -2.239630 -0.077457 -1.289241
v -1.144290 3.298751 -4.343503
v 0.614536 5.568816 -4.722660
v -2.282246 3.604898 -3.640074
v 2.898045 6.066466 -2.377443
v 3.447688 10.354226 -4.106311
v -0.129018 4.004058 -1.692720
v -0.810390 -0.192152 -1.874308
v 2.577277 3.684296 -1.668030
v 0.717292 -0.186555 -1.387053
v 2.052157 2.611579 -1.385269
v 0.938428 1.623931 -3.521557
v 2.931508 3.768273 -4.914955
v -0.038621 -0.303802 -1.809451
v 1.818966 -0.214970 1.228637
v -2.230190 3.236080 -1.758334
v -4.353977 2.426260 -0.488185
v -5.439345 5.291969 -1.547340
v -3.062546 -0.008359 -0.404994
v -0.419007 -0.008358 -2.792503
v -0.648069 -0.094425 0.515646
v -0.225213 2.083662 -0.597503
v 0.697953 -0.022369 -0.387019
v 2.302409 1.941753 -1.578127
vt 0.682617 0.875122
vt 0.702148 0.986679
vt 0.764648 0.824097
vt 0.769043 0.185547
vt 0.857422 0.185547
vt 0.852051 0.359863
vt 0.738281 0.359863
vt 0.414551 0.256836
vt 0.348633 0.132324
vt 0.342041 0.235352
vt 0.274170 0.273926
vt 0.169678 0.438477
vt 0.313965 0.382324
vt 0.303955 0.520264
vt 0.208008 0.502686
vt 0.438232 0.520264
vt 0.563965 0.498535
vt 0.572754 0.408203
vt 0.414551 0.256836
vt 0.348633 0.132324
vt 0.342041 0.235352
vt 0.187622 0.132324
vt 0.090210 0.084961
vt 0.074280 0.142578
vt 0.074280 0.142578
vt 0.093018 0.228516
vt 0.174316 0.243164
vt 0.279541 0.229492
vt 0.307373 0.121582
vt 0.187622 0.132324
vt 0.090210 0.084961
vt 0.074280 0.142578
vt 0.174316 0.243164
vt 0.279541 0.229492
vt 0.307373 0.121582
vt 0.093018 0.228516
vt 0.439697 0.382324
vt 0.495850 0.273926
vt 0.719727 0.017578
vt 0.673828 0.185547
vt 0.587402 0.405273
vt 0.728027 0.482422
vt 0.252686 0.013672
vt 0.186279 0.013672
vt 0.829102 0.012695
vt 0.909180 0.024414
vt 0.958008 0.185547
vt 0.986816 0.389160
vt 0.933105 0.502441
vt 0.821777 0.533936
vt 0.039368 0.270996
vt 0.091919 0.270996
vt 0.046722 0.427246
vt 0.139893 0.427246
vt 0.083069 0.561768
vt -0.001195 0.541260
vt 0.093018 0.228516
vt 0.174316 0.243164
vt 0.279541 0.229492
vt 0.307373 0.121582
vt 0.252686 0.013672
vt 0.186279 0.013672
vt 0.039368 0.270996
vt 0.091919 0.270996
vt 0.046722 0.427246
vt 0.139893 0.427246
vt 0.083069 0.561768
vt -0.001195 0.541260
vt 0.167358 0.582520
vt 0.064392 0.738525
vt 0.123596 0.739258
vt 0.064392 0.738525
vt 0.123596 0.739258
vt 0.167358 0.582520
vt 0.039368 0.270996
vt 0.091919 0.270996
vt 0.046722 0.427246
vt 0.139893 0.427246
vt 0.083069 0.561768
vt -0.001195 0.541260
vt 0.167358 0.582520
vt 0.064392 0.738525
vt 0.123596 0.739258
vt 0.303955 0.520264
vt 0.169678 0.438477
vt 0.208008 0.502686
vt 0.313965 0.382324
vt 0.274170 0.273926
vt 0.438232 0.520264
vt 0.439697 0.382324
vt 0.495850 0.273926
vt 0.572754 0.408203
vt 0.563965 0.498535
vt 0.750000 0.693848
vt 0.564453 0.785522
vt 0.556641 0.982361
vt 0.659180 0.693848
vt 0.685547 0.547363
vt 0.568359 0.693848
vt 0.626953 0.547363
vt 0.450195 0.132324
vt 0.562012 0.218750
vt 0.539062 0.102539
vt 0.505859 0.013672
vt 0.375488 0.013672
vt 0.450195 0.132324
vt 0.562012 0.218750
vt 0.539062 0.102539
vt 0.505859 0.013672
vt 0.375488 0.013672
vt 0.252686 0.013672
vt 0.187622 0.132324
vt 0.186279 0.013672
vt 0.090210 0.084961
vn -0.4901 0.4429 0.7508
vn -0.7882 0.5402 0.2949
vn -0.7747 0.3327 0.5377
vn -0.3581 -0.0369 0.9330
vn 0.0163 -0.0829 0.9964
vn 0.0078 -0.1422 0.9898
vn -0.3696 -0.2017 0.9070
vn -0.4652 0.7296 0.5013
vn -0.4767 0.6066 0.6363
vn 0.2594 0.6115 0.7475
vn -0.0605 0.4372 -0.8973
vn -0.4340 0.6120 -0.6611
vn -0.0745 0.5658 -0.8212
vn -0.1456 0.6964 -0.7027
vn -0.6034 0.6936 -0.3934
vn 0.3192 0.7259 -0.6093
vn 0.4487 0.6851 -0.5738
vn 0.5121 0.6752 -0.5309
vn 0.7351 0.4458 0.5108
vn 0.8343 0.3001 0.4624
vn 0.8306 0.4945 -0.2561
vn -0.7511 -0.6520 0.1037
vn -0.6907 -0.7199 -0.0689
vn -0.8103 -0.5854 -0.0270
vn 0.3775 -0.0768 0.9228
vn 0.5829 0.3132 0.7498
vn 0.4911 0.0898 0.8665
vn 0.1653 0.5198 0.8382
vn 0.7820 0.0464 0.6215
vn 0.5306 -0.8386 0.1233
vn 0.2649 -0.8859 0.3807
vn 0.3491 -0.8520 0.3903
vn 0.5354 -0.7767 0.3319
vn 0.6634 -0.3627 0.6545
vn 0.6311 -0.7747 -0.0387
vn 0.7407 -0.6184 0.2627
vn 0.2980 0.6137 -0.7312
vn 0.3451 0.5014 -0.7934
vn -0.4187 0.0155 0.9080
vn -0.1841 -0.0445 0.9819
vn -0.1866 -0.2006 0.9617
vn -0.3289 -0.2738 0.9038
vn 0.7188 -0.6929 0.0562
vn 0.6547 -0.6378 0.4057
vn -0.0502 -0.0200 0.9985
vn 0.4947 -0.0939 0.8640
vn 0.4484 -0.0928 0.8890
vn 0.4850 -0.0671 0.8719
vn 0.3901 -0.0369 0.9200
vn -0.0289 -0.1206 0.9923
vn -0.7572 -0.0140 0.6530
vn -0.7886 0.0472 0.6131
vn -0.7158 0.0557 0.6961
vn -0.7527 0.2485 0.6096
vn -0.9113 0.2274 0.3434
vn -0.8961 0.0371 0.4423
vn -0.9207 -0.3836 0.0721
vn -0.9678 -0.0365 -0.2492
vn -0.8249 -0.5300 0.1967
vn -0.7739 -0.6046 0.1884
vn -0.8338 -0.5496 0.0526
vn 0.7127 0.0654 0.6984
vn 0.6738 0.1690 0.7194
vn 0.7154 0.1799 0.6752
vn 0.6384 0.3139 0.7027
vn 0.5136 0.2973 0.8049
vn 0.7473 0.3285 0.5777
vn 0.6161 0.3630 0.6990
vn 0.6743 0.3647 0.6421
vn -0.6617 0.3569 0.6593
vn -0.5625 0.3500 0.7490
vn -0.5197 0.2607 0.8136
vn 0.8634 0.0850 -0.4974
vn 0.8784 0.1819 -0.4419
vn 0.8473 0.2007 -0.4917
vn 0.8603 0.3231 -0.3944
vn 0.9251 0.2852 -0.2507
vn 0.7690 0.3591 -0.5288
vn 0.8532 0.3697 -0.3679
vn 0.8138 0.3820 -0.4380
vn -0.2482 0.5885 0.7695
vn 0.0281 0.5050 0.8626
vn 0.3015 0.6197 0.7246
vn -0.3611 0.4440 0.8200
vn -0.4036 0.3065 0.8621
vn -0.6105 0.6400 0.4666
vn -0.6453 0.5115 0.5674
vn -0.7109 0.3926 0.5835
vn -0.7385 0.6046 0.2983
vn -0.7044 0.6072 0.3676
vn -0.6967 0.1754 0.6956
vn 0.0097 0.3305 0.9437
vn 0.0267 0.3709 0.9283
vn -0.3471 0.1863 0.9191
vn -0.4358 0.0318 0.8995
vn 0.0136 0.1912 0.9814
vn -0.2086 0.0292 0.9776
vn -0.7347 0.5996 0.3174
vn -0.7538 0.6565 0.0273
vn -0.7691 0.6297 0.1098
vn -0.7881 0.5164 0.3350
vn -0.6974 0.5167 0.4966
vn 0.5671 0.2839 0.7732
vn 0.3074 0.3908 0.8676
vn 0.3816 0.3445 0.8577
vn 0.5707 0.1871 0.7996
vn 0.7114 0.1806 0.6792
vn 0.7359 0.1894 0.6501
vn 0.6496 -0.0147 0.7601
vn 0.4498 0.2819 0.8475
vn 0.3488 -0.1634 0.9228
s 1
f 1/1/1 2/2/2 3/3/3
f 4/4/4 6/5/5 5/6/6
f 5/6/6 7/7/7 4/4/4
f 8/8/8 9/9/9 10/10/10
f 11/11/11 12/12/12 13/13/13
f 14/14/14 12/12/12 15/15/15
f 16/16/16 18/17/17 17/18/18
f 19/19/19 20/20/20 21/21/21
f 22/22/22 24/23/23 23/24/24
f 25/25/25 26/26/26 27/27/27
f 27/27/27 28/28/28 29/29/29
f 30/30/30 32/31/31 31/32/32
f 33/33/33 34/34/34 35/35/35
f 30/30/30 33/33/33 35/35/35
f 31/32/32 36/36/36 33/33/33
f 33/33/33 30/30/30 31/32/32
f 37/37/37 16/16/16 17/18/18
f 38/38/38 37/37/37 17/18/18
f 11/11/11 37/37/37 38/38/38
f 11/11/11 13/13/13 37/37/37
f 13/13/13 16/16/16 37/37/37
f 13/13/13 14/14/14 16/16/16
f 12/12/12 14/14/14 13/13/13
f 39/39/39 4/4/4 40/40/40
f 7/7/7 40/40/40 4/4/4
f 40/40/40 7/7/7 41/41/41
f 41/41/41 7/7/7 42/42/42
f 7/7/7 5/6/6 42/42/42
f 43/43/43 30/30/30 35/35/35
f 30/30/30 43/43/43 44/44/44
f 32/31/31 30/30/30 44/44/44
f 39/39/39 45/45/45 4/4/4
f 4/4/4 45/45/45 6/5/5
f 45/45/45 46/46/46 6/5/5
f 6/5/5 46/46/46 47/47/47
f 6/5/5 47/47/47 5/6/6
f 5/6/6 47/47/47 48/48/48
f 49/49/49 5/6/6 48/48/48
f 5/6/6 49/49/49 50/50/50
f 42/42/42 5/6/6 50/50/50
f 51/51/51 53/52/51 52/53/52
f 52/53/52 53/52/51 54/54/53
f 52/53/52 54/54/53 55/55/54
f 52/53/52 55/55/54 56/56/55
f 23/24/24 57/57/56 58/58/57
f 58/58/57 22/22/22 23/24/24
f 58/58/57 59/59/58 60/60/59
f 22/22/22 58/58/57 60/60/59
f 61/61/60 22/22/22 60/60/59
f 22/22/22 61/61/60 62/62/61
f 24/23/23 22/22/22 62/62/61
f 63/63/62 65/64/62 64/65/63
f 64/65/63 65/64/62 66/66/64
f 64/65/63 66/66/64 67/67/65
f 64/65/63 67/67/65 68/68/66
f 67/67/65 66/66/64 69/69/67
f 68/68/66 67/67/65 70/70/68
f 67/67/65 69/69/67 71/71/69
f 70/70/68 67/67/65 71/71/69
f 56/56/55 55/55/54 72/72/70
f 72/72/70 55/55/54 73/73/71
f 55/55/54 74/74/72 73/73/71
f 55/55/54 54/54/53 74/74/72
f 75/75/73 76/76/73 77/77/74
f 77/77/74 76/76/73 78/78/75
f 77/77/74 78/78/75 79/79/76
f 77/77/74 79/79/76 80/80/77
f 79/79/76 78/78/75 81/81/78
f 80/80/77 79/79/76 82/82/79
f 79/79/76 81/81/78 83/83/80
f 82/82/79 79/79/76 83/83/80
f 84/84/81 85/85/82 86/86/83
f 85/85/82 84/84/81 87/87/84
f 88/88/85 85/85/82 87/87/84
f 87/87/84 84/84/81 89/89/86
f 88/88/85 87/87/84 90/90/87
f 87/87/84 89/89/86 90/90/87
f 88/88/85 90/90/87 91/91/88
f 91/91/88 90/90/87 92/92/89
f 90/90/87 89/89/86 92/92/89
f 89/89/86 93/93/90 92/92/89
f 1/1/1 3/3/3 94/94/91
f 95/95/92 96/96/93 1/1/1
f 97/97/94 1/1/1 94/94/91
f 95/95/92 1/1/1 97/97/94
f 98/98/95 97/97/94 94/94/91
f 99/99/96 95/95/92 97/97/94
f 100/100/97 97/97/94 98/98/95
f 97/97/94 100/100/97 99/99/96
f 101/101/98 103/102/99 102/103/100
f 103/102/99 101/101/98 8/8/8
f 101/101/98 102/103/100 104/104/101
f 9/9/9 8/8/8 101/101/98
f 105/105/102 101/101/98 104/104/101
f 105/105/102 9/9/9 101/101/98
f 106/106/103 108/107/104 107/108/105
f 108/107/104 106/106/103 19/19/19
f 106/106/103 107/108/105 109/109/106
f 20/20/20 19/19/19 106/106/103
f 110/110/107 106/106/103 109/109/106
f 110/110/107 20/20/20 106/106/103
f 111/111/108 112/112/109 29/29/29
f 112/112/109 27/27/27 29/29/29
f 112/112/109 111/111/108 113/113/110
f 27/27/27 112/112/109 25/25/25
f 114/114/111 112/112/109 113/113/110
f 112/112/109 114/114/111 25/25/25
