g skin
v -0.004204 2.966234 1.350915
v -0.195581 4.056111 -1.124352
v 0.573768 1.296214 -1.356477
v 0.670650 4.104602 0.875519
v -0.979420 3.020066 0.807552
v 1.083907 2.411916 -0.245063
v -0.752249 3.778605 -1.040719
v 0.792597 4.182291 0.501115
v -0.032922 0.001886 1.219762
v -1.117130 0.021954 -0.500957
v 0.438162 3.977426 -1.010446
v -0.745491 2.918700 -1.014512
v 0.695087 4.203657 -0.338489
v -0.419716 4.442343 0.909339
v -0.618673 2.466550 0.979145
v 0.168264 4.468633 0.960815
v -0.011654 1.686103 1.359045
v -1.001942 4.058741 -0.734290
v 1.196646 0.828539 0.448765
v -0.013174 4.190460 1.233428
v -0.995495 4.493980 -0.302234
v -1.153139 4.200966 -0.218551
v -0.651376 -0.017657 0.810635
v 0.512163 2.724679 -1.135666
v -0.919953 3.600015 0.754050
v -0.644948 0.934243 -1.134021
v 1.209593 0.941128 -0.060955
v 0.982336 1.126266 1.127775
v -0.609141 0.003813 -1.112129
v -1.180181 0.815675 -0.469121
v 1.021533 0.023382 0.974805
v 0.619294 0.017922 -1.370844
v -0.912273 1.081142 0.665061
v 0.786875 4.256566 0.097953
v 0.853681 2.818731 1.021661
v -0.865846 4.495283 -0.520542
v 0.280553 2.721460 -1.293251
v -1.183845 1.918328 -0.339942
v 1.223467 0.011083 -0.213714
v 0.277330 3.868724 -1.238230
v 0.414462 -0.011439 1.239298
v -1.049647 1.829705 0.471229
v 0.970004 3.768962 -0.091334
vt 0.118016 0.078901
vt 0.085699 0.115474
vt 0.116030 0.050801
vt 0.507882 0.820912
vt 0.503220 0.798807
vt 0.493309 0.849586
vt 0.383859 0.801559
vt 0.361837 0.810678
vt 0.366255 0.828683
vt 0.545055 0.792235
vt 0.542031 0.848543
vt 0.491157 0.682696
vt 0.421858 0.736608
vt 0.484755 0.738132
vt 0.405647 0.692638
vt 0.026546 0.115486
vt 0.016398 0.033606
vt 0.382764 0.917923
vt 0.405464 0.922494
vt 0.368670 0.874448
vt 0.351229 0.890466
vt 0.373145 0.844956
vt 0.424976 0.844624
vt 0.368057 0.757322
vt 0.371152 0.744318
vt 0.450911 0.944192
vt 0.483632 0.939362
vt 0.532278 0.676942
vt 0.525773 0.641756
vt 0.490015 0.644573
vt 0.440451 0.793100
vt 0.423238 0.748864
vt 0.362045 0.790466
vt 0.344946 0.667599
vt 0.333554 0.677964
vt 0.357680 0.687215
vt 0.347601 0.952784
vt 0.656057 0.048237
vt 0.659157 0.111297
vt 0.643153 0.088862
vt 0.465361 0.887817
vt 0.662048 0.039267
vt 0.731793 0.060721
vt 0.354409 0.863683
vt 0.709352 0.101927
vt 0.690842 0.106553
vt 0.488740 0.991030
vt 0.524455 0.996051
vt 0.361307 0.723704
vt 0.371670 0.700108
vt 0.534052 0.933365
vt 0.537350 0.899643
vt 0.429939 0.911153
vt 0.415321 0.880333
vt 0.332441 0.948824
vt 0.725440 0.095253
vt 0.540390 0.733078
vt 0.336695 0.688826
vt 0.441319 0.977986
vt 0.440432 0.649244
vt 0.009279 0.086464
vt 0.646455 0.110760
vt 0.540768 0.879783
vt 0.719078 0.039081
vt 0.071308 0.025837
vt 0.110900 0.096554
vn 0.1547 -0.5948 0.7889
vn -0.4026 -0.8309 0.3840
vn 0.0106 -0.9998 -0.0190
vn 0.9847 0.0766 0.1566
vn 0.9919 0.1146 -0.0556
vn 0.7333 0.0850 0.6746
vn 0.9630 0.1710 -0.2084
vn 0.6112 0.7900 -0.0486
vn 0.7441 0.6429 0.1818
vn 0.9837 0.0068 -0.1795
vn 0.8579 -0.0822 0.5072
vn -0.5344 0.0068 -0.8452
vn 0.0399 0.0465 -0.9981
vn 0.5339 0.0585 -0.8435
vn -0.6250 -0.0124 -0.7805
vn -0.7562 -0.6542 -0.0122
vn 0.0020 -1.0000 0.0067
vn -0.7438 0.2178 0.6320
vn -0.7477 0.0238 0.6636
vn -0.0573 0.3007 0.9520
vn -0.5215 0.6504 0.5523
vn 0.6624 0.4116 0.6260
vn 0.7540 0.1137 0.6470
vn 0.5390 0.6464 -0.5401
vn 0.4210 0.2012 -0.8845
vn -0.9716 -0.0365 0.2337
vn -0.8253 -0.0924 0.5571
vn -0.5105 -0.0282 -0.8594
vn -0.9728 -0.0427 -0.2275
vn 0.9237 0.0899 -0.3723
vn 0.7534 0.1159 -0.6472
vn 0.6007 0.7245 -0.3379
vn -0.9668 0.2219 0.1266
vn -0.5865 0.8057 -0.0825
vn -0.7575 0.2766 -0.5914
vn -0.0237 0.9486 -0.3156
vn -0.1235 0.6227 -0.7727
vn -0.1984 -0.0218 0.9799
vn 0.2288 0.9197 0.3190
vn -0.3848 0.1278 -0.9141
vn -0.2706 -0.4895 0.8290
vn -0.5309 -0.0450 0.8462
vn -0.1688 0.0300 0.9852
vn 0.4266 0.0254 -0.9041
vn -0.9521 0.0058 -0.3057
vn 0.0215 -0.9986 0.0475
vn -0.0235 -0.9997 0.0064
usemtl skin
s 1
f 41/1/1 23/2/2 31/3/3
f 19/4/4 27/5/5 28/6/6
f 43/7/7 34/8/8 8/9/9
f 39/10/10 19/4/4 31/11/11
f 26/12/12 37/13/13 3/14/14
f 12/15/15 37/13/13 26/12/12
f 27/5/5 39/10/10 3/14/14
f 23/2/2 10/16/16 32/17/17
f 25/18/18 5/19/19 20/20/20
f 14/21/21 25/18/18 20/20/20
f 8/9/9 4/22/22 35/23/23
f 11/24/24 43/7/7 40/25/25
f 5/19/19 42/26/26 33/27/27
f 29/28/28 10/29/16 30/30/29
f 43/7/7 35/23/23 27/5/5
f 6/31/30 24/32/31 43/7/7
f 13/33/32 43/7/7 11/24/24
f 22/34/33 21/35/34 18/36/35
f 5/19/19 22/37/33 42/26/26
f 36/38/36 11/39/24 2/40/37
f 35/23/23 17/41/38 28/6/6
f 23/2/2 32/17/17 31/3/3
f 21/42/34 16/43/39 36/38/36
f 8/9/9 16/44/39 4/22/22
f 34/45/8 13/46/32 36/38/36
f 30/47/29 10/48/16 33/27/27
f 2/49/37 7/50/40 18/36/35
f 33/27/27 23/51/2 17/41/38
f 17/41/38 23/51/2 9/52/41
f 43/7/7 8/9/9 35/23/23
f 40/25/25 43/7/7 24/32/31
f 33/27/27 17/41/38 15/53/42
f 6/31/30 3/14/14 24/32/31
f 20/20/20 5/19/19 1/54/43
f 33/27/27 10/48/16 23/51/2
f 24/32/31 37/13/13 40/25/25
f 33/27/27 42/26/26 30/47/29
f 4/22/22 16/44/39 20/20/20
f 22/37/33 14/21/21 21/55/34
f 13/46/32 11/39/24 36/38/36
f 34/45/8 36/38/36 8/56/9
f 2/49/37 40/25/25 7/50/40
f 6/31/30 43/7/7 27/5/5
f 27/5/5 3/14/14 6/31/30
f 4/22/22 20/20/20 35/23/23
f 5/19/19 25/18/18 22/37/33
f 20/20/20 1/54/43 35/23/23
f 22/37/33 25/18/18 14/21/21
f 5/19/19 33/27/27 15/53/42
f 39/10/10 32/57/44 3/14/14
f 1/54/43 17/41/38 35/23/23
f 27/5/5 19/4/4 39/10/10
f 3/14/14 29/28/28 26/12/12
f 21/35/34 36/58/36 18/36/35
f 37/13/13 12/15/15 7/50/40
f 28/6/6 31/11/11 19/4/4
f 22/37/33 38/59/45 42/26/26
f 7/50/40 40/25/25 37/13/13
f 38/60/45 26/12/12 30/30/29
f 10/16/16 29/61/46 32/17/17
f 30/30/29 26/12/12 29/28/28
f 11/39/24 40/62/25 2/40/37
f 20/20/20 16/44/39 14/21/21
f 7/50/40 12/15/15 18/36/35
f 38/60/45 18/36/35 12/15/15
f 3/14/14 32/57/44 29/28/28
f 17/41/38 41/63/1 28/6/6
f 1/54/43 15/53/42 17/41/38
f 36/58/36 2/49/37 18/36/35
f 17/41/38 9/52/41 41/63/1
f 28/6/6 41/63/1 31/11/11
f 35/23/23 28/6/6 27/5/5
f 14/64/21 16/43/39 21/42/34
f 5/19/19 15/53/42 1/54/43
f 12/15/15 26/12/12 38/60/45
f 30/47/29 42/26/26 38/59/45
f 43/7/7 13/33/32 34/8/8
f 31/3/3 32/17/17 39/65/47
f 16/43/39 8/56/9 36/38/36
f 9/66/41 23/2/2 41/1/1
f 37/13/13 24/32/31 3/14/14
f 22/34/33 18/36/35 38/60/45
