g skin
v -1.474960 2.297806 1.561736
v -1.490935 -0.006375 -0.420634
v 1.232277 1.827363 -2.285097
v -1.802717 0.000449 0.378127
v 1.493969 2.054768 0.288630
v -0.578920 1.294125 2.121042
v 1.494833 0.600577 0.308962
v 0.512098 0.017726 2.108307
v 1.719316 1.103940 -0.909253
v -1.287915 2.644848 -0.576352
v -0.189224 2.790822 -1.498108
v 1.134106 1.681374 1.679758
v 0.238888 2.440564 -2.226228
v 1.521003 2.303310 -1.576491
v 1.145800 0.012036 -2.095459
v 0.923826 1.514826 2.101092
v -1.764737 0.016098 1.412379
v 0.980356 0.290125 2.087614
v 0.783364 2.704430 -2.004788
v -1.674417 2.043579 -0.222860
v -1.848230 1.714600 0.053909
v 1.128114 2.241808 0.928499
v 1.608318 0.072639 -0.616873
v -1.841235 0.482337 1.380915
v 1.160671 0.582079 -2.325851
v 1.281846 2.404562 -2.025565
v 1.406898 -0.009933 -1.198716
v 1.088898 2.484919 -2.147756
v -1.549472 2.500280 1.326418
v -0.347324 2.207327 2.035713
v 0.584565 2.128675 1.825366
v 0.624121 0.183105 -2.340492
v -1.855192 0.662207 -0.060231
v -1.884929 2.080643 1.096816
v -0.574366 0.005651 2.088798
v 1.386629 2.350173 -0.034669
v -0.527748 2.760696 -0.232562
v 1.450317 2.531479 -1.321905
v -0.165631 -0.010034 -1.972977
v 0.172192 0.060730 -2.274446
v 1.003730 0.864234 2.133692
v 1.312776 0.016464 1.302494
v -1.865920 2.625109 0.817612
v 1.600918 0.168016 -1.230476
vt 0.190373 0.546693
vt 0.312599 0.612627
vt 0.271505 0.508043
vt 0.274979 0.741950
vt 0.321968 0.751997
vt 0.315610 0.723917
vt 0.285098 0.996048
vt 0.306272 0.996051
vt 0.261793 0.926598
vt 0.230635 0.824704
vt 0.233889 0.869833
vt 0.256428 0.851144
vt 0.557594 0.172427
vt 0.542899 0.180401
vt 0.554116 0.145263
vt 0.239223 0.795023
vt 0.316506 0.678826
vt 0.290348 0.675702
vt 0.731793 0.203274
vt 0.707063 0.237427
vt 0.723666 0.141066
vt 0.643773 0.155616
vt 0.591404 0.147159
vt 0.707900 0.119378
vt 0.274028 0.445934
vt 0.298606 0.488259
vt 0.222883 0.910404
vt 0.262846 0.868100
vt 0.213008 0.989660
vt 0.212492 0.961469
vt 0.184573 0.989362
vt 0.170609 0.366692
vt 0.202652 0.231628
vt 0.155771 0.244141
vt 0.183759 0.481044
vt 0.227332 0.507396
vt 0.205686 0.465413
vt 0.286832 0.867946
vt 0.299807 0.793578
vt 0.566999 0.212439
vt 0.321792 0.886682
vt 0.324543 0.837099
vt 0.308112 0.868264
vt 0.302332 0.525287
vt 0.208648 0.642843
vt 0.307588 0.652610
vt 0.311375 0.632460
vt 0.200029 0.966967
vt 0.618479 0.234733
vt 0.661302 0.242431
vt 0.223744 0.784025
vt 0.208983 0.728581
vt 0.541562 0.191076
vt 0.218950 0.716129
vt 0.210471 0.682400
vt 0.239822 0.683253
vt 0.295784 0.281850
vt 0.292273 0.355422
vt 0.323684 0.309233
vt 0.324543 0.334711
vt 0.310681 0.349197
vt 0.641929 0.119194
vt 0.279395 0.261639
vt 0.302847 0.273266
vt 0.214742 0.522292
vt 0.206891 0.372026
vt 0.133378 0.284801
vt 0.133101 0.343284
vt 0.214515 0.692692
vt 0.316656 0.934679
vt 0.294628 0.442926
vt 0.551213 0.212457
vn -0.7165 0.3732 -0.5894
vn -0.7268 0.0145 -0.6867
vn -0.8993 -0.0513 -0.4344
vn 0.9931 0.0249 -0.1142
vn 0.9313 -0.3579 0.0676
vn 0.8882 -0.3853 -0.2502
vn -0.9235 -0.0284 0.3824
vn -0.6782 -0.4100 0.6098
vn -0.2452 0.0320 0.9689
vn 0.5077 0.8056 0.3052
vn 0.3359 0.8302 0.4448
vn 0.8474 0.3542 0.3956
vn 0.2041 0.9294 -0.3076
vn 0.3383 0.5395 -0.7710
vn -0.2808 0.2973 -0.9126
vn 0.9586 0.2144 0.1874
vn 0.3790 -0.7862 -0.4882
vn 0.5931 -0.1010 -0.7987
vn -0.0553 0.5608 0.8261
vn -0.1517 0.8960 0.4174
vn 0.1114 0.9841 0.1383
vn -0.2055 0.9472 -0.2462
vn -0.7292 0.6788 0.0867
vn -0.4601 -0.8868 -0.0434
vn 0.3876 0.3065 0.8694
vn -0.9490 0.1020 0.2983
vn -0.6035 0.2955 0.7406
vn 0.6803 -0.6917 0.2423
vn 0.1185 -0.6373 0.7614
vn -0.9835 0.0576 -0.1713
vn 0.6534 0.0190 0.7568
vn 0.9785 0.0118 0.2060
vn 0.7296 0.6836 -0.0159
vn 0.5768 -0.3594 0.7336
vn -0.5415 -0.7763 -0.3226
vn 0.0612 -0.2710 -0.9606
vn -0.2292 -0.5083 -0.8301
vn 0.6255 0.7460 0.2286
vn 0.7008 0.5707 -0.4279
vn 0.9386 0.2235 -0.2628
vn 0.6548 0.1122 -0.7475
vn 0.2475 -0.9677 -0.0472
vn 0.0026 -0.9962 -0.0876
vn -0.8603 0.1656 -0.4821
vn -0.0033 -1.0000 0.0054
vn -0.2641 -0.0251 0.9642
usemtl skin
s 1
f 10/1/1 39/2/2 33/3/3
f 9/4/4 23/5/5 44/6/6
f 24/7/7 17/8/8 6/9/9
f 22/10/10 31/11/11 12/12/12
f 19/13/13 28/14/14 13/15/15
f 9/4/4 5/16/16 23/5/5
f 44/6/6 15/17/17 25/18/18
f 30/19/19 31/20/11 29/21/20
f 37/22/21 11/23/22 43/24/23
f 24/25/7 33/3/3 4/26/24
f 31/11/11 30/27/19 16/28/25
f 34/29/26 1/30/27 43/31/23
f 4/32/24 42/33/28 8/34/29
f 6/9/9 1/30/27 24/7/7
f 43/35/23 21/36/30 34/37/26
f 12/12/12 41/38/31 7/39/32
f 37/22/21 38/40/33 19/13/13
f 8/41/29 42/42/28 18/43/34
f 39/2/2 2/44/35 33/3/3
f 13/45/15 32/46/36 40/47/37
f 23/5/5 7/39/32 42/42/28
f 1/30/27 29/48/20 43/31/23
f 13/45/15 25/18/18 32/46/36
f 18/43/34 41/38/31 8/41/29
f 13/45/15 40/47/37 39/2/2
f 36/49/38 38/40/33 37/22/21
f 31/20/11 22/50/10 37/22/21
f 34/37/26 21/36/30 24/25/7
f 29/48/20 1/30/27 30/27/19
f 16/28/25 12/12/12 31/11/11
f 36/51/38 22/10/10 12/12/12
f 4/26/24 33/3/3 2/44/35
f 38/52/33 5/16/16 9/4/4
f 19/13/13 38/40/33 26/53/39
f 38/52/33 9/4/4 14/54/40
f 28/55/14 3/56/41 13/45/15
f 41/38/31 6/9/9 8/41/29
f 1/30/27 34/29/26 24/7/7
f 27/57/42 39/58/43 15/59/17
f 19/13/13 11/23/22 37/22/21
f 32/60/36 15/59/17 40/61/37
f 11/23/22 13/15/15 10/62/1
f 23/63/5 27/57/42 44/64/6
f 43/35/23 10/1/1 20/65/44
f 39/2/2 10/1/1 13/45/15
f 42/42/28 41/38/31 18/43/34
f 42/33/28 4/32/24 27/57/42
f 20/65/44 33/3/3 21/36/30
f 9/4/4 44/6/6 25/18/18
f 10/1/1 33/3/3 20/65/44
f 5/16/16 12/12/12 7/39/32
f 15/17/17 32/46/36 25/18/18
f 27/57/42 4/32/24 2/66/35
f 19/13/13 13/15/15 11/23/22
f 35/67/45 17/68/8 4/32/24
f 43/35/23 20/65/44 21/36/30
f 5/16/16 7/39/32 23/5/5
f 5/16/16 36/51/38 12/12/12
f 14/54/40 3/56/41 26/69/39
f 8/34/29 35/67/45 4/32/24
f 26/69/39 3/56/41 28/55/14
f 6/9/9 35/70/46 8/41/29
f 37/22/21 29/21/20 31/20/11
f 15/59/17 39/58/43 40/61/37
f 42/33/28 27/57/42 23/63/5
f 16/28/25 6/9/9 41/38/31
f 24/25/7 4/26/24 17/71/8
f 27/57/42 15/59/17 44/64/6
f 27/57/42 2/66/35 39/58/43
f 22/50/10 36/49/38 37/22/21
f 11/23/22 10/62/1 43/24/23
f 3/56/41 9/4/4 25/18/18
f 26/53/39 38/40/33 14/72/40
f 26/53/39 28/14/14 19/13/13
f 24/25/7 21/36/30 33/3/3
f 9/4/4 3/56/41 14/54/40
f 30/27/19 6/9/9 16/28/25
f 36/51/38 5/16/16 38/52/33
f 6/9/9 17/8/8 35/70/46
f 12/12/12 16/28/25 41/38/31
f 1/30/27 6/9/9 30/27/19
f 13/45/15 3/56/41 25/18/18
f 7/39/32 41/38/31 42/42/28
f 43/24/23 29/21/20 37/22/21
