# Blender v2.83 (sub 11) OBJ File: ''
# www.blender.org
o tris.003
v -0.168860 2.313495 -0.147867
v -0.413705 -0.276216 0.124671
v 0.994621 -0.023982 0.096821
v -2.309473 1.248005 0.173830
v -2.590641 2.482777 -0.373780
v 0.141237 3.689629 -0.136658
v 1.427416 3.638301 -0.918922
v 0.453725 -0.195999 -0.104340
v 2.086498 5.802074 -1.661413
v 0.278531 7.486540 0.169474
v -0.642771 -0.195999 0.340761
v -1.686081 1.174063 0.764272
v -1.463010 3.699876 0.751760
v -1.792687 7.374667 1.818998
v -0.795736 11.798789 1.487252
v 1.929608 11.713550 0.491875
v -2.208283 4.318114 -1.280107
v -0.198515 4.544596 -0.854197
v 2.546337 2.789819 0.153548
v 2.243225 5.094473 0.017500
v -0.072702 4.985450 0.121271
v -0.861598 4.699673 1.576706
v -0.459108 2.590503 1.501338
v 0.511591 2.590717 -0.162093
v 0.456302 4.417089 -2.116609
v 0.123701 -0.152081 1.090033
v 0.621997 2.200484 -1.792356
v 0.600644 -0.189528 -1.101603
v 0.276748 -0.034205 0.007942
v 0.636447 3.841748 -0.158571
v 1.501412 4.466968 1.110647
v -0.351719 4.158849 -1.346806
v 1.277995 7.217453 1.041177
v -0.887490 7.086768 -1.309301
v 0.153856 7.167771 -0.079881
v -0.466759 11.041596 0.882537
v -0.905466 7.146369 -1.306209
v -1.518484 11.040882 -0.388189
vt 0.187622 0.132324
vt 0.252686 0.013672
vt 0.186279 0.013672
vt 0.090210 0.084961
vt 0.074280 0.142578
vt 0.899414 0.687256
vt 0.958008 0.687256
vt 0.906738 0.543457
vt 0.999023 0.769897
vt 0.899414 0.830811
vt 0.863281 0.543457
vt 0.822266 0.593750
vt 0.829590 0.687256
vt 0.799805 0.830811
vt 0.837891 0.974396
vt 0.938477 0.974396
vt 0.093018 0.228516
vt 0.174316 0.243164
vt 0.307373 0.121582
vt 0.279541 0.229492
vt 0.414551 0.256836
vt 0.342041 0.235352
vt 0.348633 0.132324
vt 0.450195 0.132324
vt 0.562012 0.218750
vt 0.375488 0.013672
vt 0.539062 0.102539
vt 0.505859 0.013672
vt 0.467285 0.541992
vt 0.469482 0.696289
vt 0.524414 0.718750
vt 0.414795 0.708496
vt 0.520508 0.821289
vt 0.412842 0.819092
vt 0.469482 0.821289
vt 0.493896 0.958191
vt 0.412842 0.821289
vt 0.438477 0.958191
vn 0.0652 -0.2090 -0.9757
vn 0.0503 -0.0792 -0.9956
vn -0.0447 -0.1004 -0.9939
vn -0.0169 -0.2578 -0.9660
vn 0.1051 -0.3870 -0.9161
vn -0.5153 0.0080 -0.8570
vn -0.5200 -0.0989 -0.8484
vn -0.4060 -0.0402 -0.9130
vn -0.6132 0.1036 -0.7831
vn -0.5719 0.1692 -0.8027
vn -0.3894 -0.0345 -0.9204
vn -0.4284 -0.0124 -0.9035
vn -0.5114 0.0798 -0.8557
vn -0.6222 0.1257 -0.7727
vn -0.4313 0.1637 -0.8872
vn -0.3921 0.2213 -0.8929
vn 0.2334 -0.4692 -0.8517
vn 0.1949 -0.2734 -0.9419
vn 0.2093 -0.1089 -0.9718
vn 0.3384 -0.0110 -0.9409
vn 0.9136 0.1781 0.3656
vn 0.8574 0.1460 0.4934
vn 0.8570 0.1301 0.4986
vn 0.9556 0.0969 0.2782
vn 0.9790 0.1620 0.1237
vn 0.9461 0.0139 0.3235
vn 0.9974 0.0451 0.0567
vn 0.9861 -0.0240 0.1646
vn 0.7986 -0.0996 -0.5935
vn 0.7957 -0.0148 -0.6055
vn 0.8253 0.0043 -0.5646
vn 0.7755 0.0624 -0.6283
vn 0.7091 0.1794 -0.6819
vn 0.7459 0.1957 -0.6367
vn 0.7193 0.1980 -0.6659
vn 0.7277 0.2729 -0.6292
vn 0.7288 0.2585 -0.6340
vn 0.7382 0.2695 -0.6184
s 1
f 1/1/1 3/2/2 2/3/3
f 4/4/4 1/1/1 2/3/3
f 1/1/1 4/4/4 5/5/5
f 6/6/6 7/7/7 8/8/8
f 6/6/6 9/9/9 7/7/7
f 9/9/9 6/6/6 10/10/10
f 11/11/11 6/6/6 8/8/8
f 12/12/12 6/6/6 11/11/11
f 6/6/6 12/12/12 13/13/13
f 13/13/13 10/10/10 6/6/6
f 10/10/10 13/13/13 14/14/14
f 14/14/14 15/15/15 10/10/10
f 15/15/15 16/16/16 10/10/10
f 10/10/10 16/16/16 9/9/9
f 5/5/5 17/17/17 18/18/18
f 18/18/18 1/1/1 5/5/5
f 1/1/1 18/18/18 19/19/19
f 3/2/2 1/1/1 19/19/19
f 18/18/18 20/20/20 19/19/19
f 21/21/21 22/22/22 23/23/23
f 23/23/23 24/24/24 21/21/21
f 25/25/25 21/21/21 24/24/24
f 26/26/26 24/24/24 23/23/23
f 24/24/24 27/27/27 25/25/25
f 26/26/26 28/28/28 24/24/24
f 24/24/24 28/28/28 27/27/27
f 29/29/29 30/30/30 31/31/31
f 30/30/30 29/29/29 32/32/32
f 30/30/30 33/33/33 31/31/31
f 32/32/32 34/34/34 30/30/30
f 33/33/33 30/30/30 35/35/35
f 30/30/30 34/34/34 35/35/35
f 35/35/35 36/36/36 33/33/33
f 35/35/35 34/34/34 37/37/37
f 38/38/38 36/36/36 35/35/35
f 37/37/37 38/38/38 35/35/35
