g skin
v 0.890673 3.043285 0.991033
v -0.009699 -0.001806 -1.247253
v -0.531409 3.819370 -1.083675
v 0.478317 0.394787 -1.305351
v -0.509336 4.503455 0.890298
v -0.886175 3.602724 0.676370
v -0.904312 0.009146 -0.778902
v 0.050817 2.757656 -1.246916
v -1.037640 4.425976 -0.371973
v -1.190572 3.085411 -0.415500
v -0.897020 4.692272 0.230012
v 0.465188 3.979089 -1.131515
v 0.275925 3.589290 -1.295011
v 0.640830 0.002777 1.082013
v 1.168760 0.173973 -0.050333
v 0.023457 0.191421 1.278716
v -0.602270 0.017448 -1.064951
v 1.194413 0.644837 -0.051483
v -1.113853 0.020130 -0.204194
v -0.670283 4.420977 -0.817753
v -0.194326 4.646355 -0.329083
v 1.092497 0.215774 -0.382306
v -1.065800 2.737740 -0.254750
v 0.956846 0.722415 1.051688
v 0.129863 4.511019 0.999886
v 1.201625 1.508302 -0.096296
v -0.628915 2.725234 -0.967428
v 0.042443 2.317282 1.321465
v -0.785481 3.482375 -0.891185
v 0.497614 0.068056 1.199607
v -1.158950 1.176771 -0.420039
v 0.342243 4.541596 0.248761
v 0.976015 3.939143 -0.080387
v 0.521892 4.134141 1.083596
v -0.914790 4.228458 -0.789347
v -0.844880 2.711223 0.707747
v -0.088945 0.002009 1.099430
v -0.902107 0.772377 0.709925
v 0.583217 1.217969 -1.306942
v -0.482899 0.168199 1.021021
v 0.759632 4.300998 -0.225188
v -1.186661 2.428337 -0.386677
v -0.719958 2.952905 -1.026355
v -0.663957 2.457016 -1.055476
v 0.648057 0.150395 -1.029709
v 0.967858 -0.003319 0.577077
v -0.846389 0.016940 0.672125
v 1.011988 -0.002150 -0.197467
v -1.053924 4.372792 0.276101
v 1.029779 0.253167 0.869384
v 1.053886 0.902109 -0.073327
v 0.662157 4.253937 0.868664
v -0.025068 4.158864 1.241430
v 0.857174 2.131193 1.086086
v 0.525145 2.862359 -1.241508
v 0.152353 4.215683 -1.208827
vt 0.583720 0.273108
vt 0.621139 0.281804
vt 0.612693 0.315952
vt 0.555629 0.281663
vt 0.575624 0.309587
vt 0.305389 0.073378
vt 0.278345 0.088233
vt 0.266426 0.036590
vt 0.558325 0.565897
vt 0.570451 0.516826
vt 0.606742 0.575441
vt 0.623652 0.352007
vt 0.623447 0.314373
vt 0.637626 0.347407
vt 0.728418 0.489553
vt 0.707615 0.481575
vt 0.736993 0.461610
vt 0.625277 0.395545
vt 0.563727 0.437645
vt 0.587807 0.393927
vt 0.218833 0.115486
vt 0.214166 0.098366
vt 0.263424 0.113233
vt 0.551885 0.521481
vt 0.608080 0.346605
vt 0.706869 0.394102
vt 0.733173 0.416502
vt 0.611010 0.477864
vt 0.564839 0.461999
vt 0.648631 0.475250
vt 0.739851 0.352835
vt 0.739793 0.394037
vt 0.710291 0.529679
vt 0.677092 0.587840
vt 0.697453 0.530312
vt 0.309034 0.098016
vt 0.735953 0.250328
vt 0.739145 0.280326
vt 0.721640 0.259956
vt 0.670477 0.528305
vt 0.304363 0.203543
vt 0.296523 0.186387
vt 0.297476 0.158283
vt 0.556831 0.376447
vt 0.548924 0.410881
vt 0.541562 0.377024
vt 0.739112 0.306792
vt 0.635794 0.312907
vt 0.249982 0.071690
vt 0.356782 0.134358
vt 0.317436 0.132765
vt 0.641494 0.440297
vt 0.222458 0.057675
vt 0.558770 0.472988
vt 0.713828 0.594931
vt 0.727887 0.546287
vt 0.726545 0.581789
vt 0.403335 0.172202
vt 0.391184 0.194642
vt 0.398734 0.165836
vt 0.686507 0.256607
vt 0.351015 0.123384
vt 0.591034 0.321788
vt 0.551846 0.349130
vt 0.550281 0.323019
vt 0.561439 0.330746
vt 0.384685 0.148459
vt 0.401737 0.145838
vt 0.319588 0.090736
vt 0.365894 0.126970
vt 0.386553 0.211569
vt 0.365787 0.220096
vt 0.688979 0.344561
vt 0.740032 0.325014
vt 0.322173 0.065975
vt 0.236744 0.036586
vt 0.730800 0.530878
vt 0.402973 0.194364
vt 0.298615 0.048479
vt 0.731878 0.440674
vt 0.573455 0.580014
vt 0.544777 0.577537
vt 0.325896 0.220152
vn -0.0147 0.0482 -0.9987
vn -0.2623 -0.0028 -0.9650
vn -0.5439 -0.1134 -0.8315
vn 0.1557 0.6064 -0.7798
vn -0.3817 0.0903 -0.9199
vn 0.2023 0.8293 0.5210
vn 0.3324 0.9419 0.0484
vn -0.3280 0.9420 0.0711
vn 0.6961 0.3037 -0.6506
vn 0.9610 0.2411 -0.1355
vn 0.7476 0.0820 -0.6591
vn -0.9899 0.0106 -0.1414
vn -0.7068 -0.0304 -0.7067
vn -0.9773 0.1652 -0.1324
vn 0.8453 -0.2644 0.4643
vn 0.8886 0.0310 0.4576
vn 0.2908 -0.3119 0.9045
vn -0.8038 0.0051 0.5949
vn -0.1591 0.1967 0.9675
vn -0.7305 0.0464 0.6814
vn 0.6366 0.7456 -0.1969
vn -0.9488 -0.1306 -0.2876
vn -0.8672 -0.0286 0.4971
vn -0.5197 -0.2427 0.8192
vn 0.8761 0.1218 0.4666
vn 0.4666 0.2975 0.8330
vn 0.5576 0.0373 0.8293
vn -0.9960 -0.0569 0.0684
vn -0.6364 -0.5576 0.5331
vn 0.9827 0.1756 -0.0590
vn 0.5870 0.0423 -0.8085
vn 0.9850 0.1296 -0.1137
vn 0.7330 0.5914 0.3361
vn 0.5999 -0.5827 -0.5483
vn 0.0114 -0.8009 -0.5987
vn 0.5404 -0.2053 -0.8160
vn 0.9960 -0.0279 -0.0850
vn -0.0338 -0.9990 -0.0278
vn -0.0610 -0.9938 -0.0932
vn -0.9296 0.1895 0.3161
vn -0.5096 0.4966 0.7026
vn -0.4237 -0.0037 -0.9058
vn -0.6398 0.1075 -0.7610
vn 0.1414 0.9634 -0.2278
vn 0.5543 -0.8076 -0.2015
vn -0.0899 0.0085 0.9959
vn -0.3232 0.7334 -0.5981
vn 0.8796 -0.2173 -0.4231
vn -0.1062 -0.9372 0.3323
vn 0.3556 -0.7869 0.5044
vn -0.5860 -0.0137 -0.8102
vn -0.8346 0.4916 -0.2487
vn -0.6941 0.2278 -0.6828
vn 0.4286 -0.8951 0.1226
vn 0.9313 -0.3634 -0.0250
vn -0.9216 -0.0300 -0.3869
vn -0.8233 -0.0353 -0.5665
vn -0.2829 -0.2570 0.9241
vn -0.0250 -0.9997 0.0057
usemtl skin
s 1
f 13/1/1 8/2/2 43/3/3
f 56/4/4 13/1/1 3/5/5
f 25/6/6 32/7/7 11/8/8
f 12/9/9 33/10/10 55/11/11
f 23/12/12 27/13/13 42/14/14
f 50/15/15 24/16/16 30/17/17
f 36/18/18 53/19/19 6/20/20
f 12/21/9 56/22/4 41/23/21
f 33/10/10 12/9/9 41/24/21
f 10/25/22 23/12/12 36/18/18
f 36/18/18 38/26/23 40/27/24
f 1/28/25 34/29/26 54/30/27
f 38/26/23 19/31/28 47/32/29
f 18/33/30 39/34/31 51/35/32
f 18/33/30 24/16/16 50/15/15
f 52/36/33 41/23/21 32/7/7
f 45/37/34 2/38/35 4/39/36
f 55/11/11 26/40/37 39/34/31
f 7/41/38 17/42/39 2/43/35
f 49/44/40 5/45/41 11/46/8
f 17/47/42 44/48/43 8/2/2
f 21/49/44 41/23/21 56/22/4
f 48/50/45 2/43/35 45/51/34
f 36/18/18 28/52/46 53/19/19
f 26/40/37 24/16/16 51/35/32
f 11/8/8 21/49/44 20/53/47
f 41/24/21 52/54/33 33/10/10
f 4/55/36 22/56/48 45/57/34
f 30/58/17 37/59/49 14/60/50
f 49/44/40 6/20/20 5/45/41
f 39/61/31 4/39/36 2/38/35
f 48/50/45 45/51/34 22/62/48
f 13/1/1 29/63/51 3/5/5
f 9/64/52 20/65/47 35/66/53
f 10/25/22 36/18/18 49/44/40
f 46/67/54 50/68/15 14/60/50
f 46/67/54 37/59/49 2/43/35
f 52/54/33 34/29/26 1/28/25
f 34/69/26 52/36/33 25/6/6
f 46/67/54 48/50/45 15/70/55
f 42/14/14 19/31/28 38/26/23
f 40/71/24 47/72/29 37/59/49
f 34/29/26 53/19/19 54/30/27
f 31/73/56 7/74/57 19/31/28
f 8/2/2 13/1/1 39/61/31
f 25/6/6 53/75/19 34/69/26
f 9/64/52 10/25/22 49/44/40
f 46/67/54 2/43/35 48/50/45
f 11/8/8 20/53/47 9/76/52
f 15/77/55 18/33/30 50/15/15
f 51/35/32 39/34/31 26/40/37
f 9/64/52 35/66/53 10/25/22
f 8/2/2 2/38/35 17/47/42
f 16/78/58 37/59/49 30/58/17
f 5/79/41 25/6/6 11/8/8
f 51/35/32 24/16/16 18/33/30
f 28/52/46 54/30/27 53/19/19
f 39/61/31 2/38/35 8/2/2
f 22/56/48 4/55/36 39/34/31
f 1/28/25 54/30/27 26/40/37
f 26/40/37 54/30/27 24/16/16
f 14/60/50 37/59/49 46/67/54
f 3/5/5 35/66/53 20/65/47
f 35/66/53 29/63/51 10/25/22
f 20/65/47 56/4/4 3/5/5
f 42/14/14 27/13/13 44/48/43
f 41/23/21 21/49/44 32/7/7
f 10/25/22 27/13/13 23/12/12
f 50/68/15 30/58/17 14/60/50
f 44/48/43 7/74/57 31/73/56
f 36/18/18 16/80/58 28/52/46
f 12/9/9 55/11/11 13/81/1
f 9/64/52 49/44/40 11/46/8
f 36/18/18 42/14/14 38/26/23
f 16/78/58 40/71/24 37/59/49
f 43/3/3 29/63/51 13/1/1
f 32/7/7 21/49/44 11/8/8
f 52/54/33 1/28/25 33/10/10
f 6/20/20 53/19/19 5/45/41
f 42/14/14 36/18/18 23/12/12
f 18/33/30 15/77/55 22/56/48
f 47/32/29 40/27/24 38/26/23
f 29/63/51 43/3/3 10/25/22
f 33/10/10 26/40/37 55/11/11
f 25/6/6 5/79/41 53/75/19
f 8/2/2 44/48/43 27/13/13
f 43/3/3 8/2/2 27/13/13
f 42/14/14 44/48/43 31/73/56
f 21/49/44 56/22/4 20/53/47
f 24/16/16 54/30/27 30/17/17
f 55/11/11 39/34/31 13/81/1
f 15/70/55 48/50/45 22/62/48
f 17/47/42 7/74/57 44/48/43
f 36/18/18 6/20/20 49/44/40
f 36/18/18 40/27/24 16/80/58
f 52/36/33 32/7/7 25/6/6
f 56/82/4 12/9/9 13/81/1
f 15/70/55 50/68/15 46/67/54
f 33/10/10 1/28/25 26/40/37
f 3/5/5 29/63/51 35/66/53
f 37/59/49 19/83/59 7/41/38
f 16/80/58 30/17/17 28/52/46
f 43/3/3 27/13/13 10/25/22
f 54/30/27 28/52/46 30/17/17
f 37/59/49 47/72/29 19/83/59
f 42/14/14 31/73/56 19/31/28
f 18/33/30 22/56/48 39/34/31
f 37/59/49 7/41/38 2/43/35
