o model.obj
v 9.250000 -0.000008 -9.500000
v 11.249992 -0.000008 -9.500000
v 9.250000 79.999992 -3.010000
v 11.249992 79.999992 -3.010000
v 9.250000 -0.000008 -6.500000
v 11.249992 -0.000008 -6.500000
v 9.250000 79.999992 -0.010000
v 11.249992 79.999992 -0.010000
v 10.249996 79.999992 -1.510000
vn 0.000000 0.080859 -0.996725
vn 0.000000 0.080859 -0.996725
vn 0.000000 0.080859 -0.996725
vn 0.000000 0.080859 -0.996725
vn 0.000000 -0.080859 0.996725
vn 0.000000 -0.080859 0.996725
vn 0.000000 -0.080859 0.996725
vn 0.000000 -0.080859 0.996725
vn 1.000000 -0.000000 0.000000
vn 1.000000 -0.000000 0.000000
vn 1.000000 -0.000000 0.000000
vn 1.000000 -0.000000 0.000000
vn -1.000000 0.000000 -0.000000
vn -1.000000 0.000000 -0.000000
vn -1.000000 0.000000 -0.000000
vn -1.000000 0.000000 -0.000000
vn 0.000000 1.000000 0.000000
vn 0.000000 1.000000 0.000000
vn 0.000000 1.000000 0.000000
vn 0.000000 1.000000 0.000000
vn 0.000000 1.000000 0.000000
vn 0.000000 1.000000 0.000000
vn 0.000000 1.000000 0.000000
vn 0.000000 1.000000 0.000000
vn 0.000000 1.000000 0.000000
vn 0.000000 1.000000 0.000000
vn 0.000000 1.000000 0.000000
vn 0.000000 1.000000 0.000000
vt -7.892527 0.895913
vt 7.892527 0.895913
vt 7.892527 1.098333
vt -7.892527 1.098333
vt -7.926882 -0.105068
vt 7.926882 -0.105068
vt 7.926882 0.100163
vt -7.926882 0.100163
vt 5.244740 1.098339
vt -5.244740 1.098339
vt -5.244740 0.895907
vt 5.244740 0.895907
vt -5.246322 -0.104675
vt 5.246322 -0.104676
vt 5.246322 0.099771
vt -5.246322 0.099770
vt 0.638627 0.896394
vt 0.981170 0.896394
vt 0.809898 1.024849
vt 0.100251 0.895789
vt 0.555592 0.895789
vt 0.327922 0.971679
vt 0.511843 0.100572
vt 0.163597 0.100572
vt 0.337720 -0.030020
vt 0.104688 0.100230
vt -0.377029 0.100230
vt -0.136171 0.019945
g rail
f 4/1/1 2/2/2 1/3/3 3/4/4 
f 6/5/5 8/6/6 7/7/7 5/8/8 
f 8/9/9 6/10/10 2/11/11 4/12/12 
f 5/13/13 7/14/14 3/15/15 1/16/16 
f 7/17/17 8/18/18 9/19/19 
f 8/20/20 4/21/21 9/22/22 
f 4/23/23 3/24/24 9/25/25 
f 3/26/26 7/27/27 9/28/28 
v -11.250000 -0.000008 -9.500000
v -9.250008 -0.000008 -9.500000
v -11.250000 79.999992 -3.010000
v -9.250008 79.999992 -3.010000
v -11.250000 -0.000008 -6.500000
v -9.250008 -0.000008 -6.500000
v -11.250000 79.999992 -0.010000
v -9.250008 79.999992 -0.010000
v -10.250004 79.999992 -1.510000
vn 0.000000 0.080859 -0.996725
vn 0.000000 0.080859 -0.996725
vn 0.000000 0.080859 -0.996725
vn 0.000000 0.080859 -0.996725
vn 0.000000 -0.080859 0.996725
vn 0.000000 -0.080859 0.996725
vn 0.000000 -0.080859 0.996725
vn 0.000000 -0.080859 0.996725
vn 1.000000 -0.000000 0.000000
vn 1.000000 -0.000000 0.000000
vn 1.000000 -0.000000 0.000000
vn 1.000000 -0.000000 0.000000
vn -1.000000 0.000000 -0.000000
vn -1.000000 0.000000 -0.000000
vn -1.000000 0.000000 -0.000000
vn -1.000000 0.000000 -0.000000
vn 0.000000 1.000000 0.000000
vn 0.000000 1.000000 0.000000
vn 0.000000 1.000000 0.000000
vn 0.000000 1.000000 0.000000
vn 0.000000 1.000000 0.000000
vn 0.000000 1.000000 0.000000
vn 0.000000 1.000000 0.000000
vn 0.000000 1.000000 0.000000
vn 0.000000 1.000000 0.000000
vn 0.000000 1.000000 0.000000
vn 0.000000 1.000000 0.000000
vn 0.000000 1.000000 0.000000
vt -7.387271 0.895775
vt 8.387271 0.895775
vt 8.387271 1.099572
vt -7.387271 1.099572
vt -7.401622 -0.103433
vt 8.401622 -0.103433
vt 8.401622 0.100940
vt -7.401622 0.100940
vt 5.744740 1.099644
vt -4.744740 1.099644
vt -4.744740 0.895703
vt 5.744740 0.895703
vt -4.746322 -0.103355
vt 5.746322 -0.103356
vt 5.746322 0.100863
vt -4.746322 0.100862
vt 0.638627 0.896394
vt 0.981170 0.896394
vt 0.809898 1.024849
vt 0.100251 0.895789
vt 0.555592 0.895789
vt 0.327922 0.971679
vt 0.511843 0.100572
vt 0.163597 0.100572
vt 0.337720 -0.030020
vt 0.104688 0.100230
vt -0.377029 0.100230
vt -0.136171 0.019945
g rail
f 13/29/29 11/30/30 10/31/31 12/32/32 
f 15/33/33 17/34/34 16/35/35 14/36/36 
f 17/37/37 15/38/38 11/39/39 13/40/40 
f 14/41/41 16/42/42 12/43/43 10/44/44 
f 16/45/45 17/46/46 18/47/47 
f 17/48/48 13/49/49 18/50/50 
f 13/51/51 12/52/52 18/53/53 
f 12/54/54 16/55/55 18/56/56 
v -9.250000 4.000000 -8.136526
v 9.250000 3.000000 -8.136526
v -9.250000 3.000000 -8.136526
v 9.250000 4.000000 -8.136526
v -9.250000 4.000000 -7.136526
v 9.250000 3.000000 -7.136526
v -9.250000 3.000000 -7.136526
v 9.250000 4.000000 -7.136526
vn 0.000000 0.000000 -1.000000
vn 0.000000 0.000000 -1.000000
vn 0.000000 0.000000 -1.000000
vn 0.000000 0.000000 -1.000000
vn 0.000000 -1.000000 0.000000
vn 0.000000 -1.000000 0.000000
vn 0.000000 -1.000000 0.000000
vn 0.000000 -1.000000 0.000000
vn 0.000000 1.000000 0.000000
vn 0.000000 1.000000 0.000000
vn 0.000000 1.000000 0.000000
vn 0.000000 1.000000 0.000000
vn 0.000000 -0.000000 1.000000
vn 0.000000 -0.000000 1.000000
vn 0.000000 -0.000000 1.000000
vn 0.000000 -0.000000 1.000000
vt -1.414000 0.522992
vt 1.414000 0.522992
vt 1.414000 0.599424
vt -1.414000 0.599424
vt 1.414000 0.223994
vt -1.414000 0.223994
vt -1.414000 0.147561
vt 1.414000 0.147561
vt -1.414000 0.398423
vt 1.414000 0.398423
vt 1.414000 0.474855
vt -1.414000 0.474855
vt -1.414000 0.272561
vt 1.414000 0.272561
vt 1.414000 0.348994
vt -1.414000 0.348994
g step
f 20/57/57 21/58/58 19/59/59 22/60/60 
f 24/61/61 25/62/62 21/63/63 20/64/64 
f 23/65/65 26/66/66 22/67/67 19/68/68 
f 25/69/69 24/70/70 26/71/71 23/72/72 
v -9.250000 9.000000 -7.730556
v 9.250000 8.000000 -7.730556
v -9.250000 8.000000 -7.730556
v 9.250000 9.000000 -7.730556
v -9.250000 9.000000 -6.730556
v 9.250000 8.000000 -6.730556
v -9.250000 8.000000 -6.730556
v 9.250000 9.000000 -6.730556
vn 0.000000 0.000000 -1.000000
vn 0.000000 0.000000 -1.000000
vn 0.000000 0.000000 -1.000000
vn 0.000000 0.000000 -1.000000
vn 0.000000 -1.000000 0.000000
vn 0.000000 -1.000000 0.000000
vn 0.000000 -1.000000 0.000000
vn 0.000000 -1.000000 0.000000
vn 0.000000 1.000000 0.000000
vn 0.000000 1.000000 0.000000
vn 0.000000 1.000000 0.000000
vn 0.000000 1.000000 0.000000
vn 0.000000 -0.000000 1.000000
vn 0.000000 -0.000000 1.000000
vn 0.000000 -0.000000 1.000000
vn 0.000000 -0.000000 1.000000
vt -0.914000 0.522992
vt 1.914000 0.522992
vt 1.914000 0.599424
vt -0.914000 0.599424
vt 1.914000 0.223994
vt -0.914000 0.223994
vt -0.914000 0.147561
vt 1.914000 0.147561
vt -0.914000 0.398423
vt 1.914000 0.398423
vt 1.914000 0.474855
vt -0.914000 0.474855
vt -0.914000 0.272561
vt 1.914000 0.272561
vt 1.914000 0.348994
vt -0.914000 0.348994
g step
f 28/73/73 29/74/74 27/75/75 30/76/76 
f 32/77/77 33/78/78 29/79/79 28/80/80 
f 31/81/81 34/82/82 30/83/83 27/84/84 
f 33/85/85 32/86/86 34/87/87 31/88/88 
v -9.250000 14.000000 -7.324000
v 9.250000 13.000000 -7.324000
v -9.250000 13.000000 -7.324000
v 9.250000 14.000000 -7.324000
v -9.250000 14.000000 -6.324000
v 9.250000 13.000000 -6.324000
v -9.250000 13.000000 -6.324000
v 9.250000 14.000000 -6.324000
vn 0.000000 0.000000 -1.000000
vn 0.000000 0.000000 -1.000000
vn 0.000000 0.000000 -1.000000
vn 0.000000 0.000000 -1.000000
vn 0.000000 -1.000000 0.000000
vn 0.000000 -1.000000 0.000000
vn 0.000000 -1.000000 0.000000
vn 0.000000 -1.000000 0.000000
vn 0.000000 1.000000 0.000000
vn 0.000000 1.000000 0.000000
vn 0.000000 1.000000 0.000000
vn 0.000000 1.000000 0.000000
vn 0.000000 -0.000000 1.000000
vn 0.000000 -0.000000 1.000000
vn 0.000000 -0.000000 1.000000
vn 0.000000 -0.000000 1.000000
vt -1.314000 0.522992
vt 1.514000 0.522992
vt 1.514000 0.599424
vt -1.314000 0.599424
vt 1.514000 0.223994
vt -1.314000 0.223994
vt -1.314000 0.147561
vt 1.514000 0.147561
vt -1.314000 0.398423
vt 1.514000 0.398423
vt 1.514000 0.474855
vt -1.314000 0.474855
vt -1.314000 0.272561
vt 1.514000 0.272561
vt 1.514000 0.348994
vt -1.314000 0.348994
g step
f 36/89/89 37/90/90 35/91/91 38/92/92 
f 40/93/93 41/94/94 37/95/95 36/96/96 
f 39/97/97 42/98/98 38/99/99 35/100/100 
f 41/101/101 40/102/102 42/103/103 39/104/104 
v -9.250000 19.000000 -6.914912
v 9.250000 18.000000 -6.914912
v -9.250000 18.000000 -6.914912
v 9.250000 19.000000 -6.914912
v -9.250000 19.000000 -5.914911
v 9.250000 18.000000 -5.914911
v -9.250000 18.000000 -5.914911
v 9.250000 19.000000 -5.914911
vn 0.000000 0.000000 -1.000000
vn 0.000000 0.000000 -1.000000
vn 0.000000 0.000000 -1.000000
vn 0.000000 0.000000 -1.000000
vn 0.000000 -1.000000 0.000000
vn 0.000000 -1.000000 0.000000
vn 0.000000 -1.000000 0.000000
vn 0.000000 -1.000000 0.000000
vn 0.000000 1.000000 0.000000
vn 0.000000 1.000000 0.000000
vn 0.000000 1.000000 0.000000
vn 0.000000 1.000000 0.000000
vn 0.000000 -0.000000 1.000000
vn 0.000000 -0.000000 1.000000
vn 0.000000 -0.000000 1.000000
vn 0.000000 -0.000000 1.000000
vt -0.814000 0.522992
vt 2.014000 0.522992
vt 2.014000 0.599424
vt -0.814000 0.599424
vt 2.014000 0.223994
vt -0.814000 0.223994
vt -0.814000 0.147561
vt 2.014000 0.147561
vt -0.814000 0.398423
vt 2.014000 0.398423
vt 2.014000 0.474855
vt -0.814000 0.474855
vt -0.814000 0.272561
vt 2.014000 0.272561
vt 2.014000 0.348994
vt -0.814000 0.348994
g step
f 44/105/105 45/106/106 43/107/107 46/108/108 
f 48/109/109 49/110/110 45/111/111 44/112/112 
f 47/113/113 50/114/114 46/115/115 43/116/116 
f 49/117/117 48/118/118 50/119/119 47/120/120 
v -9.250000 24.000000 -6.509965
v 9.250000 23.000000 -6.509965
v -9.250000 23.000000 -6.509965
v 9.250000 24.000000 -6.509965
v -9.250000 24.000000 -5.509965
v 9.250000 23.000000 -5.509965
v -9.250000 23.000000 -5.509965
v 9.250000 24.000000 -5.509965
vn 0.000000 0.000000 -1.000000
vn 0.000000 0.000000 -1.000000
vn 0.000000 0.000000 -1.000000
vn 0.000000 0.000000 -1.000000
vn 0.000000 -1.000000 0.000000
vn 0.000000 -1.000000 0.000000
vn 0.000000 -1.000000 0.000000
vn 0.000000 -1.000000 0.000000
vn 0.000000 1.000000 0.000000
vn 0.000000 1.000000 0.000000
vn 0.000000 1.000000 0.000000
vn 0.000000 1.000000 0.000000
vn 0.000000 -0.000000 1.000000
vn 0.000000 -0.000000 1.000000
vn 0.000000 -0.000000 1.000000
vn 0.000000 -0.000000 1.000000
vt -1.214000 0.522992
vt 1.614000 0.522992
vt 1.614000 0.599424
vt -1.214000 0.599424
vt 1.614000 0.223994
vt -1.214000 0.223994
vt -1.214000 0.147561
vt 1.614000 0.147561
vt -1.214000 0.398423
vt 1.614000 0.398423
vt 1.614000 0.474855
vt -1.214000 0.474855
vt -1.214000 0.272561
vt 1.614000 0.272561
vt 1.614000 0.348994
vt -1.214000 0.348994
g step
f 52/121/121 53/122/122 51/123/123 54/124/124 
f 56/125/125 57/126/126 53/127/127 52/128/128 
f 55/129/129 58/130/130 54/131/131 51/132/132 
f 57/133/133 56/134/134 58/135/135 55/136/136 
v -9.250000 29.000000 -6.110265
v 9.250000 28.000000 -6.110265
v -9.250000 28.000000 -6.110265
v 9.250000 29.000000 -6.110265
v -9.250000 29.000000 -5.110264
v 9.250000 28.000000 -5.110264
v -9.250000 28.000000 -5.110264
v 9.250000 29.000000 -5.110264
vn 0.000000 0.000000 -1.000000
vn 0.000000 0.000000 -1.000000
vn 0.000000 0.000000 -1.000000
vn 0.000000 0.000000 -1.000000
vn 0.000000 -1.000000 0.000000
vn 0.000000 -1.000000 0.000000
vn 0.000000 -1.000000 0.000000
vn 0.000000 -1.000000 0.000000
vn 0.000000 1.000000 0.000000
vn 0.000000 1.000000 0.000000
vn 0.000000 1.000000 0.000000
vn 0.000000 1.000000 0.000000
vn 0.000000 -0.000000 1.000000
vn 0.000000 -0.000000 1.000000
vn 0.000000 -0.000000 1.000000
vn 0.000000 -0.000000 1.000000
vt -0.714000 0.522992
vt 2.114000 0.522992
vt 2.114000 0.599424
vt -0.714000 0.599424
vt 2.114000 0.223994
vt -0.714000 0.223994
vt -0.714000 0.147561
vt 2.114000 0.147561
vt -0.714000 0.398423
vt 2.114000 0.398423
vt 2.114000 0.474855
vt -0.714000 0.474855
vt -0.714000 0.272561
vt 2.114000 0.272561
vt 2.114000 0.348994
vt -0.714000 0.348994
g step
f 60/137/137 61/138/138 59/139/139 62/140/140 
f 64/141/141 65/142/142 61/143/143 60/144/144 
f 63/145/145 66/146/146 62/147/147 59/148/148 
f 65/149/149 64/150/150 66/151/151 63/152/152 
v -9.250000 34.000000 -5.703997
v 9.250000 33.000000 -5.703997
v -9.250000 33.000000 -5.703997
v 9.250000 34.000000 -5.703997
v -9.250000 34.000000 -4.703997
v 9.250000 33.000000 -4.703997
v -9.250000 33.000000 -4.703997
v 9.250000 34.000000 -4.703997
vn 0.000000 0.000000 -1.000000
vn 0.000000 0.000000 -1.000000
vn 0.000000 0.000000 -1.000000
vn 0.000000 0.000000 -1.000000
vn 0.000000 -1.000000 0.000000
vn 0.000000 -1.000000 0.000000
vn 0.000000 -1.000000 0.000000
vn 0.000000 -1.000000 0.000000
vn 0.000000 1.000000 0.000000
vn 0.000000 1.000000 0.000000
vn 0.000000 1.000000 0.000000
vn 0.000000 1.000000 0.000000
vn 0.000000 -0.000000 1.000000
vn 0.000000 -0.000000 1.000000
vn 0.000000 -0.000000 1.000000
vn 0.000000 -0.000000 1.000000
vt -1.114000 0.522992
vt 1.714000 0.522992
vt 1.714000 0.599424
vt -1.114000 0.599424
vt 1.714000 0.223994
vt -1.114000 0.223994
vt -1.114000 0.147561
vt 1.714000 0.147561
vt -1.114000 0.398423
vt 1.714000 0.398423
vt 1.714000 0.474855
vt -1.114000 0.474855
vt -1.114000 0.272561
vt 1.714000 0.272561
vt 1.714000 0.348994
vt -1.114000 0.348994
g step
f 68/153/153 69/154/154 67/155/155 70/156/156 
f 72/157/157 73/158/158 69/159/159 68/160/160 
f 71/161/161 74/162/162 70/163/163 67/164/164 
f 73/165/165 72/166/166 74/167/167 71/168/168 
v -9.250000 39.000000 -5.298314
v 9.250000 38.000000 -5.298314
v -9.250000 38.000000 -5.298314
v 9.250000 39.000000 -5.298314
v -9.250000 39.000000 -4.298314
v 9.250000 38.000000 -4.298314
v -9.250000 38.000000 -4.298314
v 9.250000 39.000000 -4.298314
vn 0.000000 0.000000 -1.000000
vn 0.000000 0.000000 -1.000000
vn 0.000000 0.000000 -1.000000
vn 0.000000 0.000000 -1.000000
vn 0.000000 -1.000000 0.000000
vn 0.000000 -1.000000 0.000000
vn 0.000000 -1.000000 0.000000
vn 0.000000 -1.000000 0.000000
vn 0.000000 1.000000 0.000000
vn 0.000000 1.000000 0.000000
vn 0.000000 1.000000 0.000000
vn 0.000000 1.000000 0.000000
vn 0.000000 -0.000000 1.000000
vn 0.000000 -0.000000 1.000000
vn 0.000000 -0.000000 1.000000
vn 0.000000 -0.000000 1.000000
vt -0.614000 0.522992
vt 2.214000 0.522992
vt 2.214000 0.599424
vt -0.614000 0.599424
vt 2.214000 0.223994
vt -0.614000 0.223994
vt -0.614000 0.147561
vt 2.214000 0.147561
vt -0.614000 0.398423
vt 2.214000 0.398423
vt 2.214000 0.474855
vt -0.614000 0.474855
vt -0.614000 0.272561
vt 2.214000 0.272561
vt 2.214000 0.348994
vt -0.614000 0.348994
g step
f 76/169/169 77/170/170 75/171/171 78/172/172 
f 80/173/173 81/174/174 77/175/175 76/176/176 
f 79/177/177 82/178/178 78/179/179 75/180/180 
f 81/181/181 80/182/182 82/183/183 79/184/184 
v -9.250000 44.000000 -4.892779
v 9.250000 43.000000 -4.892779
v -9.250000 43.000000 -4.892779
v 9.250000 44.000000 -4.892779
v -9.250000 44.000000 -3.892778
v 9.250000 43.000000 -3.892778
v -9.250000 43.000000 -3.892778
v 9.250000 44.000000 -3.892778
vn 0.000000 0.000000 -1.000000
vn 0.000000 0.000000 -1.000000
vn 0.000000 0.000000 -1.000000
vn 0.000000 0.000000 -1.000000
vn 0.000000 -1.000000 0.000000
vn 0.000000 -1.000000 0.000000
vn 0.000000 -1.000000 0.000000
vn 0.000000 -1.000000 0.000000
vn 0.000000 1.000000 0.000000
vn 0.000000 1.000000 0.000000
vn 0.000000 1.000000 0.000000
vn 0.000000 1.000000 0.000000
vn 0.000000 -0.000000 1.000000
vn 0.000000 -0.000000 1.000000
vn 0.000000 -0.000000 1.000000
vn 0.000000 -0.000000 1.000000
vt -1.014000 0.522992
vt 1.814000 0.522992
vt 1.814000 0.599424
vt -1.014000 0.599424
vt 1.814000 0.223994
vt -1.014000 0.223994
vt -1.014000 0.147561
vt 1.814000 0.147561
vt -1.014000 0.398423
vt 1.814000 0.398423
vt 1.814000 0.474855
vt -1.014000 0.474855
vt -1.014000 0.272561
vt 1.814000 0.272561
vt 1.814000 0.348994
vt -1.014000 0.348994
g step
f 84/185/185 85/186/186 83/187/187 86/188/188 
f 88/189/189 89/190/190 85/191/191 84/192/192 
f 87/193/193 90/194/194 86/195/195 83/196/196 
f 89/197/197 88/198/198 90/199/199 87/200/200 
v -9.250000 49.000000 -4.486217
v 9.250000 48.000000 -4.486217
v -9.250000 48.000000 -4.486217
v 9.250000 49.000000 -4.486217
v -9.250000 49.000000 -3.486217
v 9.250000 48.000000 -3.486217
v -9.250000 48.000000 -3.486217
v 9.250000 49.000000 -3.486217
vn 0.000000 0.000000 -1.000000
vn 0.000000 0.000000 -1.000000
vn 0.000000 0.000000 -1.000000
vn 0.000000 0.000000 -1.000000
vn 0.000000 -1.000000 0.000000
vn 0.000000 -1.000000 0.000000
vn 0.000000 -1.000000 0.000000
vn 0.000000 -1.000000 0.000000
vn 0.000000 1.000000 0.000000
vn 0.000000 1.000000 0.000000
vn 0.000000 1.000000 0.000000
vn 0.000000 1.000000 0.000000
vn 0.000000 -0.000000 1.000000
vn 0.000000 -0.000000 1.000000
vn 0.000000 -0.000000 1.000000
vn 0.000000 -0.000000 1.000000
vt -0.514000 0.522992
vt 2.314000 0.522992
vt 2.314000 0.599424
vt -0.514000 0.599424
vt 2.314000 0.223994
vt -0.514000 0.223994
vt -0.514000 0.147561
vt 2.314000 0.147561
vt -0.514000 0.398423
vt 2.314000 0.398423
vt 2.314000 0.474855
vt -0.514000 0.474855
vt -0.514000 0.272561
vt 2.314000 0.272561
vt 2.314000 0.348994
vt -0.514000 0.348994
g step
f 92/201/201 93/202/202 91/203/203 94/204/204 
f 96/205/205 97/206/206 93/207/207 92/208/208 
f 95/209/209 98/210/210 94/211/211 91/212/212 
f 97/213/213 96/214/214 98/215/215 95/216/216 
v -9.250000 54.000000 -4.080809
v 9.250000 53.000000 -4.080809
v -9.250000 53.000000 -4.080809
v 9.250000 54.000000 -4.080809
v -9.250000 54.000000 -3.080808
v 9.250000 53.000000 -3.080808
v -9.250000 53.000000 -3.080808
v 9.250000 54.000000 -3.080808
vn 0.000000 0.000000 -1.000000
vn 0.000000 0.000000 -1.000000
vn 0.000000 0.000000 -1.000000
vn 0.000000 0.000000 -1.000000
vn 0.000000 -1.000000 0.000000
vn 0.000000 -1.000000 0.000000
vn 0.000000 -1.000000 0.000000
vn 0.000000 -1.000000 0.000000
vn 0.000000 1.000000 0.000000
vn 0.000000 1.000000 0.000000
vn 0.000000 1.000000 0.000000
vn 0.000000 1.000000 0.000000
vn 0.000000 -0.000000 1.000000
vn 0.000000 -0.000000 1.000000
vn 0.000000 -0.000000 1.000000
vn 0.000000 -0.000000 1.000000
vt -0.914000 0.522992
vt 1.914000 0.522992
vt 1.914000 0.599424
vt -0.914000 0.599424
vt 1.914000 0.223994
vt -0.914000 0.223994
vt -0.914000 0.147561
vt 1.914000 0.147561
vt -0.914000 0.398423
vt 1.914000 0.398423
vt 1.914000 0.474855
vt -0.914000 0.474855
vt -0.914000 0.272561
vt 1.914000 0.272561
vt 1.914000 0.348994
vt -0.914000 0.348994
g step
f 100/217/217 101/218/218 99/219/219 102/220/220 
f 104/221/221 105/222/222 101/223/223 100/224/224 
f 103/225/225 106/226/226 102/227/227 99/228/228 
f 105/229/229 104/230/230 106/231/231 103/232/232 
v -9.250000 59.000000 -3.673912
v 9.250000 58.000000 -3.673912
v -9.250000 58.000000 -3.673912
v 9.250000 59.000000 -3.673912
v -9.250000 59.000000 -2.673912
v 9.250000 58.000000 -2.673912
v -9.250000 58.000000 -2.673912
v 9.250000 59.000000 -2.673912
vn 0.000000 0.000000 -1.000000
vn 0.000000 0.000000 -1.000000
vn 0.000000 0.000000 -1.000000
vn 0.000000 0.000000 -1.000000
vn 0.000000 -1.000000 0.000000
vn 0.000000 -1.000000 0.000000
vn 0.000000 -1.000000 0.000000
vn 0.000000 -1.000000 0.000000
vn 0.000000 1.000000 0.000000
vn 0.000000 1.000000 0.000000
vn 0.000000 1.000000 0.000000
vn 0.000000 1.000000 0.000000
vn 0.000000 -0.000000 1.000000
vn 0.000000 -0.000000 1.000000
vn 0.000000 -0.000000 1.000000
vn 0.000000 -0.000000 1.000000
vt -1.414000 0.522992
vt 1.414000 0.522992
vt 1.414000 0.599424
vt -1.414000 0.599424
vt 1.414000 0.223994
vt -1.414000 0.223994
vt -1.414000 0.147561
vt 1.414000 0.147561
vt -1.414000 0.398423
vt 1.414000 0.398423
vt 1.414000 0.474855
vt -1.414000 0.474855
vt -1.414000 0.272561
vt 1.414000 0.272561
vt 1.414000 0.348994
vt -1.414000 0.348994
g step
f 108/233/233 109/234/234 107/235/235 110/236/236 
f 112/237/237 113/238/238 109/239/239 108/240/240 
f 111/241/241 114/242/242 110/243/243 107/244/244 
f 113/245/245 112/246/246 114/247/247 111/248/248 
v -9.250000 79.000000 -2.052622
v 9.250000 78.000000 -2.052622
v -9.250000 78.000000 -2.052622
v 9.250000 79.000000 -2.052622
v -9.250000 79.000000 -1.052622
v 9.250000 78.000000 -1.052622
v -9.250000 78.000000 -1.052622
v 9.250000 79.000000 -1.052622
vn 0.000000 0.000000 -1.000000
vn 0.000000 0.000000 -1.000000
vn 0.000000 0.000000 -1.000000
vn 0.000000 0.000000 -1.000000
vn 0.000000 -1.000000 0.000000
vn 0.000000 -1.000000 0.000000
vn 0.000000 -1.000000 0.000000
vn 0.000000 -1.000000 0.000000
vn 0.000000 1.000000 0.000000
vn 0.000000 1.000000 0.000000
vn 0.000000 1.000000 0.000000
vn 0.000000 1.000000 0.000000
vn 0.000000 -0.000000 1.000000
vn 0.000000 -0.000000 1.000000
vn 0.000000 -0.000000 1.000000
vn 0.000000 -0.000000 1.000000
vt -1.114000 0.522992
vt 1.714000 0.522992
vt 1.714000 0.599424
vt -1.114000 0.599424
vt 1.714000 0.223994
vt -1.114000 0.223994
vt -1.114000 0.147561
vt 1.714000 0.147561
vt -1.114000 0.398423
vt 1.714000 0.398423
vt 1.714000 0.474855
vt -1.114000 0.474855
vt -1.114000 0.272561
vt 1.714000 0.272561
vt 1.714000 0.348994
vt -1.114000 0.348994
g step
f 116/249/249 117/250/250 115/251/251 118/252/252 
f 120/253/253 121/254/254 117/255/255 116/256/256 
f 119/257/257 122/258/258 118/259/259 115/260/260 
f 121/261/261 120/262/262 122/263/263 119/264/264 
v -9.250000 74.000000 -2.453553
v 9.250000 73.000000 -2.453553
v -9.250000 73.000000 -2.453553
v 9.250000 74.000000 -2.453553
v -9.250000 74.000000 -1.453552
v 9.250000 73.000000 -1.453552
v -9.250000 73.000000 -1.453552
v 9.250000 74.000000 -1.453552
vn 0.000000 0.000000 -1.000000
vn 0.000000 0.000000 -1.000000
vn 0.000000 0.000000 -1.000000
vn 0.000000 0.000000 -1.000000
vn 0.000000 -1.000000 0.000000
vn 0.000000 -1.000000 0.000000
vn 0.000000 -1.000000 0.000000
vn 0.000000 -1.000000 0.000000
vn 0.000000 1.000000 0.000000
vn 0.000000 1.000000 0.000000
vn 0.000000 1.000000 0.000000
vn 0.000000 1.000000 0.000000
vn 0.000000 -0.000000 1.000000
vn 0.000000 -0.000000 1.000000
vn 0.000000 -0.000000 1.000000
vn 0.000000 -0.000000 1.000000
vt -0.714000 0.522992
vt 2.114000 0.522992
vt 2.114000 0.599424
vt -0.714000 0.599424
vt 2.114000 0.223994
vt -0.714000 0.223994
vt -0.714000 0.147561
vt 2.114000 0.147561
vt -0.714000 0.398423
vt 2.114000 0.398423
vt 2.114000 0.474855
vt -0.714000 0.474855
vt -0.714000 0.272561
vt 2.114000 0.272561
vt 2.114000 0.348994
vt -0.714000 0.348994
g step
f 124/265/265 125/266/266 123/267/267 126/268/268 
f 128/269/269 129/270/270 125/271/271 124/272/272 
f 127/273/273 130/274/274 126/275/275 123/276/276 
f 129/277/277 128/278/278 130/279/279 127/280/280 
v -9.250000 69.000000 -2.858109
v 9.250000 68.000000 -2.858109
v -9.250000 68.000000 -2.858109
v 9.250000 69.000000 -2.858109
v -9.250000 69.000000 -1.858108
v 9.250000 68.000000 -1.858108
v -9.250000 68.000000 -1.858108
v 9.250000 69.000000 -1.858108
vn 0.000000 0.000000 -1.000000
vn 0.000000 0.000000 -1.000000
vn 0.000000 0.000000 -1.000000
vn 0.000000 0.000000 -1.000000
vn 0.000000 -1.000000 0.000000
vn 0.000000 -1.000000 0.000000
vn 0.000000 -1.000000 0.000000
vn 0.000000 -1.000000 0.000000
vn 0.000000 1.000000 0.000000
vn 0.000000 1.000000 0.000000
vn 0.000000 1.000000 0.000000
vn 0.000000 1.000000 0.000000
vn 0.000000 -0.000000 1.000000
vn 0.000000 -0.000000 1.000000
vn 0.000000 -0.000000 1.000000
vn 0.000000 -0.000000 1.000000
vt -1.314000 0.522992
vt 1.514000 0.522992
vt 1.514000 0.599424
vt -1.314000 0.599424
vt 1.514000 0.223994
vt -1.314000 0.223994
vt -1.314000 0.147561
vt 1.514000 0.147561
vt -1.314000 0.398423
vt 1.514000 0.398423
vt 1.514000 0.474855
vt -1.314000 0.474855
vt -1.314000 0.272561
vt 1.514000 0.272561
vt 1.514000 0.348994
vt -1.314000 0.348994
g step
f 132/281/281 133/282/282 131/283/283 134/284/284 
f 136/285/285 137/286/286 133/287/287 132/288/288 
f 135/289/289 138/290/290 134/291/291 131/292/292 
f 137/293/293 136/294/294 138/295/295 135/296/296 
v -9.250000 64.000000 -3.265238
v 9.250000 63.000000 -3.265238
v -9.250000 63.000000 -3.265238
v 9.250000 64.000000 -3.265238
v -9.250000 64.000000 -2.265237
v 9.250000 63.000000 -2.265237
v -9.250000 63.000000 -2.265237
v 9.250000 64.000000 -2.265237
vn 0.000000 0.000000 -1.000000
vn 0.000000 0.000000 -1.000000
vn 0.000000 0.000000 -1.000000
vn 0.000000 0.000000 -1.000000
vn 0.000000 -1.000000 0.000000
vn 0.000000 -1.000000 0.000000
vn 0.000000 -1.000000 0.000000
vn 0.000000 -1.000000 0.000000
vn 0.000000 1.000000 0.000000
vn 0.000000 1.000000 0.000000
vn 0.000000 1.000000 0.000000
vn 0.000000 1.000000 0.000000
vn 0.000000 -0.000000 1.000000
vn 0.000000 -0.000000 1.000000
vn 0.000000 -0.000000 1.000000
vn 0.000000 -0.000000 1.000000
vt -0.814000 0.522992
vt 2.014000 0.522992
vt 2.014000 0.599424
vt -0.814000 0.599424
vt 2.014000 0.223994
vt -0.814000 0.223994
vt -0.814000 0.147561
vt 2.014000 0.147561
vt -0.814000 0.398423
vt 2.014000 0.398423
vt 2.014000 0.474855
vt -0.814000 0.474855
vt -0.814000 0.272561
vt 2.014000 0.272561
vt 2.014000 0.348994
vt -0.814000 0.348994
g step
f 140/297/297 141/298/298 139/299/299 142/300/300 
f 144/301/301 145/302/302 141/303/303 140/304/304 
f 143/305/305 146/306/306 142/307/307 139/308/308 
f 145/309/309 144/310/310 146/311/311 143/312/312 
