g skin
v 0.355004 4.156752 1.039996
v 0.561377 1.855096 -1.434918
v 1.016727 0.000223 0.408984
v -1.267155 1.496893 1.223036
v 0.486347 1.885345 0.825602
v -0.738154 3.502446 -0.440064
v 0.370232 1.017258 0.828863
v 0.392538 3.113710 0.708907
v 1.287833 3.346638 -0.938984
v 1.131495 0.024980 -1.262736
v 0.382685 3.680223 0.647855
v 0.054316 0.011783 1.144492
v -1.224775 1.486916 0.181501
v -0.000375 3.305503 -1.256161
v 0.395093 0.010771 0.722394
v 1.147360 2.855794 -1.281916
v -0.745111 2.175653 1.419884
v -1.099385 4.118446 0.624738
v -1.337700 1.853747 1.283472
v 0.093796 4.240725 1.255717
v 0.297589 3.781888 0.402777
v 0.091988 2.330864 -1.409273
v 1.229705 0.752093 -1.269290
v 1.502955 2.268943 -0.196258
v 1.356744 -0.010185 -0.273567
v 0.322238 1.406681 1.062171
v 0.415111 2.175021 1.045990
v -1.044143 3.664590 0.215304
v 0.811512 3.645083 0.507752
v -0.776810 -0.013609 -1.060887
v -1.284392 3.129487 1.269309
v -0.704264 2.426956 -0.811808
v -0.147166 3.993762 -0.044833
v 1.170924 1.607178 -1.279951
v -0.615939 3.105720 -0.793879
v -1.094743 -0.021577 -0.598037
v 0.161187 -0.006600 -1.574445
v -0.944575 1.931468 -0.584551
v 1.410050 1.533260 -0.083695
v 0.304510 3.659315 1.130029
v -0.175400 4.244303 1.351184
v -0.647381 1.289556 -1.027526
v -1.142794 0.792943 -0.030215
v 1.166171 3.476369 0.464996
v -1.156193 4.161379 1.203789
v -1.460523 0.024099 1.167147
v 1.029225 1.050959 0.572141
v -0.350252 0.002995 1.372309
v 0.570070 3.261034 -1.343895
v 1.452206 3.484582 -0.191908
v -1.462061 1.116804 1.242189
v -0.127084 3.687468 -0.240724
v -0.211026 1.407563 1.390046
vt 0.552953 0.822791
vt 0.588205 0.847494
vt 0.611680 0.800090
vt 0.717388 0.992745
vt 0.736275 0.974274
vt 0.693024 0.992215
vt 0.712046 0.858629
vt 0.638141 0.824080
vt 0.618370 0.858302
vt 0.642084 0.746805
vt 0.600748 0.711250
vt 0.560308 0.752104
vt 0.844490 0.572683
vt 0.821330 0.591082
vt 0.852752 0.541356
vt 0.709840 0.717613
vt 0.721234 0.686102
vt 0.671007 0.678074
vt 0.641803 0.668129
vt 0.626546 0.633760
vt 0.581803 0.632472
vt 0.634234 0.904598
vt 0.618549 0.905014
vt 0.931625 0.630834
vt 0.939884 0.591807
vt 0.947988 0.606040
vt 0.701827 0.754205
vt 0.659357 0.769256
vt 0.570163 0.708053
vt 0.602779 0.990363
vt 0.619609 0.980044
vt 0.557941 0.972209
vt 0.617939 0.953257
vt 0.556206 0.951797
vt 0.688598 0.811199
vt 0.747930 0.549049
vt 0.757151 0.527045
vt 0.791726 0.497574
vt 0.883032 0.519155
vt 0.897144 0.565161
vt 0.865472 0.540856
vt 0.659801 0.811343
vt 0.635663 0.718447
vt 0.576277 0.664266
vt 0.700604 0.779510
vt 0.731119 0.903592
vt 0.730968 0.877948
vt 0.686993 0.903219
vt 0.726099 0.655497
vt 0.716285 0.619259
vt 0.664311 0.613562
vt 0.942269 0.531158
vt 0.944069 0.547299
vt 0.738306 0.947049
vt 0.649291 0.928879
vt 0.936256 0.572730
vt 0.923238 0.573485
vt 0.897565 0.497574
vt 0.935738 0.520220
vt 0.555136 0.900813
vt 0.554896 0.798453
vt 0.600917 0.901751
vt 0.904247 0.644676
vt 0.795949 0.624561
vt 0.747987 0.625656
vt 0.834801 0.502146
vt 0.652511 0.981235
vt 0.889004 0.578122
vt 0.686085 0.728570
vt 0.558630 0.996051
vt 0.640657 0.991644
vt 0.714706 0.971353
vt 0.735739 0.641869
vt 0.873766 0.634842
vt 0.810812 0.611589
vt 0.739001 0.959390
vt 0.740032 0.623239
vt 0.705486 0.827192
vt 0.585169 0.602829
vt 0.860650 0.616252
vt 0.860831 0.570168
vt 0.628386 0.604242
vn -0.9163 0.1270 -0.3799
vn -0.9493 0.0282 -0.3131
vn -0.7727 0.0844 -0.6291
vn 0.8220 0.4379 0.3642
vn 0.9321 0.3479 0.1011
vn 0.7642 0.1142 0.6347
vn -0.8034 0.3540 -0.4788
vn -0.8791 0.0614 -0.4727
vn -0.9811 0.0623 -0.1833
vn 0.1575 0.0372 -0.9868
vn 0.6576 -0.0224 -0.7530
vn 0.0287 0.0222 -0.9993
vn -0.0124 -0.9999 0.0091
vn 0.0077 -1.0000 0.0062
vn -0.0299 -0.9995 -0.0078
vn 0.6505 0.6133 -0.4480
vn 0.6859 0.7262 0.0458
vn 0.9927 -0.0262 0.1179
vn 0.9750 -0.0777 0.2082
vn 0.6411 -0.0616 0.7649
vn 0.7750 -0.1079 0.6227
vn -0.9943 -0.0742 -0.0772
vn -0.9891 0.1410 -0.0416
vn 0.3367 0.7380 0.5848
vn 0.6072 0.2342 0.7592
vn 0.0984 0.5024 -0.8590
vn -0.3796 0.0891 -0.9209
vn 0.7306 -0.1048 -0.6747
vn 0.7051 -0.0954 0.7026
vn 0.7409 -0.0904 0.6655
vn 0.7441 -0.0814 0.6631
vn 0.1342 -0.0402 0.9901
vn 0.1895 -0.0462 0.9808
vn -0.7505 0.1654 -0.6399
vn 0.0017 -1.0000 0.0035
vn -0.0031 -0.9998 -0.0194
vn 0.0149 -0.9999 -0.0030
vn -0.5309 0.7934 -0.2978
vn 0.1516 0.8061 -0.5721
vn -0.6933 0.1066 -0.7128
vn 0.8636 -0.0128 -0.5040
vn 0.9990 -0.0418 -0.0133
vn -0.3560 0.5754 -0.7363
vn -0.6854 0.7181 -0.1205
vn -0.9860 0.0742 -0.1491
vn 0.7121 -0.0088 0.7021
vn 0.0345 0.9838 -0.1757
vn 0.1687 0.0118 0.9856
vn -0.1150 -0.0088 0.9933
vn 0.5077 0.8352 -0.2115
vn -0.0524 0.9931 -0.1054
vn -0.9729 0.0503 -0.2259
vn -0.6267 0.0745 -0.7757
vn -0.9729 0.1464 -0.1788
vn -0.1486 0.0185 0.9887
vn 0.0118 -0.9997 0.0214
vn -0.0229 -0.9995 0.0211
vn -0.0081 -0.9999 -0.0102
vn 0.7948 -0.0022 0.6069
vn 0.0333 0.8863 -0.4619
vn 0.4720 0.1456 -0.8695
vn 0.5427 -0.0954 0.8345
vn 0.5617 -0.0020 0.8273
vn 0.0422 -0.9984 0.0365
vn 0.5003 -0.0059 0.8658
vn -0.1825 -0.0676 0.9809
vn -0.1789 0.0585 0.9821
vn -0.1852 -0.1065 0.9769
vn -0.1592 -0.0372 0.9866
vn -0.5296 0.6772 -0.5109
vn -0.1549 0.0818 0.9845
usemtl skin
s 1
f 36/1/1 43/2/2 42/3/3
f 11/4/4 1/5/5 8/6/6
f 28/7/7 38/8/8 13/9/9
f 2/10/10 23/11/11 37/12/12
f 3/13/13 15/14/14 25/15/15
f 9/16/16 50/17/17 24/18/18
f 39/19/19 47/20/20 3/21/21
f 19/22/22 13/9/9 4/23/23
f 50/24/17 29/25/24 44/26/25
f 49/27/26 2/10/10 22/28/27
f 37/12/12 23/11/11 10/29/28
f 7/30/29 26/31/30 12/32/31
f 26/31/30 53/33/32 48/34/33
f 35/35/34 38/8/8 28/7/7
f 36/36/35 30/37/36 37/38/37
f 18/39/38 33/40/39 28/41/7
f 35/35/34 32/42/40 38/8/8
f 34/43/41 39/19/19 25/44/42
f 14/45/43 49/27/26 22/28/27
f 45/46/44 18/47/38 31/48/45
f 44/49/25 8/50/6 5/51/46
f 50/17/17 44/49/25 24/18/18
f 20/52/47 1/53/5 33/40/39
f 41/54/48 17/55/49 53/33/32
f 1/53/5 11/56/4 21/57/50
f 45/58/44 41/59/51 18/39/38
f 36/1/1 46/60/52 43/2/2
f 36/1/1 42/3/3 30/61/53
f 13/9/9 43/2/2 51/62/54
f 53/33/32 51/62/55 48/34/33
f 50/24/17 9/63/16 21/57/50
f 41/59/51 20/52/47 18/39/38
f 2/10/10 34/43/41 23/11/11
f 18/47/38 28/7/7 31/48/45
f 44/49/25 5/51/46 47/20/20
f 48/64/56 46/65/57 36/36/35
f 25/15/15 15/14/14 10/66/58
f 26/31/30 27/67/59 53/33/32
f 33/40/39 21/57/50 52/68/60
f 22/28/27 35/35/34 14/45/43
f 29/25/24 50/24/17 21/57/50
f 49/27/26 16/69/61 2/10/10
f 28/7/7 13/9/9 31/48/45
f 24/18/18 44/49/25 47/20/20
f 24/18/18 39/19/19 34/43/41
f 7/30/29 12/32/31 15/70/62
f 9/16/16 16/69/61 49/27/26
f 38/8/8 43/2/2 13/9/9
f 5/71/46 8/6/6 27/67/59
f 52/68/60 28/41/7 33/40/39
f 1/5/5 40/72/63 27/67/59
f 38/8/8 42/3/3 43/2/2
f 44/49/25 29/73/24 8/50/6
f 52/68/60 9/63/16 49/74/26
f 12/75/64 48/64/56 15/14/14
f 20/76/65 40/72/63 1/5/5
f 2/10/10 37/12/12 22/28/27
f 51/62/55 46/60/66 48/34/33
f 51/62/54 43/2/2 46/60/52
f 31/48/67 19/22/68 17/55/49
f 9/16/16 24/18/18 34/43/41
f 5/71/46 26/31/30 7/30/29
f 41/54/48 31/48/67 17/55/49
f 19/22/68 4/23/69 53/33/32
f 8/50/6 29/73/24 11/77/4
f 20/52/47 33/40/39 18/39/38
f 22/28/27 30/61/53 42/3/3
f 34/43/41 16/69/61 9/16/16
f 6/78/70 35/35/34 28/7/7
f 15/79/62 3/21/21 47/20/20
f 32/42/40 22/28/27 42/3/3
f 52/68/60 14/80/43 6/81/70
f 15/14/14 36/36/35 37/38/37
f 17/55/49 19/22/68 53/33/32
f 23/11/11 34/43/41 25/44/42
f 27/67/59 26/31/30 5/71/46
f 52/68/60 6/81/70 28/41/7
f 31/48/45 13/9/9 19/22/22
f 48/64/56 36/36/35 15/14/14
f 41/54/48 45/46/71 31/48/67
f 15/14/14 37/38/37 10/66/58
f 22/28/27 37/12/12 30/61/53
f 27/67/59 40/72/63 41/54/48
f 22/28/27 32/42/40 35/35/34
f 21/57/50 9/63/16 52/68/60
f 13/9/9 51/62/54 4/23/23
f 47/20/20 7/82/29 15/79/62
f 16/69/61 34/43/41 2/10/10
f 41/54/48 53/33/32 27/67/59
f 35/35/34 6/78/70 14/45/43
f 53/33/32 4/23/69 51/62/55
f 11/56/4 29/25/24 21/57/50
f 52/68/60 49/74/26 14/80/43
f 32/42/40 42/3/3 38/8/8
f 1/53/5 21/57/50 33/40/39
f 26/31/30 48/34/33 12/32/31
f 41/54/48 40/72/63 20/76/65
f 8/6/6 1/5/5 27/67/59
f 10/29/28 23/11/11 25/44/42
f 39/19/19 3/21/21 25/44/42
f 39/19/19 24/18/18 47/20/20
f 5/51/46 7/82/29 47/20/20
