# Blender v2.83 (sub 11) OBJ File: ''
# www.blender.org
o tris.002
v -0.452161 0.010389 -0.049579
v 0.330753 3.140563 0.491101
v 0.493512 0.010389 -0.049579
v -1.799996 6.282093 -0.241100
v -0.995329 9.320358 0.744649
v 0.330753 6.270738 0.491102
v 3.048193 4.223192 -1.337569
v 3.261477 3.371634 -2.495382
v 1.550864 2.022157 -2.345093
v 0.355858 3.540334 2.993228
v 1.236068 2.809184 3.490221
v 1.592552 1.650522 2.059571
v 0.089429 3.239960 -4.394271
v -1.954253 5.580340 -3.103157
v -0.871861 5.879330 -0.694510
v -0.216272 2.996685 -0.502935
v 1.421466 2.605611 3.014953
v -0.857096 5.534842 2.823898
v -0.804475 5.492209 -0.238972
v -1.996849 4.988899 -1.149315
v -2.315615 2.786681 -0.309326
v 0.038147 2.618244 0.464751
v 2.445852 4.709509 -0.559034
v -1.664462 -0.017711 0.042381
v 1.969668 2.137934 -0.657078
v 1.275667 -0.011972 -0.108879
v 1.197363 9.320358 0.744649
v 2.501448 4.944559 -0.049577
v -1.190241 3.140563 -0.049577
v 1.614498 3.140564 -0.049577
v -1.389935 1.187768 0.140202
v -0.040654 -0.061560 1.569552
v -0.430938 -0.035531 -0.542464
v 0.082344 1.757404 -3.886372
v -2.345573 4.071617 -1.304038
v -0.595614 4.120362 -2.569986
v -0.447102 1.298023 -3.168838
v -3.604491 1.644183 0.238045
v -2.962192 4.102800 0.288261
v -1.589444 1.915653 -1.018720
v 0.286505 -0.017569 -1.142966
v -2.892126 0.703106 0.418479
v -0.560171 -0.017569 -0.127298
v 2.872733 9.341148 2.293975
v 1.871849 9.362069 3.293213
v 1.325142 6.657975 1.576881
v 2.543598 6.426945 0.960028
v 0.601338 6.465891 2.907617
v 0.437006 3.510803 0.904248
v 1.658290 3.627621 0.243556
v -0.278160 3.920248 2.279285
v 0.195133 -0.109722 0.544037
v 1.249007 8.591646 -3.157629
v 2.295910 8.545123 -2.462005
v 0.732420 5.778121 -1.699307
v -0.021296 5.655255 -2.665697
v 2.017681 5.563549 -1.317419
v 0.214245 3.156602 -0.933961
v -0.574948 3.342104 -1.871074
v 1.542200 3.476093 -0.525807
v -0.218881 -0.085870 -0.708999
v 1.391589 2.306191 -0.087987
v 3.648041 3.529092 1.606795
v 2.457774 1.444113 1.499930
v 0.913577 -0.009663 1.257475
v 0.154793 -0.009663 -1.337206
v 0.543357 10.870565 0.857846
v -0.428510 10.870565 -1.513409
v -0.318597 7.306348 -0.463849
v -0.166014 7.319618 2.164954
v -1.865423 5.756390 -2.571670
v -0.229155 3.647984 1.420652
v -0.318597 3.647985 -0.463849
v -1.472300 3.647986 -1.612491
v 0.064591 1.365672 1.552492
v -0.975445 -0.010379 -0.400219
v -0.556295 -0.010380 0.622465
v -0.195130 1.894394 1.298933
v -2.202051 2.944379 2.656581
v -1.782369 1.154212 1.720258
v -1.153620 -0.094003 0.534555
v 1.164887 -0.094004 0.644372
vt 0.863281 0.543457
vt 0.899414 0.687256
vt 0.906738 0.543457
vt 0.799805 0.830811
vt 0.837891 0.974396
vt 0.899414 0.830811
vt 0.414551 0.256836
vt 0.342041 0.235352
vt 0.348633 0.132324
vt 0.414551 0.256836
vt 0.342041 0.235352
vt 0.348633 0.132324
vt 0.074280 0.142578
vt 0.093018 0.228516
vt 0.174316 0.243164
vt 0.187622 0.132324
vt 0.307373 0.121582
vt 0.279541 0.229492
vt 0.414551 0.256836
vt 0.342041 0.235352
vt 0.348633 0.132324
vt 0.450195 0.132324
vt 0.562012 0.218750
vt 0.375488 0.013672
vt 0.539062 0.102539
vt 0.505859 0.013672
vt 0.938477 0.974396
vt 0.999023 0.769897
vt 0.829590 0.687256
vt 0.958008 0.687256
vt 0.822266 0.593750
vt 0.252686 0.013672
vt 0.186279 0.013672
vt 0.090210 0.084961
vt 0.174316 0.243164
vt 0.279541 0.229492
vt 0.307373 0.121582
vt 0.074280 0.142578
vt 0.093018 0.228516
vt 0.187622 0.132324
vt 0.252686 0.013672
vt 0.090210 0.084961
vt 0.186279 0.013672
vt 0.438477 0.958191
vt 0.469482 0.821289
vt 0.493896 0.958191
vt 0.412842 0.821289
vt 0.520508 0.821289
vt 0.469482 0.696289
vt 0.414795 0.708496
vt 0.524414 0.718750
vt 0.467285 0.541992
vt 0.438477 0.958191
vt 0.469482 0.821289
vt 0.493896 0.958191
vt 0.412842 0.821289
vt 0.520508 0.821289
vt 0.469482 0.696289
vt 0.414795 0.708496
vt 0.524414 0.718750
vt 0.467285 0.541992
vt 0.450195 0.132324
vt 0.539062 0.102539
vt 0.562012 0.218750
vt 0.505859 0.013672
vt 0.375488 0.013672
vt 0.837891 0.974396
vt 0.938477 0.974396
vt 0.899414 0.830811
vt 0.799805 0.830811
vt 0.999023 0.769897
vt 0.829590 0.687256
vt 0.899414 0.687256
vt 0.958008 0.687256
vt 0.822266 0.593750
vt 0.906738 0.543457
vt 0.863281 0.543457
vt 0.450195 0.132324
vt 0.539062 0.102539
vt 0.562012 0.218750
vt 0.505859 0.013672
vt 0.375488 0.013672
vn 0.0044 0.1691 -0.9856
vn -0.0388 0.0603 -0.9974
vn -0.0858 0.1652 -0.9825
vn 0.3237 0.1059 -0.9402
vn 0.1208 0.1343 -0.9836
vn 0.0562 0.0913 -0.9942
vn -0.6974 0.7095 -0.1017
vn -0.5428 0.6257 -0.5602
vn -0.7861 0.5813 -0.2099
vn 0.3233 0.7095 -0.6262
vn 0.7065 0.6257 -0.3307
vn 0.4545 0.5813 -0.6749
vn 0.9631 0.2680 -0.0253
vn 0.5969 0.7184 -0.3574
vn 0.8801 0.4510 -0.1486
vn 0.9871 0.0510 -0.1514
vn 0.9431 0.1301 -0.3059
vn 0.7862 0.6153 0.0569
vn -0.2466 0.2806 0.9276
vn -0.6573 0.3498 0.6676
vn -0.3758 0.1422 0.9157
vn 0.0755 0.0478 0.9960
vn 0.3094 0.1064 0.9450
vn -0.1152 -0.0842 0.9898
vn 0.4950 -0.0371 0.8681
vn 0.2593 -0.0877 0.9618
vn -0.0506 0.0970 -0.9940
vn -0.2470 0.0750 -0.9661
vn 0.3324 -0.0589 -0.9413
vn -0.3826 0.1683 -0.9085
vn 0.1005 0.0895 -0.9909
vn 0.9319 -0.1653 -0.3228
vn 0.9957 -0.0697 -0.0612
vn 0.9957 -0.0106 0.0917
vn -0.7654 -0.0432 -0.6421
vn -0.5830 0.1392 -0.8005
vn -0.7970 -0.4272 -0.4270
vn -0.5904 -0.2741 -0.7591
vn -0.9029 0.2431 -0.3544
vn -0.6501 -0.4751 -0.5930
vn -0.6798 -0.6362 -0.3650
vn -0.3900 -0.4986 -0.7742
vn -0.5283 -0.5710 -0.6283
vn -0.5468 0.4957 -0.6747
vn -0.6300 0.3930 -0.6698
vn -0.6688 0.4901 -0.5591
vn -0.3795 0.3627 -0.8512
vn -0.8266 0.3767 -0.4180
vn -0.6862 0.2244 -0.6920
vn -0.4782 0.2662 -0.8369
vn -0.8065 0.3008 -0.5090
vn -0.7020 0.1168 -0.7025
vn -0.5363 0.4639 0.7051
vn -0.5189 0.3771 0.7672
vn -0.4134 0.4515 0.7907
vn -0.7443 0.3691 0.5566
vn -0.2366 0.3527 0.9053
vn -0.5349 0.2351 0.8115
vn -0.7022 0.2924 0.6492
vn -0.3466 0.3097 0.8854
vn -0.5475 0.1305 0.8265
vn -0.7929 0.5524 0.2572
vn -0.6281 0.4244 0.6522
vn -0.6659 0.5824 0.4663
vn -0.7874 0.4230 0.4484
vn -0.8978 0.4312 0.0896
vn -0.9559 0.1343 0.2612
vn -0.9005 0.0970 0.4238
vn -0.9409 0.0931 0.3258
vn -0.9927 0.1059 0.0571
vn -0.8003 0.0750 0.5949
vn -0.9971 -0.0555 0.0517
vn -0.9081 0.0618 0.4141
vn -0.6955 0.1683 0.6986
vn -0.9550 0.0895 0.2828
vn -0.8766 0.1652 0.4520
vn -0.9159 0.1679 0.3646
vn 0.0151 0.5524 -0.8334
vn -0.4119 0.4244 -0.8063
vn -0.2239 0.5824 -0.7814
vn -0.1675 0.4230 -0.8905
vn 0.2078 0.4312 -0.8780
s 1
f 1/1/1 2/2/2 3/3/3
f 4/4/4 5/5/5 6/6/6
f 7/7/7 8/8/8 9/9/9
f 10/10/10 11/11/11 12/12/12
f 13/13/13 14/14/14 15/15/15
f 16/16/16 15/15/15 17/17/17
f 15/15/15 18/18/18 17/17/17
f 19/19/19 20/20/20 21/21/21
f 21/21/21 22/22/22 19/19/19
f 23/23/23 19/19/19 22/22/22
f 24/24/24 22/22/22 21/21/21
f 22/22/22 25/25/25 23/23/23
f 24/24/24 26/26/26 22/22/22
f 22/22/22 26/26/26 25/25/25
f 5/5/5 27/27/27 6/6/6
f 6/6/6 27/27/27 28/28/28
f 6/6/6 29/29/29 4/4/4
f 28/28/28 2/2/2 6/6/6
f 29/29/29 6/6/6 2/2/2
f 2/2/2 28/28/28 30/30/30
f 2/2/2 30/30/30 3/3/3
f 2/2/2 31/31/31 29/29/29
f 31/31/31 2/2/2 1/1/1
f 32/32/32 16/16/16 17/17/17
f 16/16/16 32/32/32 33/33/33
f 34/34/34 16/16/16 33/33/33
f 16/16/16 34/34/34 13/13/13
f 15/15/15 16/16/16 13/13/13
f 35/35/35 36/36/36 37/37/37
f 38/38/38 39/39/39 35/35/35
f 40/40/40 35/35/35 37/37/37
f 35/35/35 40/40/40 38/38/38
f 41/41/41 40/40/40 37/37/37
f 40/40/40 42/42/42 38/38/38
f 40/40/40 41/41/41 43/43/43
f 42/42/42 40/40/40 43/43/43
f 44/44/44 46/45/45 45/46/46
f 47/47/47 46/45/45 44/44/44
f 46/45/45 48/48/48 45/46/46
f 47/47/47 49/49/49 46/45/45
f 48/48/48 46/45/45 49/49/49
f 50/50/50 49/49/49 47/47/47
f 49/49/49 51/51/51 48/48/48
f 49/49/49 50/50/50 52/52/52
f 52/52/52 51/51/51 49/49/49
f 53/53/53 55/54/54 54/55/55
f 56/56/56 55/54/54 53/53/53
f 55/54/54 57/57/57 54/55/55
f 56/56/56 58/58/58 55/54/54
f 57/57/57 55/54/54 58/58/58
f 59/59/59 58/58/58 56/56/56
f 58/58/58 60/60/60 57/57/57
f 58/58/58 59/59/59 61/61/61
f 61/61/61 60/60/60 58/58/58
f 62/62/62 64/63/63 63/64/64
f 63/64/64 7/7/7 62/62/62
f 62/62/62 65/65/65 64/63/63
f 9/9/9 62/62/62 7/7/7
f 66/66/66 65/65/65 62/62/62
f 66/66/66 62/62/62 9/9/9
f 67/67/67 68/68/68 69/69/69
f 70/70/70 67/67/67 69/69/69
f 69/69/69 68/68/68 71/71/71
f 69/69/69 72/72/72 70/70/70
f 71/71/71 73/73/73 69/69/69
f 72/72/72 69/69/69 73/73/73
f 73/73/73 71/71/71 74/74/74
f 73/73/73 75/75/75 72/72/72
f 73/73/73 74/74/74 76/76/76
f 75/75/75 73/73/73 77/77/77
f 77/77/77 73/73/73 76/76/76
f 78/78/78 80/79/79 79/80/80
f 79/80/80 10/10/10 78/78/78
f 78/78/78 81/81/81 80/79/79
f 12/12/12 78/78/78 10/10/10
f 82/82/82 81/81/81 78/78/78
f 82/82/82 78/78/78 12/12/12
