# Wavefront OBJ exported by MilkShape 3D

v 15.953894 0.009957 15.953897
v -15.953894 0.009957 -15.953897
v -15.953894 0.009957 15.953897
v 15.953894 0.009957 -15.953897
v 15.953894 32.043839 15.953897
v -15.953894 32.043839 15.953897
v -15.953894 32.043839 -15.953897
v 15.953894 32.043839 -15.953897
# 8 vertices

vt 0.500000 0.496094
vt 0.500000 0.003906
vt 0.996094 0.496094
vt 0.996094 0.003906
vt 0.000000 1.000000
vt 0.000000 0.503906
vt 0.492188 1.000000
vt 0.496094 0.503906
vt 0.500000 1.000000
vt 0.500000 0.503906
vt 0.996094 1.000000
vt 1.000000 0.503906
vt 0.000000 0.500000
vt 0.000000 0.003906
vt 0.492188 0.500000
vt 0.496094 0.003906
# 16 texture coordinates

vn 0.000000 -1.000000 0.000000
vn 0.000000 0.000000 1.000000
vn 0.000000 0.000000 -1.000000
vn 1.000000 0.000000 0.000000
vn -1.000000 0.000000 0.000000
vn 0.000000 1.000000 0.000000
# 6 normals

g C:\Users\Nieb\Games\Sauerbraten
s 4
f 3/1/1 2/2/1 1/3/1
f 2/2/1 4/4/1 1/3/1
s 1
f 6/5/2 3/6/2 5/7/2
f 3/6/2 1/8/2 5/7/2
f 8/5/3 4/6/3 7/7/3
f 4/6/3 2/8/3 7/7/3
s 3
f 5/9/4 1/10/4 8/11/4
f 1/10/4 4/12/4 8/11/4
f 7/9/5 2/10/5 6/11/5
f 2/10/5 3/12/5 6/11/5
s 4
f 7/13/6 6/14/6 8/15/6
f 6/14/6 5/16/6 8/15/6
# 12 triangles in group

# 12 triangles total

